<?xml version="1.0" encoding="UTF-8" standalone="no"?>
<svg
   xmlns:dc="http://purl.org/dc/elements/1.1/"
   xmlns:cc="http://creativecommons.org/ns#"
   xmlns:rdf="http://www.w3.org/1999/02/22-rdf-syntax-ns#"
   xmlns:svg="http://www.w3.org/2000/svg"
   xmlns="http://www.w3.org/2000/svg"
   id="svg849"
   version="1.1"
   viewBox="0 0 8.4666665 8.4666669"
   height="32"
   width="32">
  <defs
     id="defs843" />
  <metadata
     id="metadata846">
    <rdf:RDF>
      <cc:Work
         rdf:about="">
        <dc:format>image/svg+xml</dc:format>
        <dc:type
           rdf:resource="http://purl.org/dc/dcmitype/StillImage" />
        <dc:title></dc:title>
      </cc:Work>
    </rdf:RDF>
  </metadata>
  <g
     id="layer1">
    <path
       d="m 1.5427999,1.042572 c -0.1904723,0 -0.3436483,0.1536929 -0.3436483,0.3441651 V 2.3706563 H 1.0818461 c -0.31838657,0 -0.57412515,0.2562559 -0.57412517,0.5746419 V 6.848936 c 0,0.3183866 0.2557386,0.5751587 0.57412517,0.5751587 h 6.3024577 c 0.3183867,0 0.574642,-0.2567721 0.574642,-0.5751587 V 2.9452982 c 0,-0.318386 -0.2562553,-0.5746419 -0.574642,-0.5746419 H 3.8584209 V 1.3867371 c 0,-0.1904722 -0.153176,-0.3441651 -0.3436483,-0.3441651 z m 0.1653646,0.2666504 h 1.5745807 v 0.177767 H 1.7081645 Z m 0,0.2563151 h 1.5745807 v 0.177767 H 1.7081645 Z m 0,0.2563151 H 3.2827452 V 2.0001363 H 1.7081645 Z m 0,0.2563151 H 3.2827452 V 2.2564514 H 1.7081645 Z m 4.3527057,0.629419 h 1.1694377 c 0.1130279,0 0.2036053,0.091095 0.2036053,0.2041218 v 0.6614583 c 0,0.1130277 -0.090578,0.2046391 -0.2036053,0.2046388 H 6.0608702 c -0.1130266,0 -0.2046385,-0.091612 -0.2046385,-0.2046388 V 2.9117085 c 0,-0.1130276 0.091613,-0.2041218 0.2046385,-0.2041218 z M 4.2335916,3.753001 A 1.5627811,1.5627811 0 0 1 5.7962869,5.316213 1.5627811,1.5627811 0 0 1 4.2335916,6.8789083 1.5627811,1.5627811 0 0 1 2.6703795,5.316213 1.5627811,1.5627811 0 0 1 4.2335916,3.753001 Z m -0.00258,0.4072101 A 1.1556701,1.1556701 0 0 0 3.07759,5.316213 1.1556701,1.1556701 0 0 0 4.2335916,6.4716979 1.1556701,1.1556701 0 0 0 5.3890767,5.316213 1.1556701,1.1556701 0 0 0 4.2335916,4.1602111 a 1.1556701,1.1556701 0 0 0 -0.00258,0 z m 0.2051555,0.3529502 a 0.65663071,0.65663071 0 0 1 0.00879,0 A 0.65663071,0.65663071 0 0 1 5.1012389,5.1699688 0.65663071,0.65663071 0 0 1 4.8671448,5.6722636 0.65663071,0.65663071 0 0 0 5.0226907,5.2485167 0.65663071,0.65663071 0 0 0 4.3658832,4.5917095 0.65663071,0.65663071 0 0 0 3.9431701,4.7467386 0.65663071,0.65663071 0 0 1 4.4361634,4.5131613 Z"
       style="fill:#000000;stroke:none;stroke-width:0.621189;stroke-linecap:round;stroke-linejoin:round;stroke-miterlimit:4;stroke-dasharray:none"
       id="rect1210" />
  </g>
</svg>
