<?xml version="1.0" encoding="UTF-8" standalone="no"?>
<svg
   xmlns:dc="http://purl.org/dc/elements/1.1/"
   xmlns:cc="http://creativecommons.org/ns#"
   xmlns:rdf="http://www.w3.org/1999/02/22-rdf-syntax-ns#"
   xmlns:svg="http://www.w3.org/2000/svg"
   xmlns="http://www.w3.org/2000/svg"
   width="32"
   height="32"
   viewBox="0 0 8.4666665 8.4666669"
   version="1.1"
   id="svg849">
  <defs
     id="defs843" />
  <metadata
     id="metadata846">
    <rdf:RDF>
      <cc:Work
         rdf:about="">
        <dc:format>image/svg+xml</dc:format>
        <dc:type
           rdf:resource="http://purl.org/dc/dcmitype/StillImage" />
        <dc:title></dc:title>
      </cc:Work>
    </rdf:RDF>
  </metadata>
  <g
     id="layer1">
    <path
       d="m 0.70124615,1.3126485 c -0.11391161,0 -0.20579698,0.091477 -0.20579698,0.2053886 V 1.8312243 C 0.74680032,1.9766387 0.94564562,2.1934209 1.006675,2.2530264 1.0841863,1.8836932 1.1908203,1.5726246 1.2990375,1.3126485 Z m 0.91832835,0 C 1.3713287,1.8551947 1.1981135,2.5906084 1.1553062,2.7809937 h 0.6030995 c 0.1139116,0 0.205797,-0.091477 0.205797,-0.2053887 V 1.5180371 c 0,-0.1139116 -0.091885,-0.2053886 -0.205797,-0.2053886 z M 0.49544917,2.2673179 V 2.575605 c 0,0.1139117 0.0918854,0.2053887 0.20579698,0.2053887 H 1.0650658 C 0.99988936,2.6790732 0.89718706,2.5250205 0.80577799,2.4498402 0.7218433,2.3808073 0.59297393,2.3146111 0.49544917,2.2673179 Z"
       style="fill:#000000;stroke-width:0.0836252;stroke-linecap:round;stroke-linejoin:round"
       id="rect119" />
    <path
       id="path121"
       d="m 0.33440661,1.6953443 -0.0138653,0.4898222 c 0,0 0.33299518,0.1485101 0.47781033,0.2676147 0.14481515,0.1191046 0.36693326,0.4882152 0.36693326,0.4882152 0,0 0.4202616,-1.96327426 0.9146646,-2.30755633 L 1.8703126,0.22464813 c 0,0 -0.5765543,0.72471977 -0.8455072,2.00625287 C 0.94698273,2.154894 0.67074141,1.8517268 0.33440661,1.6953443 Z"
       style="fill:none;stroke:#000000;stroke-width:0.149205px;stroke-linecap:butt;stroke-linejoin:miter;stroke-opacity:1" />
    <path
       id="path131"
       style="fill:#000000;stroke-width:0.0836252;stroke-linecap:round;stroke-linejoin:round"
       d="m 0.70124615,6.4971337 c -0.11391161,0 -0.20579698,0.091477 -0.20579698,0.2053886 V 7.0157095 C 0.74680032,7.1611239 0.94564562,7.3779061 1.006675,7.4375116 1.0841863,7.0681784 1.1908203,6.7571099 1.2990375,6.4971337 Z m 0.91832835,0 C 1.3713287,7.0396799 1.1981135,7.7750936 1.1553062,7.965479 h 0.6030995 c 0.1139116,0 0.205797,-0.091477 0.205797,-0.2053887 v -1.057568 c 0,-0.1139116 -0.091885,-0.2053886 -0.205797,-0.2053886 z M 0.49544917,7.4518031 v 0.3082872 c 0,0.1139117 0.0918854,0.2053887 0.20579698,0.2053887 H 1.0650658 C 0.99988936,7.8635584 0.89718706,7.7095057 0.80577799,7.6343254 0.7218433,7.5652925 0.59297393,7.4990964 0.49544917,7.4518031 Z" />
    <path
       style="fill:none;stroke:#000000;stroke-width:0.149205px;stroke-linecap:butt;stroke-linejoin:miter;stroke-opacity:1"
       d="m 0.33440661,6.8798296 -0.0138653,0.4898222 c 0,0 0.33299518,0.14851 0.47781033,0.2676146 0.14481515,0.1191046 0.36693326,0.4882152 0.36693326,0.4882152 0,0 0.4202616,-1.9632742 0.9146646,-2.3075563 L 1.8703126,5.4091334 c 0,0 -0.5765543,0.7247197 -0.8455072,2.0062528 C 0.94698273,7.3393792 0.67074141,7.036212 0.33440661,6.8798296 Z"
       id="path133" />
    <rect
       ry="0.33348447"
       rx="0.33348447"
       y="3.8688281"
       x="0.55206835"
       height="1.3815786"
       width="1.3815786"
       id="rect139"
       style="fill:#000000;stroke-width:0.0839365;stroke-linecap:round;stroke-linejoin:round" />
    <rect
       style="fill:#000000;stroke-width:0.172818;stroke-linecap:round;stroke-linejoin:round"
       id="rect141"
       width="5.8566918"
       height="1.3815786"
       x="2.3126421"
       y="3.8688281"
       rx="0.69078928"
       ry="0.69078928" />
    <rect
       ry="0.69078928"
       rx="0.69078928"
       y="1.2933855"
       x="2.3126421"
       height="1.3815786"
       width="5.8566918"
       id="rect143"
       style="fill:#000000;stroke-width:0.172818;stroke-linecap:round;stroke-linejoin:round" />
    <rect
       style="fill:#000000;stroke-width:0.172818;stroke-linecap:round;stroke-linejoin:round"
       id="rect145"
       width="5.8566918"
       height="1.3815786"
       x="2.3126421"
       y="6.4292536"
       rx="0.69078928"
       ry="0.69078928" />
  </g>
</svg>
