<?xml version="1.0" encoding="UTF-8" standalone="no"?>
<svg
   xmlns:dc="http://purl.org/dc/elements/1.1/"
   xmlns:cc="http://creativecommons.org/ns#"
   xmlns:rdf="http://www.w3.org/1999/02/22-rdf-syntax-ns#"
   xmlns:svg="http://www.w3.org/2000/svg"
   xmlns="http://www.w3.org/2000/svg"
   id="svg849"
   version="1.1"
   viewBox="0 0 8.4666665 8.4666669"
   height="32"
   width="32">
  <defs
     id="defs843" />
  <metadata
     id="metadata846">
    <rdf:RDF>
      <cc:Work
         rdf:about="">
        <dc:format>image/svg+xml</dc:format>
        <dc:type
           rdf:resource="http://purl.org/dc/dcmitype/StillImage" />
        <dc:title></dc:title>
      </cc:Work>
    </rdf:RDF>
  </metadata>
  <g
     id="layer1">
    <g
       transform="translate(0.17902773,0.05352348)"
       id="g30">
      <rect
         style="fill:currentColor;stroke-width:0.172818;stroke-linecap:round;stroke-linejoin:round"
         id="rect141"
         width="5.8566918"
         height="1.3815786"
         x="2.3126421"
         y="3.4890206"
         rx="0.69078928"
         ry="0.69078928" />
      <rect
         ry="0.69078928"
         rx="0.69078928"
         y="0.54878664"
         x="2.3126421"
         height="1.3815786"
         width="5.8566918"
         id="rect143"
         style="fill:currentColor;stroke-width:0.172818;stroke-linecap:round;stroke-linejoin:round" />
      <rect
         style="fill:currentColor;stroke-width:0.172818;stroke-linecap:round;stroke-linejoin:round"
         id="rect145"
         width="5.8566918"
         height="1.3815786"
         x="2.3126421"
         y="6.4292545"
         rx="0.69078928"
         ry="0.69078928" />
    </g>
    <g
       transform="translate(0,-0.01978883)"
       id="g48">
      <path
         id="rect139"
         style="fill:currentColor;stroke-width:0.111793;stroke-linecap:round;stroke-linejoin:round"
         d="m 1.2428182,3.1355127 c -0.1135361,0 -0.226853,0.043773 -0.3138502,0.1307709 L 0.862206,3.3330456 H 0.767225 c -0.24606523,0 -0.44462106,0.1985556 -0.44462106,0.4446212 v 0.094981 l -0.066762,0.066762 c -0.17399445,0.1739945 -0.17399445,0.4537058 0,0.6277003 l 0.066762,0.066762 v 0.094981 c 0,0.2460655 0.19855583,0.4446211 0.44462106,0.4446211 h 0.094981 l 0.066762,0.066762 c 0.1739944,0.1739945 0.4537059,0.1739945 0.6277003,0 l 0.066762,-0.066762 h 0.095669 c 0.2460653,0 0.4439328,-0.1985556 0.4439328,-0.4446211 v -0.094981 l 0.066762,-0.066762 c 0.1739944,-0.1739945 0.1739944,-0.4537058 0,-0.6277003 l -0.066762,-0.066762 v -0.094981 c 0,-0.2460656 -0.1978675,-0.4446212 -0.4439328,-0.4446212 H 1.6234304 L 1.5566683,3.2662836 C 1.4696711,3.1792862 1.3563543,3.1355127 1.2428182,3.1355127 Z m 0,0.4762815 c 0.065123,0 0.1304253,0.02512 0.1803262,0.075021 l 0.037855,0.038543 h 0.055061 c 0.1411409,0 0.254659,0.1142064 0.2546592,0.2553473 v 0.054373 l 0.038543,0.037855 c 0.099802,0.099802 0.099802,0.2601623 0,0.3599643 l -0.038543,0.038543 v 0.054373 c 0,0.1411402 -0.1135181,0.2553473 -0.2546592,0.2553473 h -0.055061 l -0.037855,0.037855 c -0.099802,0.099802 -0.2608507,0.099802 -0.3606524,0 L 1.024637,4.7811611 H 0.9702639 c -0.14114101,0 -0.25534737,-0.1142064 -0.25534737,-0.2553473 v -0.054373 l -0.038543,-0.038543 c -0.0998016,-0.099802 -0.0998016,-0.2601623 0,-0.3599643 l 0.038543,-0.037855 v -0.054373 c 1.3e-7,-0.1411405 0.1142066,-0.2553473 0.25534754,-0.2553473 h 0.0543731 l 0.037855,-0.038543 c 0.049901,-0.0499 0.1152026,-0.075021 0.180326,-0.075021 z" />
      <path
         d="m 1.2428182,0.15171699 c -0.1135361,0 -0.226853,0.043773 -0.3138502,0.1307709 l -0.066762,0.066762 H 0.767225 c -0.24606523,0 -0.44462106,0.1985556 -0.44462106,0.4446212 v 0.094981 l -0.066762,0.066762 c -0.17399445,0.17399451 -0.17399445,0.45370581 0,0.62770031 l 0.066762,0.066762 v 0.094981 c 0,0.2460655 0.19855583,0.4446211 0.44462106,0.4446211 h 0.094981 l 0.066762,0.066762 c 0.1739944,0.1739945 0.4537059,0.1739945 0.6277003,0 l 0.066762,-0.066762 h 0.095669 c 0.2460653,0 0.4439328,-0.1985556 0.4439328,-0.4446211 v -0.094981 l 0.066762,-0.066762 c 0.1739944,-0.1739945 0.1739944,-0.4537058 0,-0.62770031 l -0.066762,-0.066762 v -0.094981 c 0,-0.2460656 -0.1978675,-0.4446212 -0.4439328,-0.4446212 h -0.095669 l -0.066762,-0.066762 C 1.4696711,0.19549049 1.3563543,0.15171699 1.2428182,0.15171699 Z m 0,0.4762815 c 0.065123,0 0.1304253,0.02512 0.1803262,0.075021 l 0.037855,0.038543 h 0.055061 c 0.1411409,0 0.254659,0.1142064 0.2546592,0.2553473 v 0.054373 l 0.038543,0.037855 c 0.099802,0.099802 0.099802,0.2601623 0,0.3599643 l -0.038543,0.038543 v 0.054373 c 0,0.1411402 -0.1135181,0.2553473 -0.2546592,0.2553473 h -0.055061 l -0.037855,0.037855 c -0.099802,0.099802 -0.2608507,0.099802 -0.3606524,0 L 1.024637,1.7973654 H 0.9702639 c -0.14114101,0 -0.25534737,-0.1142064 -0.25534737,-0.2553473 v -0.054373 l -0.038543,-0.038543 c -0.0998016,-0.099802 -0.0998016,-0.2601623 0,-0.3599643 l 0.038543,-0.037855 v -0.054373 c 1.3e-7,-0.1411405 0.1142066,-0.2553473 0.25534754,-0.2553473 h 0.0543731 l 0.037855,-0.038543 c 0.049901,-0.0499 0.1152026,-0.075021 0.180326,-0.075021 z"
         style="fill:currentColor;stroke-width:0.111793;stroke-linecap:round;stroke-linejoin:round"
         id="path41" />
      <path
         id="path43"
         style="fill:currentColor;stroke-width:0.111793;stroke-linecap:round;stroke-linejoin:round"
         d="m 1.2428182,6.119308 c -0.1135361,0 -0.226853,0.043773 -0.3138502,0.1307709 L 0.862206,6.3168409 H 0.767225 c -0.24606523,0 -0.44462106,0.1985556 -0.44462106,0.4446212 v 0.094981 l -0.066762,0.066762 c -0.17399445,0.1739945 -0.17399445,0.4537058 0,0.6277003 l 0.066762,0.066762 v 0.094981 c 0,0.2460655 0.19855583,0.4446211 0.44462106,0.4446211 h 0.094981 l 0.066762,0.066762 c 0.1739944,0.1739945 0.4537059,0.1739945 0.6277003,0 l 0.066762,-0.066762 h 0.095669 c 0.2460653,0 0.4439328,-0.1985556 0.4439328,-0.4446211 v -0.094981 l 0.066762,-0.066762 c 0.1739944,-0.1739945 0.1739944,-0.4537058 0,-0.6277003 l -0.066762,-0.066762 v -0.094981 c 0,-0.2460656 -0.1978675,-0.4446212 -0.4439328,-0.4446212 H 1.6234303 L 1.5566683,6.2500789 C 1.4696711,6.1630815 1.3563543,6.119308 1.2428182,6.119308 Z m 0,0.4762815 c 0.065123,0 0.1304253,0.02512 0.1803262,0.075021 l 0.037855,0.038543 h 0.055061 c 0.1411409,0 0.254659,0.1142064 0.2546592,0.2553473 v 0.054373 l 0.038543,0.037855 c 0.099802,0.099802 0.099802,0.2601623 0,0.3599643 l -0.038543,0.038543 v 0.054373 c 0,0.1411402 -0.1135181,0.2553473 -0.2546592,0.2553473 h -0.055061 l -0.037855,0.037855 c -0.099802,0.099802 -0.2608507,0.099802 -0.3606524,0 L 1.024637,7.7649564 H 0.9702639 c -0.14114101,0 -0.25534737,-0.1142064 -0.25534737,-0.2553473 v -0.054373 l -0.038543,-0.038543 c -0.0998016,-0.099802 -0.0998016,-0.2601623 0,-0.3599643 l 0.038543,-0.037855 v -0.054373 c 1.3e-7,-0.1411405 0.1142066,-0.2553473 0.25534754,-0.2553473 h 0.0543731 l 0.037855,-0.038543 c 0.049901,-0.0499 0.1152026,-0.075021 0.180326,-0.075021 z" />
    </g>
  </g>
</svg>
