<?xml version="1.0" encoding="UTF-8" standalone="no"?>
<svg
   xmlns:dc="http://purl.org/dc/elements/1.1/"
   xmlns:cc="http://creativecommons.org/ns#"
   xmlns:rdf="http://www.w3.org/1999/02/22-rdf-syntax-ns#"
   xmlns:svg="http://www.w3.org/2000/svg"
   xmlns="http://www.w3.org/2000/svg"
   width="32"
   height="32"
   viewBox="0 0 8.4666665 8.4666669"
   version="1.1"
   id="svg849">
  <defs
     id="defs843" />
  <metadata
     id="metadata846">
    <rdf:RDF>
      <cc:Work
         rdf:about="">
        <dc:format>image/svg+xml</dc:format>
        <dc:type
           rdf:resource="http://purl.org/dc/dcmitype/StillImage" />
        <dc:title></dc:title>
      </cc:Work>
    </rdf:RDF>
  </metadata>
  <g
     id="layer1">
    <g
       transform="translate(-0.07385969,0.12946762)"
       id="g11676">
      <g
         id="g11647">
        <rect
           ry="0.69078928"
           rx="0.69078928"
           y="0.64539015"
           x="2.4916699"
           height="1.3815786"
           width="5.8566918"
           id="rect143"
           style="fill:currentColor;stroke-width:0.172818;stroke-linecap:round;stroke-linejoin:round" />
        <path
           d="M 1.1859741,0.27409896 0.26602434,0.80492254 V 1.8674364 L 1.1859741,2.3982599 2.1059239,1.8674364 V 0.80492254 Z m 0,0.5143572 0.4744913,0.27386164 V 1.6100411 L 1.1859741,1.8839027 0.71191614,1.6100411 V 1.0623178 Z"
           style="fill:currentColor;stroke-width:0.665588;stroke-linecap:round;stroke-linejoin:round"
           id="path11635" />
      </g>
      <g
         id="g11653"
         transform="translate(0,2.7676864)">
        <rect
           style="fill:currentColor;stroke-width:0.172818;stroke-linecap:round;stroke-linejoin:round"
           id="rect11649"
           width="5.8566918"
           height="1.3815786"
           x="2.4916699"
           y="0.64539015"
           rx="0.69078928"
           ry="0.69078928" />
        <path
           id="path11651"
           style="fill:currentColor;stroke-width:0.665588;stroke-linecap:round;stroke-linejoin:round"
           d="M 1.1859741,0.27409896 0.26602434,0.80492254 V 1.8674364 L 1.1859741,2.3982599 2.1059239,1.8674364 V 0.80492254 Z m 0,0.5143572 0.4744913,0.27386164 V 1.6100411 L 1.1859741,1.8839027 0.71191614,1.6100411 V 1.0623178 Z" />
      </g>
      <g
         transform="translate(0,5.5353726)"
         id="g11659">
        <rect
           ry="0.69078928"
           rx="0.69078928"
           y="0.64539015"
           x="2.4916699"
           height="1.3815786"
           width="5.8566918"
           id="rect11655"
           style="fill:currentColor;stroke-width:0.172818;stroke-linecap:round;stroke-linejoin:round" />
        <path
           d="M 1.1859741,0.27409896 0.26602434,0.80492254 V 1.8674364 L 1.1859741,2.3982599 2.1059239,1.8674364 V 0.80492254 Z m 0,0.5143572 0.4744913,0.27386164 V 1.6100411 L 1.1859741,1.8839027 0.71191614,1.6100411 V 1.0623178 Z"
           style="fill:currentColor;stroke-width:0.665588;stroke-linecap:round;stroke-linejoin:round"
           id="path11657" />
      </g>
    </g>
  </g>
</svg>
