<?xml version="1.0" encoding="UTF-8" standalone="no"?>
<svg
   xmlns:dc="http://purl.org/dc/elements/1.1/"
   xmlns:cc="http://creativecommons.org/ns#"
   xmlns:rdf="http://www.w3.org/1999/02/22-rdf-syntax-ns#"
   xmlns:svg="http://www.w3.org/2000/svg"
   xmlns="http://www.w3.org/2000/svg"
   width="32"
   height="32"
   viewBox="0 0 8.4666665 8.4666669"
   version="1.1"
   id="svg849">
  <defs
     id="defs843" />
  <metadata
     id="metadata846">
    <rdf:RDF>
      <cc:Work
         rdf:about="">
        <dc:format>image/svg+xml</dc:format>
        <dc:type
           rdf:resource="http://purl.org/dc/dcmitype/StillImage" />
        <dc:title></dc:title>
      </cc:Work>
    </rdf:RDF>
  </metadata>
  <g
     id="layer1">
    <path
       style="display:inline;opacity:1;fill:none;fill:currentColor;stroke-width:0.286286;stroke-linecap:round;stroke-linejoin:round;stroke-miterlimit:15.1181"
       id="path99"
       d="M 7.5474731,2.8018627 H 5.4518588 c -0.2233031,0 -0.4466061,0.4752349 -0.555395,0.6584581 V 3.3343549 H 3.5852736 V 3.5004008 C 3.4879363,3.2942748 3.2589075,2.7961371 3.0127013,2.7961371 H 0.91708735 c -0.34354343,0 -0.67563521,0.2805603 -0.61837801,0.6183779 l 0.269109,1.6089278 C 0.62507579,5.3612604 0.842653,5.6360951 1.1861963,5.6418207 l 1.6146534,0.028629 c 0.3435432,0.00573 0.572572,-0.2805608 0.6183779,-0.6183783 L 3.6081764,3.620641 3.8486567,3.4603208 4.1120401,3.3744349 h 0.2633831 l 0.2633832,0.085886 0.2347546,0.1603202 0.2347546,1.4028018 c 0.057257,0.3378176 0.2748346,0.6126523 0.6183779,0.6183779 l 1.6146537,0.028629 C 7.6848902,5.676176 7.9139191,5.3898889 7.9597251,5.0520714 L 8.1715768,3.414515 C 8.2059313,3.0766974 7.8852904,2.8018627 7.5474731,2.8018627 Z"
       class="st20" />
  </g>
</svg>
