<?xml version="1.0" encoding="UTF-8" standalone="no"?>
<svg
   xmlns:dc="http://purl.org/dc/elements/1.1/"
   xmlns:cc="http://creativecommons.org/ns#"
   xmlns:rdf="http://www.w3.org/1999/02/22-rdf-syntax-ns#"
   xmlns:svg="http://www.w3.org/2000/svg"
   xmlns="http://www.w3.org/2000/svg"
   id="svg849"
   version="1.1"
   viewBox="0 0 8.4666665 8.4666669"
   height="32"
   width="32">
  <defs
     id="defs843" />
  <metadata
     id="metadata846">
    <rdf:RDF>
      <cc:Work
         rdf:about="">
        <dc:format>image/svg+xml</dc:format>
        <dc:type
           rdf:resource="http://purl.org/dc/dcmitype/StillImage" />
        <dc:title></dc:title>
      </cc:Work>
    </rdf:RDF>
  </metadata>
  <g
     id="layer1">
    <path
       d="m 2.2227046,0.36004235 c -0.03967,-0.003809 -0.071781,0.00264 -0.09297,0.0223599 -0.1695184,0.15775931 0.068257,1.54695415 0.068257,1.54695415 l 0.054134,-0.057077 A 2.1912816,2.1912816 0 0 0 2.0420598,2.8072781 2.1912816,2.1912816 0 0 0 4.2333332,4.9985516 2.1912816,2.1912816 0 0 0 6.4246067,2.8072781 2.1912816,2.1912816 0 0 0 6.2145409,1.8716914 l 0.054723,0.057665 c 0,0 0.2377754,-1.38919493 0.068256,-1.54695423 C 6.1718124,0.22818874 5.360003,0.87706106 5.3230859,0.90668392 A 2.1912816,2.1912816 0 0 0 4.2333332,0.61600474 2.1912816,2.1912816 0 0 0 3.1435809,0.90609547 C 3.1097578,0.87896286 2.4928867,0.38598137 2.2227046,0.36004235 Z"
       style="fill:#000000;stroke:#000000;stroke-width:0.120508;stroke-linecap:round;stroke-linejoin:round"
       id="path1917" />
    <path
       d="M 3.3756583,5.1039155 C 3.0095919,5.4713808 2.3719756,4.8280927 2.1706391,4.1933801 1.9693027,3.5586674 1.1671136,3.7677881 1.4874217,3.8930603 1.8077298,4.0183325 2.1708803,4.8831262 2.2558958,5.1039155 2.3409111,5.3247049 2.5113213,5.7321881 2.9332771,5.7134619 3.0918521,5.7064243 3.2641739,5.6182385 3.4381634,5.5114102 3.3946061,5.6859121 3.330844,5.8471094 3.2283594,5.9770494 2.7994626,6.5208469 2.4227232,5.8762085 1.9414319,4.9614621 1.4601405,4.0467153 0.67478633,4.3468272 1.050071,4.5322125 1.4253556,4.717598 1.7555775,5.1720749 1.8551845,5.4988124 1.9547916,5.8255498 2.3385995,6.6617926 2.8329781,6.6340801 2.9903702,6.6252575 3.1465213,6.5529641 3.3015243,6.4620699 3.2517385,6.6174447 3.1821023,6.761229 3.0752459,6.8787707 2.5808846,7.422568 1.834908,6.4957585 1.5630094,5.5564722 1.2911106,4.6171858 0.0925672,4.9015713 0.52513336,5.0869569 0.95769951,5.2723424 1.4481988,6.5520333 1.5630094,6.8787707 1.67782,7.2055082 1.9079751,7.8086889 2.4778132,7.7809767 2.8647188,7.7621606 3.312113,7.3571293 3.722586,7.0963273 3.7002265,7.2149417 3.6727725,7.321085 3.6310088,7.3933479 3.4278018,7.7449524 2.8716455,8.1615993 3.318483,8.1681209 3.7653209,8.1746192 3.9841254,7.3943946 4.2555756,7.3933479 4.5270254,7.3922891 4.7241335,8.1679443 5.1931526,8.1468012 5.6621718,8.1256559 5.0414783,7.7326145 4.8806269,7.3933479 4.8462662,7.3208749 4.8202761,7.2121307 4.7977713,7.0895437 5.2111754,7.3543759 5.6640491,7.7735642 6.0619256,7.7562652 6.6396768,7.7311456 6.8032116,7.2248236 7.0009562,6.8787707 7.1987007,6.5327179 7.6119481,5.3534958 7.9651828,5.0869569 8.3184174,4.8204176 7.2234256,4.6171858 6.9762449,5.5564722 6.7290643,6.4957585 6.0188736,7.4100523 5.4644928,6.8787707 5.3024903,6.7235192 5.2094762,6.5324184 5.1495442,6.3302762 5.378301,6.4470837 5.608069,6.5463229 5.8196575,6.5357194 6.3209016,6.5105995 6.5856759,5.7482142 6.7572345,5.4021613 6.9287935,5.0561084 7.2497545,4.6393394 7.5562126,4.3728002 7.8626711,4.1062612 7.122127,4.1080051 6.6990902,4.8141632 6.2760535,5.5203211 5.782657,6.5083311 5.3016887,5.9770494 5.1758901,5.8380916 5.0960969,5.6709827 5.043431,5.4925132 5.2293943,5.6080534 5.4155973,5.7038108 5.5875648,5.6969876 6.0153801,5.6800132 6.1364473,5.3377573 6.2828739,5.1039155 6.4293004,4.870074 6.7350309,4.0731711 6.9965954,3.8930603 7.2581596,3.7129493 6.5668541,3.5075133 6.3838209,4.142226 6.2007879,4.7769386 5.5556933,5.4629235 5.1451835,5.1039155 5.0445826,5.0159386 4.980786,4.7737991 4.239881,4.786083 3.4989761,4.7983669 3.4510694,5.0282162 3.3756583,5.1039155 Z"
       style="fill:#000000;stroke:none;stroke-width:0.248082px;stroke-linecap:butt;stroke-linejoin:miter;stroke-opacity:1"
       id="path1929" />
  </g>
</svg>
