<?xml version="1.0" encoding="UTF-8" standalone="no"?>
<svg
   xmlns:dc="http://purl.org/dc/elements/1.1/"
   xmlns:cc="http://creativecommons.org/ns#"
   xmlns:rdf="http://www.w3.org/1999/02/22-rdf-syntax-ns#"
   xmlns:svg="http://www.w3.org/2000/svg"
   xmlns="http://www.w3.org/2000/svg"
   id="svg8"
   version="1.1"
   viewBox="0 0 169.33333 169.33334"
   height="32"
   width="32">
  <defs
     id="defs2" />
  <metadata
     id="metadata5">
    <rdf:RDF>
      <cc:Work
         rdf:about="">
        <dc:format>image/svg+xml</dc:format>
        <dc:type
           rdf:resource="http://purl.org/dc/dcmitype/StillImage" />
        <dc:title></dc:title>
      </cc:Work>
    </rdf:RDF>
  </metadata>
  <g
     id="layer1">
    <path
       transform="scale(0.26458334)"
       d="M 321.30469 34.810547 L 277.36914 120.92188 L 216.89453 225.66602 L 43.947266 279.89844 L 58.357422 320.54688 L 76.677734 314.80273 L 76.677734 468.5293 L 10.240234 583.60352 L 47.628906 605.18945 L 81.042969 547.31445 L 102.5 547.31445 L 102.5 591.75781 L 125.35547 591.75781 L 125.35547 547.31445 L 135.51367 547.31445 L 135.51367 573.98047 L 158.37109 573.98047 L 158.37109 547.31445 L 262.25977 547.31445 L 262.25977 559.64453 L 249.46289 559.64453 L 249.46289 579.96094 L 239.16602 579.96094 L 239.16602 602.81836 L 403.44336 602.81836 L 403.44336 579.96094 L 393.14648 579.96094 L 393.14648 559.64453 L 380.34961 559.64453 L 380.34961 547.31445 L 475.82031 547.31445 L 475.82031 573.98047 L 498.67578 573.98047 L 498.67578 547.31445 L 511.37305 547.31445 L 511.37305 591.75781 L 534.23047 591.75781 L 534.23047 547.31445 L 558.95703 547.31445 L 592.37109 605.18945 L 629.75977 583.60352 L 393.02344 173.5625 L 393.02344 125.85938 L 392.58398 125.85938 C 395.02155 125.85938 396.98438 123.89654 396.98438 121.45898 L 396.98438 118.82031 C 396.98438 116.38276 395.02155 114.41992 392.58398 114.41992 L 378.50391 114.41992 C 376.06636 114.41992 374.10352 116.38276 374.10352 118.82031 L 374.10352 121.45898 C 374.10352 123.89654 376.06636 125.85936 378.50391 125.85938 L 378.06445 125.85938 L 378.06445 146.05664 L 321.30469 34.810547 z M 302.4082 163.90039 L 318.81445 163.90039 L 318.81445 180.78516 L 292.66016 180.78516 L 302.4082 163.90039 z M 323.79492 163.90039 L 337.5918 163.90039 L 347.33984 180.78516 L 323.79492 180.78516 L 323.79492 163.90039 z M 289.79297 185.95703 L 318.81445 185.95703 L 318.81445 202.8418 L 289.79297 202.8418 L 289.79297 185.95703 z M 323.79492 185.95703 L 350.32617 185.95703 L 352.81641 190.26953 L 352.81641 202.8418 L 323.79492 202.8418 L 323.79492 185.95703 z M 90.021484 323.24805 L 108.49023 323.24805 L 108.49023 354.99414 L 90.021484 354.99414 L 90.021484 323.24805 z M 114.14648 323.24805 L 132.61719 323.24805 L 132.61719 354.99414 L 114.14648 354.99414 L 114.14648 323.24805 z M 90.021484 360.44336 L 108.49023 360.44336 L 108.49023 392.1875 L 90.021484 392.1875 L 90.021484 360.44336 z M 114.14648 360.44336 L 132.61719 360.44336 L 132.61719 371.64062 L 120.75391 392.1875 L 114.14648 392.1875 L 114.14648 360.44336 z M 289.53711 396.20898 L 353.07227 396.20898 L 353.07227 505.41211 L 289.53711 505.41211 L 289.53711 396.20898 z M 169.52734 403.47266 L 262.94336 403.47266 L 262.94336 498.15039 L 149.29297 498.15039 L 149.29297 438.52148 L 169.52734 403.47266 z M 386.85547 404.38086 L 476.43359 404.38086 L 498.32617 442.29883 L 498.32617 497.24219 L 386.85547 497.24219 L 386.85547 404.38086 z "
       style="fill:currentColor;stroke:none;stroke-width:4.33818;stroke-linecap:round;stroke-linejoin:round;stroke-miterlimit:4;stroke-dasharray:none;stroke-dashoffset:0"
       id="rect1689" />
    <circle
       r="1.0455936"
       cy="119.06454"
       cx="91.858269"
       id="path1833"
       style="fill:currentColor;stroke:none;stroke-width:0.462495;stroke-linecap:round;stroke-linejoin:round;stroke-miterlimit:4;stroke-dasharray:none;stroke-dashoffset:0" />
  </g>
</svg>
