<?xml version="1.0" encoding="UTF-8" standalone="no"?>
<svg
   xmlns:dc="http://purl.org/dc/elements/1.1/"
   xmlns:cc="http://creativecommons.org/ns#"
   xmlns:rdf="http://www.w3.org/1999/02/22-rdf-syntax-ns#"
   xmlns:svg="http://www.w3.org/2000/svg"
   xmlns="http://www.w3.org/2000/svg"
   width="32"
   height="32"
   viewBox="0 0 8.4666665 8.466667"
   version="1.1"
   id="svg8">
  <defs
     id="defs2" />
  <metadata
     id="metadata5">
    <rdf:RDF>
      <cc:Work
         rdf:about="">
        <dc:format>image/svg+xml</dc:format>
        <dc:type
           rdf:resource="http://purl.org/dc/dcmitype/StillImage" />
        <dc:title></dc:title>
      </cc:Work>
    </rdf:RDF>
  </metadata>
  <g
     id="layer1">
    <g
       transform="matrix(0.05003574,0,0,0.05003574,-0.00302608,-0.00302603)"
       id="g6505">
      <path
         d="m 321.30469,34.810547 -43.93555,86.111333 -60.47461,104.74414 -172.947264,54.23242 14.410156,40.64844 18.320312,-5.74415 V 468.5293 l -66.4375,115.07422 37.388672,21.58593 33.414063,-57.875 H 102.5 v 44.44336 h 22.85547 v -44.44336 h 10.1582 v 26.66602 h 22.85742 v -26.66602 h 103.88868 v 12.33008 h -12.79688 v 20.31641 h -10.29687 v 22.85742 h 164.27734 v -22.85742 h -10.29688 v -20.31641 h -12.79687 v -12.33008 h 95.4707 v 26.66602 h 22.85547 v -26.66602 h 12.69727 v 44.44336 h 22.85742 v -44.44336 h 24.72656 l 33.41406,57.875 37.38868,-21.58593 L 393.02344,173.5625 v -47.70312 h -0.43946 c 2.43757,0 4.4004,-1.96284 4.4004,-4.4004 v -2.63867 c 0,-2.43755 -1.96283,-4.40039 -4.4004,-4.40039 h -14.08007 c -2.43755,0 -4.40039,1.96284 -4.40039,4.40039 v 2.63867 c 0,2.43756 1.96284,4.40038 4.40039,4.4004 h -0.43946 v 20.19726 z M 302.4082,163.90039 h 16.40625 v 16.88477 h -26.15429 z m 21.38672,0 h 13.79688 l 9.74804,16.88477 h -23.54492 z m -34.00195,22.05664 h 29.02148 v 16.88477 h -29.02148 z m 34.00195,0 h 26.53125 l 2.49024,4.3125 V 202.8418 H 323.79492 Z M 90.021484,323.24805 h 18.468746 v 31.74609 H 90.021484 Z m 24.124996,0 h 18.47071 v 31.74609 H 114.14648 Z M 90.021484,360.44336 H 108.49023 V 392.1875 H 90.021484 Z m 24.124996,0 h 18.47071 v 11.19726 l -11.86328,20.54688 h -6.60743 z m 175.39063,35.76562 h 63.53516 v 109.20313 h -63.53516 z m -120.00977,7.26368 h 93.41602 v 94.67773 H 149.29297 v -59.62891 z m 217.32813,0.9082 h 89.57812 l 21.89258,37.91797 v 54.94336 h -111.4707 z"
         style="fill:currentColor;stroke:none;stroke-width:4.33818;stroke-linecap:round;stroke-linejoin:round;stroke-miterlimit:4;stroke-dasharray:none;stroke-dashoffset:0"
         id="rect1689"
         transform="scale(0.26458334)" />
      <circle
         r="1.0455936"
         cy="119.06454"
         cx="91.858269"
         id="path1833"
         style="fill:currentColor;stroke:none;stroke-width:0.462495;stroke-linecap:round;stroke-linejoin:round;stroke-miterlimit:4;stroke-dasharray:none;stroke-dashoffset:0" />
    </g>
  </g>
</svg>
