<?xml version="1.0" encoding="UTF-8" standalone="no"?>
<svg
   xmlns:dc="http://purl.org/dc/elements/1.1/"
   xmlns:cc="http://creativecommons.org/ns#"
   xmlns:rdf="http://www.w3.org/1999/02/22-rdf-syntax-ns#"
   xmlns:svg="http://www.w3.org/2000/svg"
   xmlns="http://www.w3.org/2000/svg"
   id="svg8"
   version="1.1"
   viewBox="0 0 79.374998 79.375002"
   height="300"
   width="300">
  <g id="layer1">
    <circle
       transform="rotate(30)"
       r="36.43644"
       cy="14.526633"
       cx="54.214134"
       id="path903"
       style="fill:#1a1a1a;stroke:none;stroke-width:2.39577;stroke-linecap:round" />
    <path
       d="M 61.171145,16.252336 C 55.037092,18.188564 47.511786,14.436355 46.083122,8.5189721 42.341526,7.7452276 37.432807,7.6518754 33.65811,8.2433882 31.4684,14.728385 25.242878,17.420973 18.220722,16.274075 c -2.835823,2.382464 -3.845629,4.912047 -5.697666,8.119536 2.265169,6.096681 0.738214,13.612449 -4.2814164,17.191132 0.2853323,3.779872 0.9244029,7.957651 2.5111014,11.400213 7.102902,1.349171 10.656467,6.952477 10.728991,12.80199 0.731381,0.508633 1.483806,0.986317 2.255284,1.43179 3.01927,1.742968 6.304523,2.977761 9.72436,3.654992 3.843067,-4.234683 12.123493,-3.921138 15.669152,-0.841779 4.13352,-1.291633 7.959777,-3.413673 11.244324,-6.236093 -0.174103,-5.780502 4.372477,-12.761723 9.337699,-13.748953 1.259929,-3.650759 1.844521,-7.500438 1.72517,-11.360647 -4.594459,-4.373693 -5.969326,-10.009352 -4.127804,-14.71353 -1.632404,-2.876984 -3.703553,-5.481754 -6.13877,-7.720392 z"
       style="fill:#000000;stroke:none;stroke-width:2.09159;stroke-linecap:round"
       id="circle905" />
    <rect
       y="3.0810845"
       x="39.034615"
       height="5.0816154"
       width="1.3057733"
       id="rect931"
       style="fill:#ffffff;stroke:none;stroke-width:1.32292;stroke-linecap:round" />
    <rect
       style="fill:#ffffff;stroke:none;stroke-width:1.32292;stroke-linecap:round"
       id="rect933"
       width="1.898926"
       height="10.251932"
       x="38.738037"
       y="8.071393" />
    <circle
       transform="rotate(30)"
       style="fill:#550000;stroke:#2b0000;stroke-width:1.30678;stroke-linecap:round"
       id="circle935"
       cx="54.214134"
       cy="14.526633"
       r="19.874422" />
  </g>
</svg>
