<?xml version="1.0" encoding="UTF-8" standalone="no"?>
<svg
   xmlns:dc="http://purl.org/dc/elements/1.1/"
   xmlns:cc="http://creativecommons.org/ns#"
   xmlns:rdf="http://www.w3.org/1999/02/22-rdf-syntax-ns#"
   xmlns:svg="http://www.w3.org/2000/svg"
   xmlns="http://www.w3.org/2000/svg"
   width="32"
   height="32"
   viewBox="0 0 8.4666665 8.4666669"
   version="1.1"
   id="svg849">
  <defs
     id="defs843" />
  <metadata
     id="metadata846">
    <rdf:RDF>
      <cc:Work
         rdf:about="">
        <dc:format>image/svg+xml</dc:format>
        <dc:type
           rdf:resource="http://purl.org/dc/dcmitype/StillImage" />
        <dc:title></dc:title>
      </cc:Work>
    </rdf:RDF>
  </metadata>
  <g
     id="layer1">
    <rect
       ry="0.18434247"
       rx="0.18434247"
       y="0.41875321"
       x="0.41221023"
       height="0.9683668"
       width="7.6422462"
       id="rect32"
       style="fill:#000000;stroke-width:0.0949168;stroke-linecap:round;stroke-linejoin:round" />
    <path
       transform="scale(0.26458333)"
       d="M 3.0175781 4.7207031 L 3.0175781 8.1933594 L 3.0175781 19.833984 L 3.0175781 29.445312 C 3.0175781 30.25811 3.6696247 30.912109 4.4824219 30.912109 L 27.537109 30.912109 C 28.349907 30.912109 29.005859 30.25811 29.005859 29.445312 L 29.005859 8.1933594 C 29.005859 7.3805621 28.349907 6.7265625 27.537109 6.7265625 L 5.9277344 6.7265625 L 5.9277344 4.7207031 L 3.0175781 4.7207031 z M 7.1835938 10.287109 L 19.871094 10.287109 C 20.176264 10.287109 20.421875 10.532721 20.421875 10.837891 L 20.421875 12.111328 C 20.421875 12.416499 20.176263 12.662109 19.871094 12.662109 L 7.1835938 12.662109 C 6.8784234 12.662109 6.6328125 12.416497 6.6328125 12.111328 L 6.6328125 10.837891 C 6.6328125 10.53272 6.8784249 10.287109 7.1835938 10.287109 z M 24.591797 10.287109 L 26.943359 10.287109 C 27.19373 10.287109 27.396484 10.489865 27.396484 10.740234 L 27.396484 12.208984 C 27.396484 12.459355 27.193729 12.662109 26.943359 12.662109 L 24.591797 12.662109 C 24.341426 12.662109 24.140625 12.459354 24.140625 12.208984 L 24.140625 10.740234 C 24.140625 10.489863 24.341427 10.287109 24.591797 10.287109 z M 7.1835938 14.306641 L 19.871094 14.306641 C 20.176264 14.306641 20.421875 14.552249 20.421875 14.857422 L 20.421875 16.128906 C 20.421875 16.434077 20.176263 16.679688 19.871094 16.679688 L 7.1835938 16.679688 C 6.8784234 16.679688 6.6328125 16.434079 6.6328125 16.128906 L 6.6328125 14.857422 C 6.6328125 14.552251 6.8784249 14.306641 7.1835938 14.306641 z M 24.591797 14.306641 L 26.943359 14.306641 C 27.19373 14.306641 27.396484 14.507449 27.396484 14.757812 L 27.396484 16.228516 C 27.396484 16.478887 27.193729 16.679687 26.943359 16.679688 L 24.591797 16.679688 C 24.341426 16.679688 24.140625 16.478885 24.140625 16.228516 L 24.140625 14.757812 C 24.140625 14.507447 24.341427 14.306641 24.591797 14.306641 z M 7.1835938 18.324219 L 19.871094 18.324219 C 20.176264 18.324219 20.421875 18.569831 20.421875 18.875 L 20.421875 20.148438 C 20.421875 20.453603 20.176263 20.699219 19.871094 20.699219 L 7.1835938 20.699219 C 6.8784234 20.699219 6.6328125 20.453601 6.6328125 20.148438 L 6.6328125 18.875 C 6.6328125 18.56983 6.8784249 18.324219 7.1835938 18.324219 z M 24.591797 18.324219 L 26.943359 18.324219 C 27.19373 18.324219 27.396484 18.526975 27.396484 18.777344 L 27.396484 20.246094 C 27.396484 20.496465 27.193729 20.699219 26.943359 20.699219 L 24.591797 20.699219 C 24.341426 20.699219 24.140625 20.496463 24.140625 20.246094 L 24.140625 18.777344 C 24.140625 18.526973 24.341427 18.324219 24.591797 18.324219 z M 7.1835938 22.34375 L 19.871094 22.34375 C 20.176264 22.34375 20.421875 22.589362 20.421875 22.894531 L 20.421875 24.166016 C 20.421875 24.471186 20.176263 24.716797 19.871094 24.716797 L 7.1835938 24.716797 C 6.8784234 24.716797 6.6328125 24.471185 6.6328125 24.166016 L 6.6328125 22.894531 C 6.6328125 22.589361 6.8784249 22.34375 7.1835938 22.34375 z M 24.591797 22.34375 L 26.943359 22.34375 C 27.19373 22.34375 27.396484 22.544552 27.396484 22.794922 L 27.396484 24.265625 C 27.396484 24.515996 27.193729 24.716797 26.943359 24.716797 L 24.591797 24.716797 C 24.341426 24.716797 24.140625 24.515995 24.140625 24.265625 L 24.140625 22.794922 C 24.140625 22.544551 24.341427 22.34375 24.591797 22.34375 z M 7.1835938 26.361328 L 19.871094 26.361328 C 20.176264 26.361328 20.421875 26.60694 20.421875 26.912109 L 20.421875 28.185547 C 20.421875 28.490717 20.176263 28.736328 19.871094 28.736328 L 7.1835938 28.736328 C 6.8784234 28.736328 6.6328125 28.490716 6.6328125 28.185547 L 6.6328125 26.912109 C 6.6328125 26.606939 6.8784249 26.361328 7.1835938 26.361328 z M 24.591797 26.361328 L 26.943359 26.361328 C 27.19373 26.361328 27.396484 26.564084 27.396484 26.814453 L 27.396484 28.283203 C 27.396484 28.533574 27.193729 28.736328 26.943359 28.736328 L 24.591797 28.736328 C 24.341426 28.736328 24.140625 28.533573 24.140625 28.283203 L 24.140625 26.814453 C 24.140625 26.564082 24.341427 26.361328 24.591797 26.361328 z "
       style="fill:#000000;stroke-width:0.874363;stroke-linecap:round;stroke-linejoin:round"
       id="rect34" />
  </g>
</svg>
