<?xml version="1.0" encoding="UTF-8" standalone="no"?>
<svg
   xmlns:dc="http://purl.org/dc/elements/1.1/"
   xmlns:cc="http://creativecommons.org/ns#"
   xmlns:rdf="http://www.w3.org/1999/02/22-rdf-syntax-ns#"
   xmlns:svg="http://www.w3.org/2000/svg"
   xmlns="http://www.w3.org/2000/svg"
   width="32"
   height="32"
   viewBox="0 0 8.4666665 8.4666669"
   version="1.1"
   id="svg849">
  <defs
     id="defs843" />
  <metadata
     id="metadata846">
    <rdf:RDF>
      <cc:Work
         rdf:about="">
        <dc:format>image/svg+xml</dc:format>
        <dc:type
           rdf:resource="http://purl.org/dc/dcmitype/StillImage" />
        <dc:title></dc:title>
      </cc:Work>
    </rdf:RDF>
  </metadata>
  <g
     id="layer1">
    <g
       transform="matrix(1.6689814,0,0,1.6689814,-5.7338634,0.16398019)"
       id="g16560">
      <path
         id="rect844"
         style="fill:currentColor;stroke:none;stroke-width:0.747016;stroke-linecap:round;stroke-linejoin:round"
         d="m 20.472656,3.5371094 c -0.466228,0 -0.841797,0.3755696 -0.841797,0.8417968 V 17.212891 c 0,0.466228 0.37557,0.841796 0.841797,0.841797 h 5.119141 c 0.466228,0 0.841797,-0.37557 0.841797,-0.841797 V 4.3789062 c 0,-0.4662273 -0.37557,-0.8417968 -0.841797,-0.8417968 z m 0.986328,4.0117187 h 0.5625 c 0.08916,0 0.16211,0.072947 0.16211,0.1621094 V 8.21875 c 0,0.089163 -0.07295,0.1621094 -0.16211,0.1621094 h -0.5625 c -0.08916,0 -0.160156,-0.072947 -0.160156,-0.1621094 V 7.7109375 c 0,-0.089163 0.07099,-0.1621101 0.160156,-0.1621094 z m 1.291016,0 h 0.5625 c 0.08916,0 0.162109,0.072947 0.162109,0.1621094 V 8.21875 c 0,0.089163 -0.07295,0.1621094 -0.162109,0.1621094 H 22.75 c -0.08916,0 -0.160156,-0.072947 -0.160156,-0.1621094 V 7.7109375 c 0,-0.089163 0.071,-0.1621101 0.160156,-0.1621094 z m 1.291016,0 h 0.5625 c 0.08916,0 0.162109,0.072947 0.162109,0.1621094 V 8.21875 c 0,0.089163 -0.07295,0.1621094 -0.162109,0.1621094 h -0.5625 c -0.08916,0 -0.160157,-0.072947 -0.160157,-0.1621094 V 7.7109375 c 0,-0.089163 0.071,-0.1621101 0.160157,-0.1621094 z m -2.582032,1.203125 h 0.5625 c 0.08916,0 0.16211,0.070993 0.16211,0.1601563 V 9.421875 c 0,0.089163 -0.07295,0.1601562 -0.16211,0.1601562 h -0.5625 c -0.08916,0 -0.160156,-0.070993 -0.160156,-0.1601562 V 8.9121094 c 0,-0.089163 0.07099,-0.160157 0.160156,-0.1601563 z m 1.291016,0 h 0.5625 c 0.08916,0 0.162109,0.070993 0.162109,0.1601563 V 9.421875 c 0,0.089163 -0.07295,0.1601562 -0.162109,0.1601562 H 22.75 c -0.08916,0 -0.160156,-0.070993 -0.160156,-0.1601562 V 8.9121094 c 0,-0.089163 0.071,-0.160157 0.160156,-0.1601563 z m 1.291016,0 h 0.5625 c 0.08916,0 0.162109,0.070993 0.162109,0.1601563 V 9.421875 c 0,0.089163 -0.07295,0.1601562 -0.162109,0.1601562 h -0.5625 c -0.08916,0 -0.160157,-0.070993 -0.160157,-0.1601562 V 8.9121094 c 0,-0.089163 0.071,-0.160157 0.160157,-0.1601563 z M 21.458984,9.953125 h 0.5625 c 0.08916,0 0.16211,0.072947 0.16211,0.162109 V 10.625 c 0,0.08916 -0.07295,0.160156 -0.16211,0.160156 h -0.5625 c -0.08916,0 -0.160156,-0.07099 -0.160156,-0.160156 v -0.509766 c 0,-0.08916 0.07099,-0.1621098 0.160156,-0.162109 z m 1.291016,0 h 0.5625 c 0.08916,0 0.162109,0.072947 0.162109,0.162109 V 10.625 c 0,0.08916 -0.07295,0.160156 -0.162109,0.160156 H 22.75 c -0.08916,0 -0.160156,-0.07099 -0.160156,-0.160156 v -0.509766 c 0,-0.08916 0.071,-0.1621098 0.160156,-0.162109 z m 1.291016,0 h 0.5625 c 0.08916,0 0.162109,0.072947 0.162109,0.162109 V 10.625 c 0,0.08916 -0.07295,0.160156 -0.162109,0.160156 h -0.5625 c -0.08916,0 -0.160157,-0.07099 -0.160157,-0.160156 v -0.509766 c 0,-0.08916 0.071,-0.1621098 0.160157,-0.162109 z M 22.75,11.15625 h 0.5625 c 0.08916,0 0.162109,0.07099 0.162109,0.160156 v 0.509766 c 0,0.08916 -0.07295,0.162109 -0.162109,0.162109 H 22.75 c -0.08916,0 -0.160156,-0.07295 -0.160156,-0.162109 v -0.509766 c 0,-0.08916 0.07099,-0.160157 0.160156,-0.160156 z m -1.617188,2.742188 h 3.796876 c 0.345463,0 0.623046,0.277583 0.623046,0.623046 v 1.972657 c 0,0.345464 -0.277583,0.625 -0.623046,0.625 h -3.796876 c -0.345463,0 -0.623046,-0.279533 -0.623046,-0.625 v -1.972657 c 0,-0.345464 0.277583,-0.623047 0.623046,-0.623046 z"
         transform="scale(0.26458333)" />
      <g
         id="g857"
         transform="matrix(0.2215923,0,0,0.2215923,3.6073162,0.43742378)" />
      <g
         transform="matrix(0.2215923,0,0,0.2215923,3.6073162,0.75554346)"
         id="g865" />
      <g
         id="g873"
         transform="matrix(0.2215923,0,0,0.2215923,3.6073162,1.0736633)" />
      <path
         style="fill:none;stroke:currentColor;stroke-width:0.0586296px;stroke-linecap:butt;stroke-linejoin:miter;stroke-opacity:1"
         d="m 5.213914,4.3918799 c 0,0 -0.2149142,0.00895 -0.2149142,-0.2149143 0,-0.2542383 -0.029951,-2.949972 -0.07496,-3.18289702 C 4.8227972,0.4701264 5.1079914,0.64372132 5.1620412,0.52337131"
         id="path896" />
      <path
         id="rect898"
         style="fill:currentColor;stroke:none;stroke-width:0.252274;stroke-linecap:round;stroke-linejoin:round"
         d="m 5.0957127,0.57496005 c 0.00976,-0.1132241 0.092827,-0.2065453 0.2041545,-0.2293761 0.015766,-0.00319 0.031791,-0.00489 0.047873,-0.00509 0,0 0.2377242,-0.1789271 0.443533,-0.2205878 0.2058086,-0.041661 0.5841516,-0.016488 0.7630669,0.047423 0.178915,0.063914 0.3046212,0.2193667 0.3046212,0.2193667 0.013883,0.00288 0.027502,0.00694 0.040717,0.01207 0.1322134,0.051306 0.1977629,0.2001106 0.1463761,0.3322908 l -0.02859,0.073426 c 0.00606,0.018459 0.008,0.038413 0.00131,0.058334 -0.016456,0.04902 -0.069166,0.075263 -0.1181865,0.058807 l -0.3655882,-0.12277 c -0.049021,-0.016456 -0.075263,-0.069166 -0.058807,-0.1181868 0.00994,-0.029633 0.033573,-0.049327 0.061195,-0.057906 l 0.028421,-0.073272 c 0,0 -0.039701,-0.024768 -0.1509568,-0.062196 -0.1112541,-0.037428 -0.3897778,-0.041795 -0.5420536,-0.01099 -0.1522759,0.030809 -0.2577613,0.1281328 -0.2577613,0.1281328 l 0.012242,0.059837 c 0.021199,0.013064 0.037461,0.033977 0.042815,0.06042 0.010261,0.050681 -0.022306,0.099736 -0.072989,0.1099959 l -0.3779742,0.076561 c -0.05068,0.010261 -0.099736,-0.022308 -0.1099959,-0.072989 -0.00528,-0.026086 9.522e-4,-0.051646 0.014997,-0.071802 l -0.024108,-0.1178403 c -0.00498,-0.024218 -0.00643,-0.049027 -0.00431,-0.07366 z" />
    </g>
  </g>
</svg>
