<?xml version="1.0" encoding="UTF-8" standalone="no"?>
<svg
   xmlns:dc="http://purl.org/dc/elements/1.1/"
   xmlns:cc="http://creativecommons.org/ns#"
   xmlns:rdf="http://www.w3.org/1999/02/22-rdf-syntax-ns#"
   xmlns:svg="http://www.w3.org/2000/svg"
   xmlns="http://www.w3.org/2000/svg"
   id="svg8"
   version="1.1"
   viewBox="0 0 169.33333 169.33334"
   height="32"
   width="32">
  <defs
     id="defs2" />
  <metadata
     id="metadata5">
    <rdf:RDF>
      <cc:Work
         rdf:about="">
        <dc:format>image/svg+xml</dc:format>
        <dc:type
           rdf:resource="http://purl.org/dc/dcmitype/StillImage" />
        <dc:title></dc:title>
      </cc:Work>
    </rdf:RDF>
  </metadata>
  <g
     id="layer1">
    <g
       style="display:inline;stroke:none;"
       transform="matrix(5.5104591,3.1814651,-3.1814651,5.5104591,178.36804,-317.10633)"
       id="g1226">
      <path
         d="M 12.724468,51.554705 A 11.061365,11.061365 0 0 0 8.7032909,66.649226 11.061365,11.061365 0 0 0 18.30117,72.179641 l 9.550463,-5.513962 a 11.061365,11.061365 0 0 0 0.01023,-11.07766 11.061365,11.061365 0 0 0 -15.110495,-4.048845 11.061365,11.061365 0 0 0 -0.02692,0.01554 z m 1.379839,10.799792 a 3.6716042,3.6716042 45 0 1 0.0092,-0.0053 3.6716042,3.6716042 45 0 1 5.015415,1.343876 3.6716042,3.6716042 45 0 1 -1.343877,5.015414 3.6716042,3.6716042 45 0 1 -5.015414,-1.343876 3.6716042,3.6716042 45 0 1 1.334652,-5.010088 z m 7.319256,-4.225775 a 3.6716042,3.6716042 0 0 1 0.0092,-0.0053 3.6716042,3.6716042 0 0 1 5.015414,1.343876 3.6716042,3.6716042 0 0 1 -1.343876,5.015414 3.6716042,3.6716042 0 0 1 -5.015415,-1.343876 3.6716042,3.6716042 0 0 1 1.334653,-5.010089 z m -0.12738,8.277955 a 0.99232558,0.99232558 0 0 1 0.02999,-0.01731 0.99232558,0.99232558 0 0 1 1.272947,0.241682 0.99232558,0.99232558 0 0 1 4.54e-4,7.87e-4 0.56902882,0.56902882 0 0 1 0.01647,-0.01056 0.56902882,0.56902882 0 0 1 0.777547,0.208993 0.56902882,0.56902882 0 0 1 -0.208224,0.777104 0.56902882,0.56902882 0 0 1 -0.459154,0.04784 0.99232558,0.99232558 0 0 1 -0.407814,0.452705 0.99232558,0.99232558 0 0 1 -0.596284,0.128036 0.56902882,0.56902882 0 0 1 -0.271452,0.372951 0.56902882,0.56902882 0 0 1 -0.777103,-0.208225 0.56902882,0.56902882 0 0 1 0.20778,-0.777872 0.56902882,0.56902882 0 0 1 0.01812,-0.0094 0.99232558,0.99232558 0 0 1 0.396753,-1.206708 z"
         style="fill:currentColor;fill-opacity:1;stroke-width:1.81757;stroke-linecap:round;stroke-linejoin:round;stroke-dasharray:5.45273, 5.45272999999999985;stroke:none"
         id="path1196" />
      <path
         d="m 20.54991,70.545668 c -0.937024,0.540991 -1.255785,1.730616 -0.714792,2.667643 0.540991,0.937025 1.730932,1.256327 2.667956,0.715336 l 4.863607,-2.808004 c 0.937026,-0.540992 1.255472,-1.731163 0.714481,-2.668187 -0.540993,-0.937028 -1.730619,-1.255785 -2.667645,-0.714793 z m -0.377801,0.853507 0.226325,-0.130668 c 0.180946,-0.104469 0.381127,-0.09444 0.448634,0.02249 l 0.355975,0.616568 c 0.06749,0.116902 -0.02389,0.2953 -0.204841,0.399772 l -0.226325,0.130669 c -0.180946,0.104469 -0.381127,0.09444 -0.448634,-0.02249 l -0.355975,-0.616568 c -0.0675,-0.116917 0.02389,-0.2953 0.204841,-0.399773 z m 0.990522,-0.571878 0.226327,-0.13067 c 0.180944,-0.104468 0.381129,-0.09444 0.448635,0.02249 l 0.355976,0.616568 c 0.06749,0.116902 -0.0239,0.295308 -0.204843,0.399773 l -0.226326,0.13067 c -0.180946,0.104469 -0.381128,0.09444 -0.448634,-0.02249 L 20.95779,71.22707 c -0.0675,-0.116918 0.02389,-0.295301 0.204841,-0.399773 z m 0.990523,-0.571879 0.226329,-0.130671 c 0.180943,-0.104467 0.381128,-0.09444 0.448634,0.02249 l 0.355976,0.616567 c 0.06749,0.116903 -0.0239,0.295309 -0.204841,0.399773 l -0.22633,0.130671 c -0.180943,0.104468 -0.381127,0.09444 -0.448634,-0.02249 L 21.948313,70.65519 c -0.0675,-0.116917 0.0239,-0.295309 0.204841,-0.399772 z m 0.990526,-0.57188 0.226326,-0.130669 c 0.180946,-0.10447 0.380586,-0.09412 0.448093,0.0228 l 0.355975,0.616567 c 0.06749,0.116903 -0.02335,0.294991 -0.2043,0.39946 l -0.226326,0.13067 c -0.180945,0.104468 -0.381126,0.09443 -0.448633,-0.02249 L 22.93884,70.08331 c -0.0675,-0.116917 0.02389,-0.2953 0.20484,-0.399772 z m 0.990522,-0.571878 0.226328,-0.130671 c 0.180944,-0.104468 0.380585,-0.09412 0.448091,0.0228 l 0.355976,0.616568 c 0.06749,0.116902 -0.02335,0.294991 -0.204299,0.399459 l -0.226328,0.130671 c -0.180944,0.104468 -0.381126,0.09444 -0.448632,-0.02249 l -0.355975,-0.616568 c -0.0675,-0.116917 0.02389,-0.2953 0.204839,-0.399771 z m 1.98105,-1.14376 0.226326,-0.13067 c 0.180946,-0.104469 0.380586,-0.09412 0.448093,0.0228 l 0.355975,0.616567 c 0.06749,0.116903 -0.02335,0.294991 -0.2043,0.39946 l -0.226326,0.13067 c -0.180946,0.104469 -0.381127,0.09444 -0.448634,-0.02249 L 25.910411,68.36767 c -0.0675,-0.116917 0.02389,-0.2953 0.204841,-0.399773 z m -5.140006,4.822349 0.226325,-0.130669 c 0.180945,-0.104469 0.380818,-0.09497 0.448322,0.02195 l 0.356288,0.617109 c 0.0675,0.116917 -0.02389,0.295302 -0.204841,0.399774 l -0.226325,0.130669 c -0.180945,0.104469 -0.381136,0.09442 -0.448634,-0.02249 l -0.356288,-0.617109 c -0.0675,-0.116917 0.0242,-0.29476 0.205153,-0.399234 z m 0.990522,-0.571878 0.226327,-0.13067 c 0.180944,-0.104468 0.380819,-0.09497 0.448323,0.02195 l 0.356288,0.617109 c 0.0675,0.116917 -0.0239,0.29531 -0.204841,0.399775 l -0.226327,0.130669 c -0.180946,0.104469 -0.381136,0.09442 -0.448635,-0.02249 l -0.356288,-0.617109 c -0.0675,-0.116917 0.0242,-0.29476 0.205153,-0.399232 z m 0.990523,-0.571879 0.226329,-0.130671 c 0.180943,-0.104468 0.380819,-0.09497 0.448322,0.02195 l 0.356288,0.617109 c 0.0675,0.116918 -0.0239,0.295311 -0.20484,0.399775 l -0.226329,0.130671 c -0.180943,0.104467 -0.381136,0.09442 -0.448635,-0.02249 l -0.356288,-0.617109 c -0.0675,-0.116917 0.02422,-0.294769 0.205153,-0.399233 z m 0.990525,-0.57188 0.226327,-0.13067 c 0.180946,-0.104469 0.380277,-0.09466 0.447781,0.02226 l 0.356288,0.617108 c 0.0675,0.116918 -0.02335,0.294993 -0.204299,0.399462 l -0.226327,0.13067 c -0.180944,0.104468 -0.381134,0.09442 -0.448633,-0.02249 l -0.356288,-0.617109 c -0.0675,-0.116917 0.0242,-0.29476 0.205151,-0.399231 z m 0.990523,-0.571879 0.226328,-0.13067 c 0.180944,-0.104468 0.380275,-0.09466 0.447779,0.02226 l 0.356288,0.617109 c 0.0675,0.116917 -0.02335,0.294992 -0.204297,0.399461 l -0.226328,0.13067 c -0.180944,0.104468 -0.381135,0.09442 -0.448633,-0.02249 l -0.356288,-0.617109 c -0.0675,-0.116917 0.0242,-0.29476 0.205151,-0.399231 z m 0.990524,-0.571879 0.22633,-0.130671 c 0.180942,-0.104468 0.380276,-0.09466 0.44778,0.02226 l 0.356288,0.617109 c 0.0675,0.116917 -0.02335,0.294992 -0.204299,0.399461 l -0.226329,0.130672 c -0.180943,0.104467 -0.381135,0.09442 -0.448633,-0.02249 l -0.356288,-0.617109 c -0.0675,-0.116917 0.0242,-0.29476 0.205151,-0.399232 z m 0.990526,-0.57188 0.226326,-0.13067 c 0.180946,-0.104469 0.380277,-0.09466 0.447781,0.02226 l 0.356288,0.617108 c 0.0675,0.116918 -0.02335,0.294993 -0.204299,0.399462 l -0.226327,0.13067 c -0.180945,0.104469 -0.381136,0.09442 -0.448634,-0.02249 l -0.356288,-0.617109 c -0.0675,-0.116918 0.0242,-0.294761 0.205153,-0.399233 z"
         style="fill:currentColor;fill-opacity:1;stroke-width:1.11162;stroke-linecap:round;stroke-linejoin:round;stroke-dasharray:3.33487, 3.33487000000000000;stroke:none"
         id="path1198" />
    </g>
  </g>
</svg>
