<?xml version="1.0" encoding="UTF-8" standalone="no"?>
<svg
   xmlns:dc="http://purl.org/dc/elements/1.1/"
   xmlns:cc="http://creativecommons.org/ns#"
   xmlns:rdf="http://www.w3.org/1999/02/22-rdf-syntax-ns#"
   xmlns:svg="http://www.w3.org/2000/svg"
   xmlns="http://www.w3.org/2000/svg"
   id="svg8"
   version="1.1"
   viewBox="0 0 169.33333 169.33334"
   height="32"
   width="32">
  <defs
     id="defs2" />
  <metadata
     id="metadata5">
    <rdf:RDF>
      <cc:Work
         rdf:about="">
        <dc:format>image/svg+xml</dc:format>
        <dc:type
           rdf:resource="http://purl.org/dc/dcmitype/StillImage" />
        <dc:title></dc:title>
      </cc:Work>
    </rdf:RDF>
  </metadata>
  <g
     id="layer1">
    <path
       transform="scale(0.26458334)"
       d="M 51.984375 26.800781 L 51.984375 258.63477 L 51.984375 524.83008 L 98.251953 524.83008 L 110.7207 524.83008 L 171.19727 524.83008 L 171.19727 615.10156 L 468.80273 615.10156 L 468.80273 524.83008 L 522.35156 524.83008 L 528.49609 524.83008 L 588.01562 524.83008 L 588.01562 258.63477 L 588.01562 26.800781 L 51.984375 26.800781 z M 219.17773 269.08594 L 219.17969 269.08594 C 219.2648 269.0859 219.35039 269.08573 219.43555 269.08594 C 268.19991 269.08681 307.7296 308.51176 307.73047 357.14453 C 307.73011 376.97403 301.15665 395.27105 290.06641 409.99023 L 148.80469 409.99023 C 137.71406 395.27105 131.13906 376.97403 131.13867 357.14453 C 131.13942 308.61135 170.51345 269.22761 219.17773 269.08594 z M 340.37891 325.20898 L 504.99023 325.20898 C 508.85559 335.11022 510.98024 345.87976 510.98047 357.14453 C 510.98009 376.97402 504.40667 395.27105 493.31641 409.99023 L 352.05469 409.99023 C 340.96406 395.27105 334.38908 376.97404 334.38867 357.14453 C 334.38885 345.88075 336.5131 335.11095 340.37891 325.20898 z M 321.07227 448.36719 L 339.35547 459.58008 L 342.82227 459.58008 C 349.75036 459.58008 355.32814 465.15787 355.32812 472.08594 L 355.32812 490.84375 C 355.32812 497.77185 349.75036 503.34961 342.82227 503.34961 L 297.17773 503.34961 C 290.24964 503.34961 284.67188 497.77185 284.67188 490.84375 L 284.67188 472.08594 C 284.67188 465.15787 290.24964 459.58008 297.17773 459.58008 L 301.26562 459.58008 L 321.07227 448.36719 z M 194.55469 531.69531 L 217.65039 531.69531 C 222.30285 531.69531 226.04883 535.44127 226.04883 540.09375 L 226.04883 552.68945 C 226.04883 557.3419 222.30285 561.08789 217.65039 561.08789 L 194.55469 561.08789 C 189.90222 561.08789 186.1582 557.3419 186.1582 552.68945 L 186.1582 540.09375 C 186.1582 535.44127 189.90222 531.69531 194.55469 531.69531 z M 285.67383 531.69531 L 308.76758 531.69531 C 313.42004 531.69531 317.16602 535.44127 317.16602 540.09375 L 317.16602 552.68945 C 317.16602 557.3419 313.42004 561.08789 308.76758 561.08789 L 285.67383 561.08789 C 281.02136 561.08789 277.27539 557.3419 277.27539 552.68945 L 277.27539 540.09375 C 277.27539 535.44127 281.02136 531.69531 285.67383 531.69531 z M 331.23242 531.69531 L 354.32617 531.69531 C 358.97863 531.69531 362.72461 535.44127 362.72461 540.09375 L 362.72461 552.68945 C 362.72461 557.3419 358.97863 561.08789 354.32617 561.08789 L 331.23242 561.08789 C 326.57996 561.08789 322.83398 557.3419 322.83398 552.68945 L 322.83398 540.09375 C 322.83398 535.44127 326.57996 531.69531 331.23242 531.69531 z M 422.34961 531.69531 L 445.44531 531.69531 C 450.09776 531.69531 453.8418 535.44127 453.8418 540.09375 L 453.8418 552.68945 C 453.8418 557.3419 450.09776 561.08789 445.44531 561.08789 L 422.34961 561.08789 C 417.69716 561.08789 413.95117 557.3419 413.95117 552.68945 L 413.95117 540.09375 C 413.95117 535.44127 417.69716 531.69531 422.34961 531.69531 z M 235.83398 531.94727 L 269.41406 531.94727 C 271.16169 531.94727 272.57031 533.35391 272.57031 535.10156 L 272.57031 541.61914 C 272.57031 543.36676 271.16169 544.77344 269.41406 544.77344 L 235.83398 544.77344 C 234.08635 544.77344 232.67969 543.36676 232.67969 541.61914 L 232.67969 535.10156 C 232.67969 533.35391 234.08635 531.94727 235.83398 531.94727 z M 370.85156 531.94727 L 404.43164 531.94727 C 406.17929 531.94727 407.58594 533.35391 407.58594 535.10156 L 407.58594 541.61914 C 407.58594 543.36676 406.17929 544.77344 404.43164 544.77344 L 370.85156 544.77344 C 369.10393 544.77344 367.69531 543.36676 367.69531 541.61914 L 367.69531 535.10156 C 367.69531 533.35391 369.10393 531.94727 370.85156 531.94727 z M 240.67188 549.88867 L 264.57617 549.88867 C 269.00435 549.88867 272.57031 553.45464 272.57031 557.88281 L 272.57031 587.73633 C 272.57031 592.1645 269.00435 595.73047 264.57617 595.73047 L 240.67188 595.73047 C 236.2437 595.73047 232.67969 592.1645 232.67969 587.73633 L 232.67969 557.88281 C 232.67969 553.45464 236.2437 549.88867 240.67188 549.88867 z M 376.89453 549.88867 L 398.38867 549.88867 C 403.48427 549.88867 407.58594 553.99229 407.58594 559.08789 L 407.58594 586.53125 C 407.58594 591.62685 403.48427 595.73047 398.38867 595.73047 L 376.89453 595.73047 C 371.79892 595.73047 367.69531 591.62685 367.69531 586.53125 L 367.69531 559.08789 C 367.69531 553.99229 371.79892 549.88867 376.89453 549.88867 z M 194.55469 566.33594 L 217.65039 566.33594 C 222.30285 566.33594 226.04883 570.08193 226.04883 574.73438 L 226.04883 587.33203 C 226.04883 591.98452 222.30285 595.73047 217.65039 595.73047 L 194.55469 595.73047 C 189.90222 595.73047 186.1582 591.98452 186.1582 587.33203 L 186.1582 574.73438 C 186.1582 570.08193 189.90222 566.33594 194.55469 566.33594 z M 285.67383 566.33594 L 308.76758 566.33594 C 313.42004 566.33594 317.16602 570.08193 317.16602 574.73438 L 317.16602 587.33203 C 317.16602 591.98452 313.42004 595.73047 308.76758 595.73047 L 285.67383 595.73047 C 281.02136 595.73047 277.27539 591.98452 277.27539 587.33203 L 277.27539 574.73438 C 277.27539 570.08193 281.02136 566.33594 285.67383 566.33594 z M 331.23242 566.33594 L 354.32617 566.33594 C 358.97863 566.33594 362.72461 570.08193 362.72461 574.73438 L 362.72461 587.33203 C 362.72461 591.98452 358.97863 595.73047 354.32617 595.73047 L 331.23242 595.73047 C 326.57996 595.73047 322.83398 591.98452 322.83398 587.33203 L 322.83398 574.73438 C 322.83398 570.08193 326.57996 566.33594 331.23242 566.33594 z M 422.34961 566.33594 L 445.44531 566.33594 C 450.09776 566.33594 453.8418 570.08193 453.8418 574.73438 L 453.8418 587.33203 C 453.8418 591.98452 450.09776 595.73047 445.44531 595.73047 L 422.34961 595.73047 C 417.69716 595.73047 413.95117 591.98452 413.95117 587.33203 L 413.95117 574.73438 C 413.95117 570.08193 417.69716 566.33594 422.34961 566.33594 z "
       style="fill:currentColor;fill-opacity:1;stroke:none;stroke-width:43.6517;stroke-linecap:round;stroke-linejoin:round;stroke-dasharray:130.955, 130.955"
       id="path1196" />
  </g>
</svg>
