<?xml version="1.0" encoding="UTF-8" standalone="no"?>
<svg
   xmlns:dc="http://purl.org/dc/elements/1.1/"
   xmlns:cc="http://creativecommons.org/ns#"
   xmlns:rdf="http://www.w3.org/1999/02/22-rdf-syntax-ns#"
   xmlns:svg="http://www.w3.org/2000/svg"
   xmlns="http://www.w3.org/2000/svg"
   width="32"
   height="32"
   viewBox="0 0 8.4666665 8.4666669"
   version="1.1"
   id="svg849">
  <defs
     id="defs843" />
  <metadata
     id="metadata846">
    <rdf:RDF>
      <cc:Work
         rdf:about="">
        <dc:format>image/svg+xml</dc:format>
        <dc:type
           rdf:resource="http://purl.org/dc/dcmitype/StillImage" />
        <dc:title></dc:title>
      </cc:Work>
    </rdf:RDF>
  </metadata>
  <g
     id="layer1">
    <g
       id="g1170"
       transform="matrix(-1,0,0,1,8.4718172,0)">
      <path
         d="M 3.0757627,2.6344391 A 2.7860925,2.7860925 0 0 0 1.6341255,3.0546524 h 2.9432222 a 2.7860925,2.7860925 0 0 0 -1.4716111,-0.4202133 2.7860925,2.7860925 0 0 0 -0.029974,0 z M 1.4819495,3.1566795 A 2.7860925,2.7860925 0 0 0 1.1447413,3.441433 H 5.0667318 A 2.7860925,2.7860925 0 0 0 4.7301,3.1566795 Z M 1.0467491,3.5434602 A 2.7860925,2.7860925 0 0 0 0.819638,3.8282137 H 5.3918352 A 2.7860925,2.7860925 0 0 0 5.1647238,3.5434602 Z M 0.75161991,3.9302409 A 2.7860925,2.7860925 0 0 0 0.59425611,4.214418 H 5.6172172 A 2.7860925,2.7860925 0 0 0 5.4598531,3.9302409 Z M 0.54756571,4.3170215 A 2.7860925,2.7860925 0 0 0 0.44265651,4.6011987 H 5.76824 A 2.7860925,2.7860925 0 0 0 5.6639074,4.3170215 Z M 0.41325891,4.7032257 A 2.7860925,2.7860925 0 0 0 0.35388721,4.9879792 H 5.8581624 A 2.7860925,2.7860925 0 0 0 5.7982143,4.7032257 Z m -0.0737823,0.3867808 a 2.7860925,2.7860925 0 0 0 -0.019022,0.2847534 H 5.8910185 A 2.7860925,2.7860925 0 0 0 5.8719966,5.0900065 Z m -0.019022,0.3867805 a 2.7860925,2.7860925 0 0 0 0.020751,0.2847536 H 5.8702674 A 2.7860925,2.7860925 0 0 0 5.8910184,5.476787 Z m 0.034585,0.3867807 a 2.7860925,2.7860925 0 0 0 0.061101,0.2841773 H 5.7953316 a 2.7860925,2.7860925 0 0 0 0.060524,-0.2841773 z m 0.091651,0.3867807 a 2.7860925,2.7860925 0 0 0 0.1054856,0.2841773 H 5.6592952 A 2.7860925,2.7860925 0 0 0 5.7653581,6.2503484 Z m 0.1527533,0.3862043 a 2.7860925,2.7860925 0 0 0 0.1596695,0.2847537 H 5.4523597 A 2.7860925,2.7860925 0 0 0 5.6120293,6.6365527 Z M 0.8271315,7.0233334 A 2.7860925,2.7860925 0 0 0 1.0571248,7.3080868 H 5.1543483 A 2.7860925,2.7860925 0 0 0 5.3837652,7.0233334 Z M 1.1562697,7.4101141 A 2.7860925,2.7860925 0 0 0 1.4969365,7.6948675 H 4.7145367 A 2.7860925,2.7860925 0 0 0 5.0557799,7.4101141 Z m 0.495725,0.3867804 A 2.7860925,2.7860925 0 0 0 3.1057366,8.2061558 2.7860925,2.7860925 0 0 0 4.5594785,7.7968945 Z"
         style="fill:currentColor;stroke:none;stroke-width:0.381029;stroke-linecap:round;stroke-linejoin:round;stroke-miterlimit:4;stroke-dasharray:none"
         id="path851" />
      <path
         id="path1130"
         style="fill:currentColor;stroke:none;stroke-width:0.381029;stroke-linecap:round;stroke-linejoin:round;stroke-miterlimit:4;stroke-dasharray:none"
         d="M 5.3361068,0.2726756 A 2.7860925,2.7860925 0 0 0 3.8944696,0.6928889 h 2.9432222 a 2.7860925,2.7860925 0 0 0 -1.4716111,-0.4202133 2.7860925,2.7860925 0 0 0 -0.029974,0 z M 3.7422936,0.794916 A 2.7860925,2.7860925 0 0 0 3.4050854,1.0796695 H 7.3270759 A 2.7860925,2.7860925 0 0 0 6.9904441,0.794916 Z M 3.3070932,1.1816967 A 2.7860925,2.7860925 0 0 0 3.0799821,1.4664502 H 7.6521793 A 2.7860925,2.7860925 0 0 0 7.4250679,1.1816967 Z M 3.011964,1.5684774 A 2.7860925,2.7860925 0 0 0 2.8546002,1.8526545 H 7.8775613 A 2.7860925,2.7860925 0 0 0 7.7201972,1.5684774 Z M 2.8079098,1.955258 A 2.7860925,2.7860925 0 0 0 2.7030006,2.2394352 H 8.0285841 A 2.7860925,2.7860925 0 0 0 7.9242515,1.955258 Z M 2.673603,2.3414622 A 2.7860925,2.7860925 0 0 0 2.6142313,2.6262157 H 8.1185065 A 2.7860925,2.7860925 0 0 0 8.0585584,2.3414622 Z M 2.5998207,2.728243 A 2.7860925,2.7860925 0 0 0 2.5807987,3.0129964 H 8.1513626 A 2.7860925,2.7860925 0 0 0 8.1323407,2.728243 Z m -0.019022,0.3867805 a 2.7860925,2.7860925 0 0 0 0.020751,0.2847536 h 5.5290618 a 2.7860925,2.7860925 0 0 0 0.020751,-0.2847536 z m 0.034585,0.3867807 a 2.7860925,2.7860925 0 0 0 0.061101,0.2841773 h 5.379191 a 2.7860925,2.7860925 0 0 0 0.060524,-0.2841773 z m 0.091651,0.3867807 a 2.7860925,2.7860925 0 0 0 0.1054856,0.2841773 h 5.107119 A 2.7860925,2.7860925 0 0 0 8.0257022,3.8885849 Z M 2.859788,4.2747892 A 2.7860925,2.7860925 0 0 0 3.0194575,4.5595429 H 7.7127038 A 2.7860925,2.7860925 0 0 0 7.8723734,4.2747892 Z M 3.0874756,4.6615699 A 2.7860925,2.7860925 0 0 0 3.3174689,4.9463233 H 7.4146924 A 2.7860925,2.7860925 0 0 0 7.6441093,4.6615699 Z M 3.4166138,5.0483506 A 2.7860925,2.7860925 0 0 0 3.7572806,5.333104 H 6.9748808 A 2.7860925,2.7860925 0 0 0 7.316124,5.0483506 Z M 3.9123388,5.435131 A 2.7860925,2.7860925 0 0 0 5.3660807,5.8443923 2.7860925,2.7860925 0 0 0 6.8198226,5.435131 Z" />
    </g>
  </g>
</svg>
