<?xml version="1.0" encoding="UTF-8" standalone="no"?>
<svg
   xmlns:dc="http://purl.org/dc/elements/1.1/"
   xmlns:cc="http://creativecommons.org/ns#"
   xmlns:rdf="http://www.w3.org/1999/02/22-rdf-syntax-ns#"
   xmlns:svg="http://www.w3.org/2000/svg"
   xmlns="http://www.w3.org/2000/svg"
   width="32"
   height="32"
   viewBox="0 0 8.4666665 8.4666669"
   version="1.1"
   id="svg849">
  <defs
     id="defs843" />
  <metadata
     id="metadata846">
    <rdf:RDF>
      <cc:Work
         rdf:about="">
        <dc:format>image/svg+xml</dc:format>
        <dc:type
           rdf:resource="http://purl.org/dc/dcmitype/StillImage" />
        <dc:title></dc:title>
      </cc:Work>
    </rdf:RDF>
  </metadata>
  <g
     id="layer1">
    <path
       d="m 0.86245337,1.0759033 c -0.13057725,0 -0.23534583,0.089145 -0.26884013,0.2087401 -0.0363765,-0.036647 -0.0867826,-0.059027 -0.14273746,-0.059027 H 0.30921153 c -0.11137086,0 -0.20069102,0.08932 -0.20069102,0.200691 v 0.3954794 c 0,0.1113709 0.0893202,0.2012276 0.20069102,0.2012276 h 0.14166425 c 0.0494093,0 0.0927829,-0.020007 0.12771249,-0.049368 v 0.8945239 c 0,0.1573801 0.12648501,0.2844017 0.2838651,0.2844017 H 1.2611524 v 0.7909586 c 0,0.333909 0.2686999,0.6026099 0.6026097,0.6026099 h 3.543216 c 0.3339097,0 0.6026098,-0.2687009 0.6026098,-0.6026099 v -0.079418 c 0.00113,1.35e-5 0.00209,5.366e-4 0.00322,5.366e-4 h 1.1188255 c 0.068881,0 0.1296146,-0.027123 0.1786902,-0.067613 v 0.00107 c 0,0.169335 0.1174957,0.3058662 0.263474,0.3058662 h 0.053124 c 0.1459783,0 0.263474,-0.1365312 0.263474,-0.3058662 v -0.213565 c 0.045996,0.06224 0.1164816,0.1051749 0.2001545,0.1051749 0.1401392,0 0.2527417,-0.1126026 0.2527417,-0.252742 V 2.2140468 c 0,-0.1401393 -0.1126025,-0.2527419 -0.2527417,-0.2527419 -0.083611,0 -0.1541516,0.043014 -0.2001545,0.105175 V 1.9505727 c 0,-0.1693348 -0.1174957,-0.3053293 -0.263474,-0.3053293 h -0.053124 c -0.1199978,0 -0.2163817,0.093697 -0.2484491,0.2205454 C 7.2746032,1.8182439 7.2069813,1.7885174 7.1316331,1.7885174 H 6.0128076 c -0.00114,0 -0.00209,5.236e-4 -0.00322,5.366e-4 V 1.678513 C 6.0095841,1.3446031 5.7408878,1.0759033 5.4069781,1.0759033 H 1.981279 1.8637621 Z M 2.7175038,2.4785941 h 1.7987068 c 0.1695234,0 0.306403,0.1363426 0.3064025,0.3058659 v 1.1494123 c 0,0.1695234 -0.1368791,0.3058659 -0.3064025,0.3058659 H 2.7175038 c -0.1695231,0 -0.305866,-0.1363425 -0.305866,-0.3058659 V 2.78446 c 0,-0.1695233 0.1363429,-0.3058659 0.305866,-0.3058659 z m 0.1234197,0.1035651 c -0.1495133,0 -0.27045,0.1198628 -0.27045,0.2693768 v 1.0147237 c 0,0.149514 0.1209367,0.2693768 0.27045,0.2693768 h 1.5862102 c 0.149514,0 0.2699131,-0.1198628 0.2699134,-0.2693768 V 2.851536 c 0,-0.149514 -0.1203994,-0.2693771 -0.2699134,-0.2693768 z m 0.4110408,0.1921054 h 0.7630552 c 0.1214218,0 0.2189357,0.09805 0.2189357,0.2194722 v 0.054734 c 0,0.1214215 -0.097513,0.2189356 -0.2189357,0.2189356 H 3.2519643 c -0.1214215,0 -0.2194723,-0.097514 -0.2194723,-0.2189356 v -0.054734 c 0,-0.1214218 0.09805,-0.2194722 0.2194723,-0.2194722 z"
       style="fill:currentColor;stroke-width:1.69151;stroke-linecap:round;stroke-linejoin:round"
       id="rect138" />
    <rect
       y="4.5269909"
       x="3.5119705"
       height="0.24360487"
       width="1.5428309"
       id="rect1028"
       style="fill:currentColor;stroke:none;stroke-width:0.105833;stroke-linecap:round;stroke-linejoin:round;stroke-miterlimit:4;stroke-dasharray:none" />
    <rect
       y="4.7908959"
       x="4.1818838"
       height="2.801456"
       width="0.20300406"
       id="rect1030"
       style="fill:currentColor;stroke:none;stroke-width:0.105833;stroke-linecap:round;stroke-linejoin:round;stroke-miterlimit:4;stroke-dasharray:none" />
    <rect
       transform="rotate(15)"
       y="3.4927576"
       x="5.1100445"
       height="3.5322709"
       width="0.36540714"
       id="rect1032"
       style="fill:currentColor;stroke:none;stroke-width:0.105833;stroke-linecap:round;stroke-linejoin:round;stroke-miterlimit:4;stroke-dasharray:none" />
    <rect
       style="fill:currentColor;stroke:none;stroke-width:0.105833;stroke-linecap:round;stroke-linejoin:round;stroke-miterlimit:4;stroke-dasharray:none"
       id="rect1034"
       width="0.36540714"
       height="3.5322709"
       x="2.8107646"
       y="5.7130423"
       transform="rotate(-15)" />
  </g>
</svg>
