<?xml version="1.0" encoding="UTF-8" standalone="no"?>
<svg
   xmlns:dc="http://purl.org/dc/elements/1.1/"
   xmlns:cc="http://creativecommons.org/ns#"
   xmlns:rdf="http://www.w3.org/1999/02/22-rdf-syntax-ns#"
   xmlns:svg="http://www.w3.org/2000/svg"
   xmlns="http://www.w3.org/2000/svg"
   width="32"
   height="32"
   viewBox="0 0 8.4666665 8.4666669"
   version="1.1"
   id="svg849">
  <defs
     id="defs843" />
  <metadata
     id="metadata846">
    <rdf:RDF>
      <cc:Work
         rdf:about="">
        <dc:format>image/svg+xml</dc:format>
        <dc:type
           rdf:resource="http://purl.org/dc/dcmitype/StillImage" />
        <dc:title></dc:title>
      </cc:Work>
    </rdf:RDF>
  </metadata>
  <g
     id="layer1">
    <path
       transform="scale(0.26458333)"
       d="M 1.5449219 6.7753906 C 0.9739715 6.7753906 0.515625 7.2356905 0.515625 7.8066406 L 0.515625 24.193359 C 0.515625 24.76431 0.9739715 25.224609 1.5449219 25.224609 L 30.455078 25.224609 C 31.026028 25.224609 31.484375 24.76431 31.484375 24.193359 L 31.484375 7.8066406 C 31.484375 7.2356905 31.026028 6.7753906 30.455078 6.7753906 L 1.5449219 6.7753906 z M 4.1445312 7.8417969 L 4.8847656 7.8417969 L 4.8847656 9.8730469 L 4.1445312 9.8730469 L 4.1445312 9.0957031 L 2.5761719 9.0957031 L 2.5761719 20.517578 L 3.1484375 20.517578 L 3.1484375 20.255859 L 5.828125 20.255859 L 5.828125 20.517578 L 6.515625 20.517578 L 6.515625 20.927734 L 5.828125 20.927734 L 5.828125 21.111328 L 6.515625 21.111328 L 6.515625 21.521484 L 5.828125 21.521484 L 5.828125 21.703125 L 6.515625 21.703125 L 6.515625 22.113281 L 5.828125 22.113281 L 5.828125 22.296875 L 6.515625 22.296875 L 6.515625 22.707031 L 5.828125 22.707031 L 5.828125 22.935547 L 3.1484375 22.935547 L 3.1484375 22.707031 L 2.4257812 22.707031 L 2.4257812 22.296875 L 3.1484375 22.296875 L 3.1484375 22.113281 L 2.4257812 22.113281 L 2.4257812 21.703125 L 3.1484375 21.703125 L 3.1484375 21.521484 L 2.4257812 21.521484 L 2.4257812 21.111328 L 3.1484375 21.111328 L 3.1484375 20.927734 L 2.4257812 20.927734 L 2.4257812 20.898438 L 2.1660156 20.898438 L 2.1660156 8.3710938 L 2.2441406 8.3710938 L 2.2441406 8.3554688 L 4.1445312 8.3554688 L 4.1445312 7.8417969 z M 5.9921875 7.8417969 L 6.7324219 7.8417969 L 6.7324219 9.8730469 L 5.9921875 9.8730469 L 5.9921875 7.8417969 z M 7.5761719 7.8417969 L 8.3164062 7.8417969 L 8.3164062 9.8730469 L 7.5761719 9.8730469 L 7.5761719 7.8417969 z M 11.984375 7.8964844 L 11.990234 7.9023438 L 11.996094 7.8964844 L 12.947266 8.8496094 L 13.900391 7.8964844 L 13.912109 7.9082031 L 13.923828 7.8964844 L 14.867188 8.8398438 L 15.748047 7.9570312 L 15.753906 7.9628906 L 15.759766 7.9570312 L 16.710938 8.9101562 L 17.664062 7.9570312 L 17.675781 7.96875 L 17.6875 7.9570312 L 19.125 9.3945312 L 18.601562 9.9160156 L 17.675781 8.9902344 L 16.75 9.9160156 L 16.710938 9.8789062 L 16.673828 9.9160156 L 15.753906 8.9980469 L 14.835938 9.9160156 L 14.3125 9.3945312 L 14.34375 9.3613281 L 13.912109 8.9296875 L 12.986328 9.8554688 L 12.947266 9.8183594 L 12.910156 9.8554688 L 11.990234 8.9375 L 11.072266 9.8554688 L 10.548828 9.3339844 L 11.984375 7.8964844 z M 22.603516 8.796875 L 23.388672 8.796875 L 23.388672 10.146484 L 23.740234 10.146484 L 23.740234 8.796875 L 24.525391 8.796875 L 24.525391 10.146484 L 24.873047 10.146484 L 24.873047 8.796875 L 25.658203 8.796875 L 25.658203 10.146484 L 26.009766 10.146484 L 26.009766 8.796875 L 26.794922 8.796875 L 26.794922 10.146484 L 27.261719 10.146484 L 27.261719 10.181641 L 27.294922 10.181641 L 27.294922 10.583984 L 28.646484 10.583984 L 28.646484 11.371094 L 27.294922 11.371094 L 27.294922 11.720703 L 28.646484 11.720703 L 28.646484 12.507812 L 27.294922 12.507812 L 27.294922 12.855469 L 28.646484 12.855469 L 28.646484 13.640625 L 27.294922 13.640625 L 27.294922 13.992188 L 28.646484 13.992188 L 28.646484 14.777344 L 27.294922 14.777344 L 27.294922 15.310547 L 26.794922 15.310547 L 26.794922 16.626953 L 26.009766 16.626953 L 26.009766 15.310547 L 25.658203 15.310547 L 25.658203 16.626953 L 24.873047 16.626953 L 24.873047 15.310547 L 24.525391 15.310547 L 24.525391 16.626953 L 23.740234 16.626953 L 23.740234 15.310547 L 23.388672 15.310547 L 23.388672 16.626953 L 22.603516 16.626953 L 22.603516 15.310547 L 22.166016 15.310547 L 22.166016 15.277344 L 22.130859 15.277344 L 22.130859 14.777344 L 20.816406 14.777344 L 20.816406 14.708984 L 8.8027344 14.708984 L 8.8027344 18.490234 L 9.0722656 18.490234 L 9.0722656 18.228516 L 11.751953 18.228516 L 11.751953 18.490234 L 12.439453 18.490234 L 12.439453 18.900391 L 11.751953 18.900391 L 11.751953 19.083984 L 12.439453 19.083984 L 12.439453 19.494141 L 11.751953 19.494141 L 11.751953 19.675781 L 12.439453 19.675781 L 12.439453 20.085938 L 11.751953 20.085938 L 11.751953 20.269531 L 12.439453 20.269531 L 12.439453 20.679688 L 11.751953 20.679688 L 11.751953 20.908203 L 9.0722656 20.908203 L 9.0722656 20.679688 L 8.3496094 20.679688 L 8.3496094 20.269531 L 9.0722656 20.269531 L 9.0722656 20.085938 L 8.3496094 20.085938 L 8.3496094 19.675781 L 9.0722656 19.675781 L 9.0722656 19.494141 L 8.3496094 19.494141 L 8.3496094 19.083984 L 9.0722656 19.083984 L 9.0722656 18.900391 L 8.8027344 18.900391 L 8.8027344 18.908203 L 8.2949219 18.908203 L 8.2949219 14.708984 L 2.6640625 14.708984 L 2.6640625 14.111328 L 8.2949219 14.111328 L 8.2949219 11.914062 L 8.8027344 11.914062 L 8.8027344 11.921875 L 20.816406 11.921875 L 20.816406 11.720703 L 22.130859 11.720703 L 22.130859 11.371094 L 20.816406 11.371094 L 20.816406 10.583984 L 22.130859 10.583984 L 22.130859 10.146484 L 22.603516 10.146484 L 22.603516 8.796875 z M 8.8027344 12.333984 L 8.8027344 14.111328 L 20.816406 14.111328 L 20.816406 13.992188 L 22.130859 13.992188 L 22.130859 13.640625 L 20.816406 13.640625 L 20.816406 12.855469 L 22.130859 12.855469 L 22.130859 12.507812 L 20.816406 12.507812 L 20.816406 12.333984 L 8.8027344 12.333984 z M 14.257812 16.146484 L 16.291016 16.146484 L 16.291016 16.884766 L 14.257812 16.884766 L 14.257812 16.146484 z M 17.824219 17.861328 L 19.855469 17.861328 L 19.855469 18.601562 L 17.824219 18.601562 L 17.824219 17.861328 z M 25.664062 19.394531 L 26.404297 19.394531 L 26.404297 21.425781 L 25.664062 21.425781 L 25.664062 19.394531 z M 27.083984 19.394531 L 27.824219 19.394531 L 27.824219 21.425781 L 27.083984 21.425781 L 27.083984 19.394531 z M 28.503906 19.394531 L 29.244141 19.394531 L 29.244141 21.425781 L 28.503906 21.425781 L 28.503906 19.394531 z M 12.542969 20.304688 L 25.070312 20.304688 L 25.070312 20.714844 L 18.884766 20.714844 L 18.884766 21.134766 L 19.164062 21.134766 L 19.164062 21.396484 L 19.851562 21.396484 L 19.851562 21.806641 L 19.164062 21.806641 L 19.164062 21.990234 L 19.851562 21.990234 L 19.851562 22.400391 L 19.164062 22.400391 L 19.164062 22.582031 L 19.851562 22.582031 L 19.851562 22.992188 L 19.164062 22.992188 L 19.164062 23.175781 L 19.851562 23.175781 L 19.851562 23.585938 L 19.164062 23.585938 L 19.164062 23.814453 L 19.146484 23.814453 L 19.146484 23.832031 L 18.884766 23.832031 L 18.884766 24.519531 L 18.474609 24.519531 L 18.474609 23.832031 L 18.291016 23.832031 L 18.291016 24.519531 L 17.880859 24.519531 L 17.880859 23.832031 L 17.699219 23.832031 L 17.699219 24.519531 L 17.289062 24.519531 L 17.289062 23.832031 L 17.105469 23.832031 L 17.105469 24.519531 L 16.695312 24.519531 L 16.695312 23.832031 L 16.466797 23.832031 L 16.466797 23.585938 L 15.761719 23.585938 L 15.761719 23.175781 L 16.466797 23.175781 L 16.466797 22.992188 L 15.761719 22.992188 L 15.761719 22.582031 L 16.466797 22.582031 L 16.466797 22.400391 L 15.761719 22.400391 L 15.761719 21.990234 L 16.466797 21.990234 L 16.466797 21.806641 L 15.761719 21.806641 L 15.761719 21.396484 L 16.466797 21.396484 L 16.466797 21.152344 L 16.484375 21.152344 L 16.484375 21.134766 L 16.695312 21.134766 L 16.695312 20.714844 L 12.542969 20.714844 L 12.542969 20.304688 z M 17.105469 20.714844 L 17.105469 21.134766 L 17.289062 21.134766 L 17.289062 20.714844 L 17.105469 20.714844 z M 17.699219 20.714844 L 17.699219 21.134766 L 17.880859 21.134766 L 17.880859 20.714844 L 17.699219 20.714844 z M 18.291016 20.714844 L 18.291016 21.134766 L 18.474609 21.134766 L 18.474609 20.714844 L 18.291016 20.714844 z "
       style="fill:currentColor;stroke-width:3;stroke-linecap:round;stroke-linejoin:round"
       id="rect14094" />
  </g>
</svg>
