<?xml version="1.0" encoding="UTF-8" standalone="no"?>
<svg
   xmlns:dc="http://purl.org/dc/elements/1.1/"
   xmlns:cc="http://creativecommons.org/ns#"
   xmlns:rdf="http://www.w3.org/1999/02/22-rdf-syntax-ns#"
   xmlns:svg="http://www.w3.org/2000/svg"
   xmlns="http://www.w3.org/2000/svg"
   width="32"
   height="32"
   viewBox="0 0 8.4666665 8.466667"
   version="1.1"
   id="svg8">
  <defs
     id="defs2" />
  <metadata
     id="metadata5">
    <rdf:RDF>
      <cc:Work
         rdf:about="">
        <dc:format>image/svg+xml</dc:format>
        <dc:type
           rdf:resource="http://purl.org/dc/dcmitype/StillImage" />
        <dc:title></dc:title>
      </cc:Work>
    </rdf:RDF>
  </metadata>
  <g
     id="layer1">
    <path
       id="path1196"
       style="fill:currentColor;fill-opacity:1;stroke:none;stroke-width:0.609564;stroke-linecap:round;stroke-linejoin:round;stroke-dasharray:1.82869, 1.82869"
       d="M 0.49068861,0.12573784 V 3.3631302 7.0803541 H 1.1367815 1.3108988 2.1554096 V 8.3409289 H 6.3112522 V 7.0803541 h 0.747771 0.085808 0.8311469 V 3.3631302 0.12573784 Z M 2.8254219,3.5090734 h 2.75e-5 c 0.00115,0 0.00241,-2.3e-6 0.00356,0 0.6809582,1.26e-5 1.2329613,0.5505534 1.2329739,1.2296737 -5.7e-6,0.276905 -0.091804,0.5324097 -0.2466655,0.7379519 H 1.8427009 C 1.6878289,5.2711568 1.5960135,5.0156521 1.5960078,4.7387471 1.5960181,4.0610167 2.1458479,3.5110514 2.8254092,3.5090734 Z m 1.6924862,0.7837172 h 2.2986768 c 0.053977,0.1382641 0.083648,0.2886527 0.083648,0.4459565 -5.7e-6,0.276905 -0.091792,0.5324097 -0.2466655,0.7379519 H 4.6809507 C 4.5260776,5.2711568 4.4342634,5.0156521 4.4342576,4.7387471 c 2.3e-6,-0.15729 0.029671,-0.3076821 0.083648,-0.4459565 z M 4.2483042,6.0126054 4.503616,6.1691855 h 0.048406 c 0.096743,0 0.1746353,0.077893 0.1746341,0.1746353 v 0.2619386 c 0,0.096743 -0.077893,0.1746354 -0.1746341,0.1746354 H 3.9146294 c -0.096743,0 -0.1746353,-0.077893 -0.1746353,-0.1746354 V 6.3438208 c 0,-0.096743 0.077893,-0.1746353 0.1746353,-0.1746353 h 0.057079 z M 2.4815788,7.1762221 H 2.804094 c 0.06497,0 0.1172774,0.052312 0.1172774,0.1172774 v 0.1758897 c 0,0.06497 -0.052312,0.1172786 -0.1172774,0.1172786 H 2.4815788 c -0.06497,0 -0.117251,-0.052312 -0.117251,-0.1172786 V 7.2934995 c 0,-0.06497 0.052289,-0.1172774 0.117251,-0.1172774 z m 1.2724122,0 h 0.3224876 c 0.06497,0 0.1172785,0.052312 0.1172785,0.1172774 v 0.1758897 c 0,0.06497 -0.052312,0.1172786 -0.1172785,0.1172786 H 3.753991 c -0.06497,0 -0.1172775,-0.052312 -0.1172775,-0.1172786 V 7.2934995 c 0,-0.06497 0.052312,-0.1172774 0.1172775,-0.1172774 z m 0.6361922,0 h 0.3224877 c 0.06497,0 0.1172785,0.052312 0.1172785,0.1172774 v 0.1758897 c 0,0.06497 -0.052312,0.1172786 -0.1172785,0.1172786 H 4.3901832 c -0.06497,0 -0.1172774,-0.052312 -0.1172774,-0.1172786 V 7.2934995 c 0,-0.06497 0.052312,-0.1172774 0.1172774,-0.1172774 z m 1.2723858,0 h 0.322514 c 0.06497,0 0.117251,0.052312 0.117251,0.1172774 v 0.1758897 c 0,0.06497 -0.052277,0.1172786 -0.117251,0.1172786 H 5.662569 c -0.06497,0 -0.1172786,-0.052312 -0.1172786,-0.1172786 V 7.2934995 c 0,-0.06497 0.052312,-0.1172774 0.1172786,-0.1172774 z m -2.6045554,0.00356 h 0.4689212 c 0.02441,0 0.044075,0.019643 0.044075,0.044041 v 0.091011 c 0,0.024398 -0.019666,0.044041 -0.044075,0.044041 H 3.0580136 c -0.02441,0 -0.044053,-0.019643 -0.044053,-0.044041 v -0.091011 c 0,-0.024398 0.019643,-0.044041 0.044053,-0.044041 z m 1.8854225,0 h 0.4689213 c 0.024398,0 0.044053,0.019643 0.044053,0.044041 v 0.091011 c 0,0.024398 -0.019643,0.044041 -0.044053,0.044041 H 4.9434361 c -0.02441,0 -0.044075,-0.019643 -0.044075,-0.044041 v -0.091011 c 0,-0.024398 0.019666,-0.044041 0.044075,-0.044041 z M 3.1255719,7.4303209 h 0.3338057 c 0.061834,0 0.1116305,0.049796 0.1116305,0.1116304 v 0.416883 c 0,0.061834 -0.049796,0.1116304 -0.1116305,0.1116304 H 3.1255719 c -0.061834,0 -0.1116074,-0.049796 -0.1116074,-0.1116304 v -0.416883 c 0,-0.061834 0.049773,-0.1116304 0.1116074,-0.1116304 z m 1.9022498,0 h 0.3001501 c 0.071162,0 0.1284335,0.057309 0.1284335,0.1284611 v 0.3832261 c 0,0.07115 -0.057274,0.12846 -0.1284335,0.12846 H 5.0278217 c -0.07115,0 -0.1284599,-0.057308 -0.1284599,-0.12846 V 7.558782 c 0,-0.071162 0.057309,-0.1284611 0.1284599,-0.1284611 z M 2.4815788,7.6599949 H 2.804094 c 0.06497,0 0.1172774,0.052312 0.1172774,0.1172785 v 0.1759173 c 0,0.06497 -0.052312,0.1172774 -0.1172774,0.1172774 H 2.4815788 c -0.06497,0 -0.117251,-0.052312 -0.117251,-0.1172774 V 7.7772734 c 0,-0.06497 0.052289,-0.1172785 0.117251,-0.1172785 z m 1.2724122,0 h 0.3224876 c 0.06497,0 0.1172785,0.052312 0.1172785,0.1172785 v 0.1759173 c 0,0.06497 -0.052312,0.1172774 -0.1172785,0.1172774 H 3.753991 c -0.06497,0 -0.1172775,-0.052312 -0.1172775,-0.1172774 V 7.7772734 c 0,-0.06497 0.052312,-0.1172785 0.1172775,-0.1172785 z m 0.6361922,0 h 0.3224877 c 0.06497,0 0.1172785,0.052312 0.1172785,0.1172785 v 0.1759173 c 0,0.06497 -0.052312,0.1172774 -0.1172785,0.1172774 H 4.3901832 c -0.06497,0 -0.1172774,-0.052312 -0.1172774,-0.1172774 V 7.7772734 c 0,-0.06497 0.052312,-0.1172785 0.1172774,-0.1172785 z m 1.2723858,0 h 0.322514 c 0.06497,0 0.117251,0.052312 0.117251,0.1172785 v 0.1759173 c 0,0.06497 -0.052277,0.1172774 -0.117251,0.1172774 H 5.662569 c -0.06497,0 -0.1172786,-0.052312 -0.1172786,-0.1172774 V 7.7772734 c 0,-0.06497 0.052312,-0.1172785 0.1172786,-0.1172785 z" />
  </g>
</svg>
