<?xml version="1.0" encoding="UTF-8" standalone="no"?>
<svg
   xmlns:dc="http://purl.org/dc/elements/1.1/"
   xmlns:cc="http://creativecommons.org/ns#"
   xmlns:rdf="http://www.w3.org/1999/02/22-rdf-syntax-ns#"
   xmlns:svg="http://www.w3.org/2000/svg"
   xmlns="http://www.w3.org/2000/svg"
   width="32"
   height="32"
   viewBox="0 0 8.4666665 8.4666669"
   version="1.1"
   id="svg849">
  <defs
     id="defs843" />
  <metadata
     id="metadata846">
    <rdf:RDF>
      <cc:Work
         rdf:about="">
        <dc:format>image/svg+xml</dc:format>
        <dc:type
           rdf:resource="http://purl.org/dc/dcmitype/StillImage" />
        <dc:title></dc:title>
      </cc:Work>
    </rdf:RDF>
  </metadata>
  <g
     id="layer1">
    <path
       id="path851"
       style="fill:currentColor;stroke:none;stroke-width:0.381029;stroke-linecap:round;stroke-linejoin:round;stroke-miterlimit:4;stroke-dasharray:none"
       d="M 5.3960545,1.4474952 A 2.7860925,2.7860925 0 0 1 6.8376917,1.8677085 H 3.8944695 a 2.7860925,2.7860925 0 0 1 1.4716111,-0.4202133 2.7860925,2.7860925 0 0 1 0.029974,0 z M 6.9898677,1.9697356 A 2.7860925,2.7860925 0 0 1 7.3270759,2.2544891 H 3.4050854 A 2.7860925,2.7860925 0 0 1 3.7417172,1.9697356 Z M 7.4250681,2.3565163 A 2.7860925,2.7860925 0 0 1 7.6521792,2.6412698 H 3.079982 A 2.7860925,2.7860925 0 0 1 3.3070934,2.3565163 Z M 7.7201973,2.743297 A 2.7860925,2.7860925 0 0 1 7.8775611,3.0274741 H 2.8546 A 2.7860925,2.7860925 0 0 1 3.0119641,2.743297 Z M 7.9242515,3.1300776 A 2.7860925,2.7860925 0 0 1 8.0291607,3.4142548 H 2.7035772 A 2.7860925,2.7860925 0 0 1 2.8079098,3.1300776 Z M 8.0585583,3.5162818 A 2.7860925,2.7860925 0 0 1 8.11793,3.8010353 H 2.6136548 a 2.7860925,2.7860925 0 0 1 0.059948,-0.2847535 z m 0.073782,0.3867808 A 2.7860925,2.7860925 0 0 1 8.1513623,4.187816 H 2.5807987 a 2.7860925,2.7860925 0 0 1 0.019022,-0.2847534 z m 0.019022,0.3867805 A 2.7860925,2.7860925 0 0 1 8.1306116,4.5745967 H 2.6015498 A 2.7860925,2.7860925 0 0 1 2.5807988,4.2898431 Z M 8.1167776,4.6766238 A 2.7860925,2.7860925 0 0 1 8.0556766,4.9608011 H 2.6764856 A 2.7860925,2.7860925 0 0 1 2.6159616,4.6766238 Z M 8.0251266,5.0634045 A 2.7860925,2.7860925 0 0 1 7.919641,5.3475818 H 2.812522 A 2.7860925,2.7860925 0 0 1 2.7064591,5.0634045 Z M 7.8723733,5.4496088 A 2.7860925,2.7860925 0 0 1 7.7127038,5.7343625 H 3.0194575 A 2.7860925,2.7860925 0 0 1 2.8597879,5.4496088 Z M 7.6446857,5.8363895 A 2.7860925,2.7860925 0 0 1 7.4146924,6.1211429 H 3.3174689 A 2.7860925,2.7860925 0 0 1 3.088052,5.8363895 Z M 7.3155475,6.2231702 A 2.7860925,2.7860925 0 0 1 6.9748807,6.5079236 H 3.7572805 A 2.7860925,2.7860925 0 0 1 3.4160373,6.2231702 Z M 6.8198225,6.6099506 A 2.7860925,2.7860925 0 0 1 5.3660806,7.0192119 2.7860925,2.7860925 0 0 1 3.9123387,6.6099506 Z" />
    <path
       d="M 0.3198982,4.2033592 A 2.7860925,2.7860925 0 0 1 0.7401115,2.761722 v 2.9432222 a 2.7860925,2.7860925 0 0 1 -0.4202133,-1.4716111 2.7860925,2.7860925 0 0 1 0,-0.029974 z M 0.8421386,2.609546 A 2.7860925,2.7860925 0 0 1 1.1268921,2.2723378 V 6.1943283 A 2.7860925,2.7860925 0 0 1 0.8421386,5.8576965 Z M 1.2289193,2.1743456 A 2.7860925,2.7860925 0 0 1 1.5136728,1.9472345 V 6.5194317 A 2.7860925,2.7860925 0 0 1 1.2289193,6.2923203 Z M 1.6157,1.8792164 A 2.7860925,2.7860925 0 0 1 1.8998771,1.7218526 V 6.7448137 A 2.7860925,2.7860925 0 0 1 1.6157,6.5874496 Z M 2.0024806,1.6751622 A 2.7860925,2.7860925 0 0 1 2.2866578,1.570253 V 6.8958365 A 2.7860925,2.7860925 0 0 1 2.0024806,6.7915039 Z M 2.3886848,1.5408554 A 2.7860925,2.7860925 0 0 1 2.6734383,1.4814834 V 6.9857589 A 2.7860925,2.7860925 0 0 1 2.3886848,6.9258108 Z M 2.7754656,1.4670734 A 2.7860925,2.7860925 0 0 1 3.060219,1.4480514 V 7.018615 A 2.7860925,2.7860925 0 0 1 2.7754656,6.9995931 Z m 0.3867805,-0.019022 a 2.7860925,2.7860925 0 0 1 0.2847536,0.020751 v 5.5290618 a 2.7860925,2.7860925 0 0 1 -0.2847536,0.020751 z m 0.3867807,0.034585 a 2.7860925,2.7860925 0 0 1 0.2841773,0.061101 v 5.379191 a 2.7860925,2.7860925 0 0 1 -0.2841773,0.060524 z m 0.3867807,0.091651 A 2.7860925,2.7860925 0 0 1 4.2199848,1.679773 V 6.786892 A 2.7860925,2.7860925 0 0 1 3.9358075,6.8929546 Z m 0.3862043,0.152753 A 2.7860925,2.7860925 0 0 1 4.6067655,1.8867099 V 6.5799562 A 2.7860925,2.7860925 0 0 1 4.3220118,6.7396258 Z M 4.7087925,1.954728 A 2.7860925,2.7860925 0 0 1 4.9935459,2.1847213 V 6.2819448 A 2.7860925,2.7860925 0 0 1 4.7087925,6.5113617 Z M 5.0955732,2.2838662 A 2.7860925,2.7860925 0 0 1 5.3803266,2.624533 V 5.8421332 A 2.7860925,2.7860925 0 0 1 5.0955732,6.1833764 Z m 0.3867804,0.495725 A 2.7860925,2.7860925 0 0 1 5.8916149,4.2333331 2.7860925,2.7860925 0 0 1 5.4823536,5.687075 Z"
       style="fill:currentColor;stroke:none;stroke-width:0.381029;stroke-linecap:round;stroke-linejoin:round;stroke-miterlimit:4;stroke-dasharray:none"
       id="path1130" />
  </g>
</svg>
