<?xml version="1.0" encoding="UTF-8" standalone="no"?>
<svg
   xmlns:dc="http://purl.org/dc/elements/1.1/"
   xmlns:cc="http://creativecommons.org/ns#"
   xmlns:rdf="http://www.w3.org/1999/02/22-rdf-syntax-ns#"
   xmlns:svg="http://www.w3.org/2000/svg"
   xmlns="http://www.w3.org/2000/svg"
   width="32"
   height="32"
   viewBox="0 0 8.4666665 8.4666669"
   version="1.1"
   id="svg849">
  <defs
     id="defs843" />
  <metadata
     id="metadata846">
    <rdf:RDF>
      <cc:Work
         rdf:about="">
        <dc:format>image/svg+xml</dc:format>
        <dc:type
           rdf:resource="http://purl.org/dc/dcmitype/StillImage" />
        <dc:title></dc:title>
      </cc:Work>
    </rdf:RDF>
  </metadata>
  <g
     id="layer1">
    <path
       d="m 3.4876425,0.36147669 c -0.1004684,-2e-8 -0.1813843,0.0809157 -0.1813843,0.18138426 V 1.8879985 A 2.2767982,2.2767982 0 0 0 1.9564697,3.9674581 2.2767982,2.2767982 0 0 0 3.3062582,6.046401 v 1.7663003 c 0,0.1621716 0.1303173,0.2924887 0.2924884,0.2924887 H 4.86792 c 0.1621711,0 0.2924884,-0.1303171 0.2924884,-0.2924887 V 6.046401 A 2.2767982,2.2767982 0 0 0 6.5101969,3.9674581 2.2767982,2.2767982 0 0 0 5.1604084,1.8874817 V 0.54286095 c 0,-0.10046856 -0.080916,-0.18138426 -0.1813843,-0.18138426 z M 4.1992269,1.8740458 a 2.0934965,2.0934965 0 0 1 0.00982,0 2.0934965,2.0934965 0 0 1 0.024288,0 A 2.0934965,2.0934965 0 0 1 6.3267454,3.9674581 2.0934965,2.0934965 0 0 1 4.2333333,6.0608702 2.0934965,2.0934965 0 0 1 2.139921,3.9674581 2.0934965,2.0934965 0 0 1 4.1992269,1.8740458 Z m 0.034106,0.289388 A 1.8040729,1.8040729 0 0 0 2.4293091,3.9674581 1.8040729,1.8040729 0 0 0 4.2333333,5.7714822 1.8040729,1.8040729 0 0 0 6.0373574,3.9674581 1.8040729,1.8040729 0 0 0 4.2333329,2.1634338 Z m 0,0.1157553 c 0.066809,0 0.1209228,0.053597 0.1209228,0.1204061 v 0.4826579 c 0,0.066809 -0.054114,0.1204061 -0.1209228,0.1204061 -0.066809,0 -0.1209228,-0.053598 -0.1209228,-0.1204061 V 2.3995952 c 0,-0.066809 0.054114,-0.1204061 0.1209228,-0.1204061 z m 1.1348143,0.4506185 c 0.026305,0 0.052707,0.00982 0.072864,0.029972 0.040312,0.040312 0.040312,0.1054153 0,0.1457275 l -0.291455,0.2909385 c -0.040312,0.040312 -0.1048988,0.040312 -0.145211,0 -0.040312,-0.040311 -0.040312,-0.1048989 0,-0.1452111 L 5.295284,2.7597799 c 0.020156,-0.020156 0.04656,-0.029972 0.072863,-0.029972 z m -2.2623941,0.00672 c 0.026305,0 0.052708,0.010333 0.072864,0.030489 l 0.2909382,0.2909382 c 0.040312,0.040312 0.040312,0.1054153 0,0.1457275 -0.040312,0.040312 -0.1054153,0.040312 -0.1457275,0 L 3.0328899,2.9127421 c -0.040312,-0.040312 -0.040312,-0.1054152 0,-0.1457274 0.020156,-0.020156 0.04656,-0.030489 0.072864,-0.030489 z M 2.6654704,3.8465353 h 0.482658 c 0.066809,0 0.120406,0.054114 0.120406,0.1209228 0,0.066809 -0.053598,0.1209228 -0.120406,0.1209228 h -0.482658 c -0.066809,0 -0.1204061,-0.054114 -0.1204061,-0.1209228 0,-0.066809 0.053597,-0.1209228 0.1204061,-0.1209228 z m 2.6530678,0 h 0.482658 c 0.066809,0 0.120406,0.054114 0.120406,0.1209228 0,0.066809 -0.053597,0.1209228 -0.120406,0.1209228 h -0.482658 c -0.066809,0 -0.120406,-0.054114 -0.120406,-0.1209228 0,-0.066809 0.053598,-0.1209228 0.120406,-0.1209228 z M 5.0699746,4.7012635 c 0.026305,-2e-7 0.052707,0.00982 0.072864,0.029972 l 0.2909382,0.2909382 c 0.040312,0.040312 0.040312,0.1054153 0,0.1457275 -0.040312,0.040312 -0.1054153,0.040312 -0.1457275,0 L 4.997111,4.8769633 c -0.040312,-0.040312 -0.040312,-0.1054158 0,-0.1457275 0.020156,-0.020156 0.046559,-0.029973 0.072864,-0.029972 z m -1.6800007,0.00672 c 0.026305,0 0.052191,0.010333 0.072347,0.030489 0.040312,0.040311 0.040312,0.1048988 0,0.145211 l -0.2909385,0.291455 c -0.040312,0.040312 -0.1054153,0.040312 -0.1457275,0 -0.040312,-0.040312 -0.040312,-0.1054153 0,-0.1457275 l 0.291455,-0.2909385 c 0.020156,-0.020156 0.04656,-0.030489 0.072864,-0.030489 z m 0.8433594,0.2242757 c 0.066809,0 0.1209228,0.053598 0.1209228,0.120406 v 0.4826579 c 0,0.066809 -0.054114,0.1204061 -0.1209228,0.1204061 -0.066809,0 -0.1209228,-0.053597 -0.1209228,-0.1204061 V 5.052663 c 0,-0.066809 0.054114,-0.120406 0.1209228,-0.120406 z"
       style="fill:currentColor;stroke-width:0.561663;stroke-linecap:round;stroke-linejoin:round"
       id="path13999" />
    <g
       transform="translate(0.04090184,-0.0477187)"
       id="g14017" />
  </g>
</svg>
