<?xml version="1.0" encoding="UTF-8" standalone="no"?>
<svg
   xmlns:dc="http://purl.org/dc/elements/1.1/"
   xmlns:cc="http://creativecommons.org/ns#"
   xmlns:rdf="http://www.w3.org/1999/02/22-rdf-syntax-ns#"
   xmlns:svg="http://www.w3.org/2000/svg"
   xmlns="http://www.w3.org/2000/svg"
   width="300"
   height="300"
   viewBox="0 0 79.374998 79.375002"
   version="1.1"
   id="skull_open">
  <defs
     id="defs5154" />
  <metadata
     id="metadata5157">
    <rdf:RDF>
      <cc:Work
         rdf:about="">
        <dc:format>image/svg+xml</dc:format>
        <dc:type
           rdf:resource="http://purl.org/dc/dcmitype/StillImage" />
        <dc:title></dc:title>
      </cc:Work>
    </rdf:RDF>
  </metadata>
  <g
     id="layer1">
    <g
       id="g6131"
       transform="rotate(8.8439402,61.999681,86.544299)">
      <path
         style="fill:#2aff80"
         d="m 37.260271,55.609414 c 0.314874,-1.810322 4.779486,0.133961 5.629166,0.411538 2.055412,0.671469 7.549371,-6.186657 4.932443,3.408743 -2.616927,9.595403 -8.432321,14.102334 4.216162,12.5031 12.648483,-1.599235 17.882338,-5.233856 17.882338,-1.453849 0,3.780007 3.925393,7.560014 -2.762311,6.83309 -6.687706,-0.726927 -16.719261,-1.890004 -19.917727,-1.16308 -3.198468,0.726925 -15.079848,3.346857 -12.17215,-4.94008 2.907697,-8.286936 1.877204,-13.78914 2.192079,-15.599462 z"
         id="path6024" />
      <path
         style="fill:#2aff80;fill-opacity:1;stroke:none;stroke-width:0.264583;stroke-linecap:butt;stroke-linejoin:miter;stroke-miterlimit:4;stroke-dasharray:none;stroke-opacity:1"
         d="m 67.12108,65.520549 c 0.227131,0.0013 0.07586,0.169165 0.318401,0.169165 0.242546,0 0.0852,-0.15171 0.424766,-0.15171 0.339565,0 0.2556,0.152947 0.449637,0.152947 0.194037,0 0.264381,-0.08549 0.439056,-0.104438 0.209713,-0.02275 0.838402,-0.138253 0.380656,0.981313 -0.181739,0.444499 -0.258074,0.736984 -0.258074,0.97953 0,0.289819 -0.201091,1.174451 -0.343964,0.710875 -0.331456,-1.075456 -1.220006,-1.019528 -1.424078,0.02364 -0.0922,0.471284 -0.393164,-0.170401 -0.393164,-0.752512 0,-0.582112 0.04884,-0.607043 -0.03477,-0.921532 -0.303565,-1.141966 0.171522,-1.088839 0.441529,-1.087275 z"
         id="path6026" />
      <path
         style="fill:#2aff80;fill-opacity:1;stroke:none;stroke-width:0.264583;stroke-linecap:butt;stroke-linejoin:miter;stroke-miterlimit:4;stroke-dasharray:none;stroke-opacity:1"
         d="m 65.143912,65.788593 c -0.225399,0.02803 -0.05542,0.17692 -0.296272,0.205473 -0.240859,0.02855 -0.102468,-0.140625 -0.439672,-0.10065 -0.337204,0.03998 -0.235817,0.181974 -0.428505,0.204818 -0.192688,0.02284 -0.272607,-0.05377 -0.448298,-0.05202 -0.210933,0.0021 -0.848848,-0.03859 -0.262484,1.019302 0.232804,0.420012 0.343041,0.701477 0.371595,0.942336 0.03412,0.287804 0.337955,1.142611 0.42526,0.665439 0.202543,-1.106998 1.091498,-1.156064 1.416959,-0.144174 0.14704,0.457152 0.370369,-0.215502 0.30184,-0.793565 C 65.715805,67.157488 65.66437,67.13848 65.710375,66.816335 65.87739,65.646573 65.411861,65.75526 65.143916,65.7886 Z"
         id="path6028" />
      <path
         style="fill:#2aff80;fill-opacity:1;stroke:none;stroke-width:0.264583;stroke-linecap:butt;stroke-linejoin:miter;stroke-miterlimit:4;stroke-dasharray:none;stroke-opacity:1"
         d="m 60.316067,67.065483 c 0.207587,-0.09219 0.138691,0.123028 0.359794,0.02333 0.221107,-0.0997 0.0153,-0.173322 0.324855,-0.312907 0.30955,-0.139584 0.295878,0.03436 0.472765,-0.0454 0.176886,-0.07976 0.205869,-0.186611 0.357315,-0.275687 0.181824,-0.106944 0.707461,-0.470671 0.750392,0.738095 0.01704,0.479915 0.06769,0.777925 0.16739,0.999031 0.119139,0.264199 0.299457,1.153299 -0.02134,0.78943 -0.744239,-0.844142 -1.531257,-0.427905 -1.28848,0.60694 0.109682,0.467524 -0.428456,0.0063 -0.667742,-0.524378 -0.239284,-0.530657 -0.205013,-0.57346 -0.410507,-0.825781 -0.746155,-0.916237 -0.291225,-1.063099 -0.04444,-1.172664 z"
         id="path6030" />
      <path
         style="fill:#2aff80;fill-opacity:1;stroke:none;stroke-width:0.264583;stroke-linecap:butt;stroke-linejoin:miter;stroke-miterlimit:4;stroke-dasharray:none;stroke-opacity:1"
         d="m 58.921462,67.320138 c -0.220289,0.05536 -0.03338,0.182368 -0.268964,0.240115 -0.235569,0.05774 -0.118871,-0.12706 -0.448671,-0.04621 -0.329799,0.08086 -0.21183,0.209408 -0.400288,0.255611 -0.188452,0.04622 -0.277133,-0.02008 -0.451294,0.0031 -0.209097,0.02784 -0.847207,0.06536 -0.136049,1.043727 0.282352,0.38844 0.426136,0.654336 0.483889,0.889906 0.06902,0.28148 0.474958,1.092789 0.503338,0.608526 0.06585,-1.123446 0.942154,-1.280702 1.388747,-0.316132 0.201767,0.435773 0.341282,-0.259118 0.202674,-0.824486 -0.138603,-0.565362 -0.191979,-0.577946 -0.185613,-0.903307 0.02296,-1.181402 -0.425856,-1.01668 -0.687725,-0.950869 z"
         id="path6032" />
      <path
         style="fill:#2aff80;fill-opacity:1;stroke:none;stroke-width:0.264583;stroke-linecap:butt;stroke-linejoin:miter;stroke-miterlimit:4;stroke-dasharray:none;stroke-opacity:1"
         d="m 54.193214,68.412797 c 0.225252,-0.02919 0.09787,0.157457 0.338219,0.124915 0.240353,-0.03254 0.06407,-0.16177 0.40057,-0.20733 0.336495,-0.04556 0.27381,0.11727 0.466093,0.09124 0.192282,-0.02603 0.25052,-0.120189 0.421073,-0.162402 0.204765,-0.05068 0.812272,-0.249492 0.508878,0.921367 -0.120457,0.464864 -0.156859,0.764947 -0.124316,1.0053 0.03889,0.287198 -0.0417,1.190812 -0.245476,0.750597 -0.472753,-1.02126 -1.345765,-0.84662 -1.40803,0.214496 -0.02813,0.479393 -0.412471,-0.116109 -0.490574,-0.692957 -0.0781,-0.576848 -0.03305,-0.608107 -0.158098,-0.908534 -0.454039,-1.090911 0.02388,-1.102008 0.291656,-1.136685 z"
         id="path6034" />
      <path
         style="fill:#2aff80;fill-opacity:1;stroke:none;stroke-width:0.264583;stroke-linecap:butt;stroke-linejoin:miter;stroke-miterlimit:4;stroke-dasharray:none;stroke-opacity:1"
         d="m 52.285094,68.857713 c -0.227132,-0.0014 -0.07784,0.168266 -0.320361,0.165424 -0.242529,-0.0028 -0.08342,-0.152698 -0.422959,-0.156677 -0.339542,-0.004 -0.257374,0.149941 -0.451398,0.147669 -0.194024,-0.0023 -0.263361,-0.08858 -0.437803,-0.10957 -0.209432,-0.0252 -0.836726,-0.148064 -0.392127,0.976787 0.176519,0.446597 0.249423,0.739956 0.246582,0.982485 -0.0034,0.289801 0.187318,1.176726 0.335612,0.714856 0.344037,-1.071497 1.231866,-1.005165 1.423704,0.04032 0.08667,0.472331 0.395133,-0.165784 0.401952,-0.747855 0.0068,-0.582072 -0.04172,-0.607573 0.04556,-0.921061 0.316963,-1.13832 -0.158755,-1.090774 -0.428762,-1.092373 z"
         id="path6036" />
    </g>
    <g
       id="g6122"
       transform="rotate(-20.80055,33.833705,42.368911)">
      <path
         id="path6060"
         style="fill:#2aff80;fill-opacity:1"
         d="m 65.963212,52.3045 c 2.534039,2.046562 3.504311,3.489221 1.738417,4.149474 -2.679342,1.001784 -9.926904,4.744799 -16.286532,5.46177 -4.497108,0.506994 -2.371282,-2.405153 -1.973892,-4.432414 1.705167,-8.69881 -2.209468,-4.296569 -5.994452,-4.109581 -2.42317,0.119711 -7.301606,-3.457369 -7.193202,0.519367 0.213629,7.836852 -2.733064,4.143028 -13.552808,1.70005 C 15.361644,53.936079 21.550562,45.841779 17.067402,44.902874 9.6943645,43.358745 8.3099747,37.272719 8.3099747,29.180564 8.3099747,15.972086 15.735847,7.9635177 28.216356,3.6390788 40.75088,-0.7040754 62.65858,2.7895249 63.623429,21.908749 c 0.04009,0.79438 1.033451,1.942054 0.739929,2.565152 -0.545515,1.158036 -1.167646,1.743723 -1.75838,-0.22107 -2.1046,-6.99994 -7.784446,-10.907535 -14.378082,-5.605515 -6.593636,5.302021 -5.384974,20.31877 0.657449,24.160734 7.095865,4.296327 9.31918,0.623604 13.007362,-6.010751 3.408197,-6.130714 2.554661,-5.356754 2.282563,2.265372 -0.272098,7.622125 2.822161,3.066796 2.822161,3.066796 -1.110491,4.301686 -3.85491,3.721771 -4.540514,-2.500067 -1.052442,9.096209 0.640518,10.253059 3.507295,12.6751 z" />
      <path
         style="fill:#2aff80;fill-opacity:1;stroke:none;stroke-width:0.264583;stroke-linecap:butt;stroke-linejoin:miter;stroke-miterlimit:4;stroke-dasharray:none;stroke-opacity:1"
         d="m 62.487462,62.355004 c 0.204357,-0.09915 -0.0045,-0.185338 0.214274,-0.28997 0.218815,-0.104634 0.142317,0.100109 0.448656,-0.04637 0.30635,-0.146485 0.16462,-0.248246 0.339668,-0.331954 0.175059,-0.0837 0.275392,-0.03692 0.44116,-0.09518 0.199009,-0.06994 0.816013,-0.236954 -0.07992,-1.049519 -0.355714,-0.32261 -0.55075,-0.553549 -0.655383,-0.772364 -0.125029,-0.261466 -0.688071,-0.9728 -0.616979,-0.492943 0.164918,1.113225 -0.660835,1.446083 -1.294951,0.593009 -0.286491,-0.385401 -0.281189,0.323338 -0.03007,0.848498 0.251116,0.52516 0.305936,0.526583 0.36617,0.846372 0.218777,1.161197 0.624464,0.908319 0.867381,0.790429 z"
         id="path6044" />
      <path
         style="fill:#2aff80;fill-opacity:1;stroke:none;stroke-width:0.264583;stroke-linecap:butt;stroke-linejoin:miter;stroke-miterlimit:4;stroke-dasharray:none;stroke-opacity:1"
         d="m 69.905481,59.166814 c -0.197011,0.113043 -0.150613,-0.108113 -0.360288,0.01381 -0.209674,0.121916 0.0021,0.174005 -0.290962,0.344652 -0.293559,0.170668 -0.297835,-0.0038 -0.465589,0.09378 -0.167746,0.09753 -0.185582,0.20679 -0.327076,0.310965 -0.169866,0.125068 -0.655312,0.540921 -0.822308,-0.657022 -0.06631,-0.475616 -0.147293,-0.766845 -0.269221,-0.976524 -0.145673,-0.250551 -0.416472,-1.11639 -0.05996,-0.78744 0.827097,0.763138 1.567138,0.26818 1.219235,-0.736215 -0.157175,-0.453767 0.425543,-0.0503 0.718127,0.452936 0.292583,0.503239 0.262888,0.54934 0.493244,0.779192 0.836417,0.834655 0.398996,1.027519 0.16484,1.161875 z"
         id="path6046" />
      <path
         style="fill:#2aff80;fill-opacity:1;stroke:none;stroke-width:0.264583;stroke-linecap:butt;stroke-linejoin:miter;stroke-miterlimit:4;stroke-dasharray:none;stroke-opacity:1"
         d="m 65.476357,61.246054 c 0.203189,-0.101527 -0.0066,-0.185289 0.2109,-0.292438 0.217602,-0.107136 0.143456,0.09846 0.448084,-0.05156 0.304631,-0.150021 0.161721,-0.25014 0.335797,-0.335876 0.174046,-0.08577 0.274942,-0.04011 0.440013,-0.100297 0.198186,-0.07225 0.813221,-0.246405 -0.09209,-1.048519 -0.359433,-0.318459 -0.557137,-0.547127 -0.664302,-0.764712 -0.127962,-0.260031 -0.699304,-0.964751 -0.62265,-0.485757 0.177821,1.111239 -0.64401,1.453652 -1.287975,0.608007 -0.290938,-0.382052 -0.277442,0.326566 -0.02023,0.848791 0.257177,0.522217 0.31202,0.523001 0.375965,0.84207 0.232225,1.158579 0.634951,0.901013 0.876487,0.780313 z"
         id="path6048" />
      <path
         style="fill:#2aff80;fill-opacity:1;stroke:none;stroke-width:0.264583;stroke-linecap:butt;stroke-linejoin:miter;stroke-miterlimit:4;stroke-dasharray:none;stroke-opacity:1"
         d="m 59.274115,63.370211 c 0.215809,-0.07084 0.01998,-0.184328 0.251239,-0.2586 0.230876,-0.07433 0.127587,0.118308 0.450819,0.01424 0.323232,-0.104058 0.196439,-0.223915 0.381132,-0.283382 0.184702,-0.05946 0.277862,3.57e-4 0.449937,-0.03513 0.206601,-0.04261 0.84043,-0.125327 0.06167,-1.050744 -0.30921,-0.367419 -0.471506,-0.622441 -0.545835,-0.853317 -0.08881,-0.275876 -0.551325,-1.056319 -0.545258,-0.571264 0.01407,1.125287 -0.848874,1.344343 -1.362808,0.413902 -0.232178,-0.420355 -0.322024,0.282687 -0.143651,0.83679 0.178393,0.554104 0.232519,0.56287 0.24931,0.88785 0.06099,1.180049 0.49694,0.98389 0.753473,0.899658 z"
         id="path6052" />
      <path
         style="fill:#2aff80;fill-opacity:1;stroke:none;stroke-width:0.264583;stroke-linecap:butt;stroke-linejoin:miter;stroke-miterlimit:4;stroke-dasharray:none;stroke-opacity:1"
         d="m 56.955341,64.164032 c -0.224857,0.0321 -0.09989,-0.156198 -0.339787,-0.120579 -0.239925,0.03557 -0.06202,0.162572 -0.397892,0.212436 -0.335879,0.04988 -0.275288,-0.113754 -0.467216,-0.08526 -0.19193,0.02852 -0.248966,0.123382 -0.418968,0.167769 -0.204096,0.05329 -0.809016,0.259863 -0.520621,-0.914778 0.1145,-0.466368 0.147052,-0.766894 0.111447,-1.006807 -0.04256,-0.286679 0.02645,-1.191249 0.235857,-0.753675 0.48579,1.015128 1.35649,0.829333 1.405175,-0.232491 0.02199,-0.479715 0.413919,0.110825 0.499396,0.686623 0.08546,0.575806 0.04083,0.607633 0.16971,0.90644 0.467999,1.084995 -0.0098,1.102219 -0.277097,1.140319 z"
         id="path6054" />
      <path
         style="fill:#2aff80;fill-opacity:1;stroke:none;stroke-width:0.264583;stroke-linecap:butt;stroke-linejoin:miter;stroke-miterlimit:4;stroke-dasharray:none;stroke-opacity:1"
         d="m 51.988468,65.119343 c 0.226784,-0.01268 0.06693,-0.172907 0.309523,-0.184906 0.242241,-0.01216 0.09269,0.147256 0.43184,0.130247 0.339133,-0.01702 0.247613,-0.165562 0.441399,-0.175291 0.193798,-0.0097 0.268335,0.07214 0.443736,0.08231 0.210596,0.01222 0.844284,0.09608 0.331058,-0.999133 -0.203779,-0.434835 -0.294666,-0.723126 -0.306818,-0.965368 -0.01453,-0.289458 -0.259692,-1.162902 -0.379156,-0.69275 -0.27715,1.090714 -1.167391,1.079373 -1.423475,0.04774 -0.115688,-0.466071 -0.384128,0.189887 -0.354977,0.771262 0.02917,0.581381 0.07919,0.603834 0.01145,0.922118 -0.245971,1.155739 0.225859,1.078878 0.495454,1.06379 z"
         id="path6056" />
    </g>
  </g>
</svg>
