<?xml version="1.0" encoding="UTF-8" standalone="no"?>
<svg
   xmlns:dc="http://purl.org/dc/elements/1.1/"
   xmlns:cc="http://creativecommons.org/ns#"
   xmlns:rdf="http://www.w3.org/1999/02/22-rdf-syntax-ns#"
   xmlns:svg="http://www.w3.org/2000/svg"
   xmlns="http://www.w3.org/2000/svg"
   version="1.1"
   x="0px"
   y="0px"
   viewBox="0 0 300 300"
   style="enable-background:new 0 0 300 300;"
   xml:space="preserve"
   id="svg108"><metadata
   id="metadata114"><rdf:RDF><cc:Work
       rdf:about=""><dc:format>image/svg+xml</dc:format><dc:type
         rdf:resource="http://purl.org/dc/dcmitype/StillImage" /><dc:title></dc:title></cc:Work></rdf:RDF></metadata><defs
   id="defs112" />
<style
   type="text/css"
   id="style10">
	.st0{fill:#8AB290;}
	.st1{fill:#6F9E74;}
	.st2{fill:#FFD6AE;}
	.st3{fill:#FFBC92;}
	.st4{fill:#FFCC95;}
	.st5{fill:#0055D4;stroke:#FFFFFF;stroke-width:10.3227;stroke-linecap:round;stroke-linejoin:round;stroke-miterlimit:31.2586;}
	
		.st6{fill-rule:evenodd;clip-rule:evenodd;fill:#0055D4;stroke:#00CED4;stroke-width:0.827;stroke-linecap:round;stroke-miterlimit:31.2586;}
	.st7{fill:#F4A67A;}
	.st8{fill:#F2B368;}
	.st9{fill:none;stroke:#FFBC92;stroke-width:0.172;stroke-linecap:round;}
	.st10{opacity:0.77;fill:#D38E5F;}
	.st11{opacity:0.4;fill:#BF853A;enable-background:new    ;}
	.st12{opacity:0.77;fill:#B75818;}
	.st13{opacity:0.77;fill:#CEA395;}
	.st14{opacity:0.58;fill:#A58772;}
	.st15{opacity:0.78;fill:#C9C9E2;}
	.st16{opacity:0.56;fill:#91674A;}
	.st17{opacity:0.56;fill:#B25618;}
	.st18{opacity:0.56;fill:#C9C9E2;}
	.st19{opacity:0.69;enable-background:new    ;}
	
		.st20{opacity:0.63;fill:none;stroke:#E897CD;stroke-width:5;stroke-linecap:round;stroke-linejoin:round;stroke-miterlimit:15.1181;}
	.st21{fill:#FFC950;}
</style>




<g
   id="layer2"
   style="display:inline"><g
     id="Background"><defs
       id="defs21" /><circle
       id="circle24"
       r="147.2"
       cy="150"
       cx="150"
       class="st0" /><circle
       id="circle26"
       r="141"
       cy="147.5"
       cx="153.10001"
       class="st1" /></g></g><g
   id="layer1"
   style="display:inline"><path
     d="m 225.8,138.09911 c 4.9,0 8.9,7.3 8.9,16.3 0,7 -2.4,13.2 -6.1,15.4 0.3,1.5 0.4,3.1 0.4,4.7 0,7.2 -2.9,13 -6.6,13 -3.6,0 -6.6,-5.8 -6.6,-13 0,-4.1 1,-8 2.7,-10.5 -1.1,-2.8 -1.7,-6.2 -1.7,-9.6 0.1,-9 4.1,-16.3 9,-16.3 z"
     class="st3"
     id="path5026"
     style="display:inline;fill:#ffbc92" /><path
     d="m 67.225618,137.60398 c -5.2,0 -9.4,7.7 -9.4,17.2 0,7.4 2.6,13.9 6.4,16.3 -0.3,1.6 -0.5,3.2 -0.5,4.9 0,7.6 3.1,13.7 6.9,13.7 3.8,0 6.9,-6.2 6.9,-13.7 0,-4.4 -1.1,-8.5 -2.8,-11 1.2,-2.9 1.8,-6.5 1.8,-10.1 0.1,-9.6 -4.1,-17.3 -9.3,-17.3 z"
     class="st3"
     id="path4995"
     style="display:inline;fill:#ffbc92" /><path
     style="display:inline;fill:#ffcc95;stroke-width:6.89837"
     d="m 75.036113,156.78008 c -2.201511,19.96968 -3.16394,38.85551 -0.901452,67.1283 2.346506,9.7525 18.743197,39.33554 28.056579,44.61875 4.96287,4.91162 8.38916,3.04181 13.23003,4.79879 8.1321,4.73647 13.22119,4.17269 20.00378,6.31487 9.15484,2.1379 13.5416,0.79017 22.22483,-0.84632 7.97041,-1.39829 14.90301,-5.92285 19.98719,-8.30891 9.56927,-3.50269 15.81256,-6.83647 22.77231,-14.43012 7.97576,-7.16768 12.17929,-51.00018 18.26582,-76.49791 -0.92294,-10.3869 1.11657,-19.15677 0.18944,-29.54134 2.79382,-13.21757 2.62166,-28.05415 5.41169,-41.27024 C 216.60601,98.218998 208.9314,87.690565 201.25583,77.165218 174.53881,74.279256 147.81906,71.394778 121.09758,68.511894 101.9904,67.656036 97.589209,67.901235 77.861688,86.173653 75.124657,106.74632 77.776806,136.20767 75.036113,156.78008 Z"
     class="st4"
     id="path10" /><circle
     id="path5032"
     class="st5"
     cx="106.25901"
     cy="153.40784"
     r="13.027949"
     style="display:inline;fill:#ffffff;stroke:none;stroke-width:12.5082;stroke-linecap:round;stroke-linejoin:round;stroke-miterlimit:31.2586" /><circle
     id="circle5038"
     class="st5"
     cx="184.76869"
     cy="152.83876"
     r="13.027949"
     style="display:inline;fill:#ffffff;stroke:none;stroke-width:12.5082;stroke-linecap:round;stroke-linejoin:round;stroke-miterlimit:31.2586" /><g
     id="path5044"
     style="display:inline"
     transform="translate(0,8.799107)"><path
       id="path39"
       d="m 106.62479,222.20846 c 0.0708,-0.78668 0.33944,-3.76917 1.02738,-6.55376 0.68794,-2.78459 1.9503,-5.79956 3.57311,-8.25509 1.62281,-2.45552 3.79041,-4.68775 6.06514,-6.51819 2.27474,-1.83045 4.81232,-3.40789 6.17643,-4.11431 1.3641,-0.70641 1.41315,-0.72711 1.40411,-0.71939 -0.009,0.008 -0.009,0.008 -1.15725,0.97246 -1.14823,0.96474 -3.47375,2.88622 -5.4691,4.90192 -1.99535,2.0157 -3.81447,4.26682 -5.15741,6.55745 -1.34294,2.29063 -2.3896,4.89774 -3.39504,7.64043 -1.00544,2.7427 -1.95357,5.59387 -2.49824,7.02305 -0.54467,1.42919 -0.57178,1.49201 -0.5733,1.4833 -0.002,-0.009 -0.003,-0.0494 -0.0349,-0.84032 -0.0318,-0.79087 -0.0317,-0.79087 0.0391,-1.57755 z"
       class="st7" /></g><g
     id="path5044_3_"
     style="display:inline"
     transform="translate(0,8.799107)"><path
       id="path42"
       d="m 180.19707,219.51205 c -0.63403,0.46991 -3.09002,2.29015 -5.7351,3.8905 -2.64509,1.60036 -5.42437,2.94324 -8.24983,4.01842 -2.82546,1.07518 -5.71876,1.89872 -8.58736,2.55056 -2.8686,0.65184 -5.73862,1.14349 -7.88253,1.48015 -2.1439,0.33666 -3.64193,0.55062 -4.34338,0.63698 -0.70145,0.0864 -5.12651,0.5443 -6.84326,0.54507 -1.71676,7.7e-4 -4.81372,-0.31342 -9.29672,-0.96337 -4.48301,-0.64994 -10.20904,-1.73224 -13.07994,-2.31956 -2.87091,-0.58732 -2.87091,-0.58732 -2.89778,-0.61465 -0.0269,-0.0273 -0.12942,-0.27842 -0.14095,-0.34095 -0.0115,-0.0625 0.16284,-0.10033 1.66676,-0.2815 1.50392,-0.18117 4.49773,-0.2639 7.49506,-0.32926 2.99733,-0.0654 5.89682,-0.11169 8.73092,-0.25662 2.83409,-0.14493 5.71539,-0.39395 6.86951,-0.59348 1.15411,-0.19952 9.69486,-2.44451 11.10463,-2.80739 1.40978,-0.36289 4.35177,-1.10418 7.1398,-1.72002 2.78804,-0.61584 5.66164,-1.1624 8.45116,-1.6717 2.78952,-0.5093 5.59096,-0.99947 8.3875,-1.51104 2.79654,-0.51156 5.62881,-1.05225 7.249,-1.23491 1.62019,-0.18265 1.87898,-0.19177 1.88763,-0.18765 0.009,0.004 -0.14813,0.15325 -0.7196,0.69686 -0.57148,0.5436 -0.57148,0.54365 -1.20552,1.01356 z"
       class="st8" /></g><g
     id="path5048"
     style="display:inline"
     transform="translate(0,8.799107)"><path
       id="path45"
       d="m 184.04071,216.57153 c -0.74577,-1.60165 -2.10384,-4.77543 -3.47281,-7.91988 -1.36898,-3.14445 -2.69393,-6.13621 -4.33977,-8.83783 -1.64584,-2.70161 -3.754,-5.31561 -6.06573,-7.45935 -2.31172,-2.14373 -5.12802,-4.0899 -6.58136,-5.07786 -1.45333,-0.98796 -1.51794,-1.03116 -1.52949,-1.03889 -0.0115,-0.008 0.032,0.007 1.63472,0.70816 1.60268,0.70077 4.6029,2.30546 7.2465,4.31018 2.64359,2.00472 5.23565,4.71802 7.13814,7.51909 1.90249,2.80108 3.39696,6.04794 4.44406,9.24286 1.0471,3.19493 1.74177,6.57192 2.00779,8.3205 0.26601,1.74857 0.271,1.79876 0.27724,1.86149 -0.27073,-0.53697 -0.0135,-0.0268 -0.75929,-1.62847 z"
       class="st7" /></g><g
     id="path5075"
     style="display:inline"
     transform="translate(0,8.799107)"><path
       id="path50"
       d="m 104.20696,213.98626 c -0.093,-0.41375 -0.25458,-1.22144 -0.30277,-1.99793 -0.0482,-0.77649 0.0122,-1.5719 0.2974,-2.62606 0.2852,-1.05416 1.08262,-2.69522 2.02304,-3.97414 0.94041,-1.27892 2.18037,-2.44448 3.43823,-3.34769 1.25785,-0.9032 2.59752,-1.62179 3.32207,-1.90228 0.72454,-0.28049 0.79039,-0.29699 0.78252,-0.28689 -0.008,0.0101 -0.008,0.0101 -0.58708,0.57987 -0.5792,0.56977 -1.67745,1.58561 -2.64306,2.66625 -0.96562,1.08063 -1.80627,2.2252 -2.39963,3.32035 -0.59336,1.09516 -1.09931,2.43617 -1.4908,3.42873 -0.3915,0.99255 -0.68146,1.69669 -1.01418,2.3969 -0.33272,0.7002 -0.71662,1.40892 -0.96947,1.73305 -0.25286,0.32412 -0.30804,0.37385 -0.36323,0.42358 -0.0343,-0.13725 0,0 -0.093,-0.41374 z"
       class="st7" /></g><g
     id="path5075_1_"
     style="display:inline"
     transform="translate(0,8.799107)"><path
       id="path53"
       d="m 151.12312,118.51246 c -0.39578,-0.3633 -1.15871,-1.1869 -1.64185,-1.99772 -0.48314,-0.81082 -0.83645,-1.86118 -0.96346,-2.87189 -0.12701,-1.01071 -0.039,-2.21145 0.16354,-3.19206 0.20253,-0.98061 0.52361,-1.90949 0.75764,-2.40795 0.23403,-0.49845 0.15661,-0.3711 0.26101,-0.54284 0,0 0.1,0.1 0.1,0.1 -0.0995,0.99894 -0.20026,2.01104 -0.20171,2.99329 -0.001,0.98226 0.086,1.88256 0.28633,2.75456 0.2003,0.872 0.50726,1.70396 0.81077,2.60585 0.3035,0.90189 0.5793,1.80714 0.71696,2.37672 0.13765,0.56958 0.13765,0.56958 0.1221,0.55746 -0.0156,-0.0121 -0.0156,-0.0121 -0.41133,-0.37542 z"
       class="st7" /></g><g
     id="path5075_3_"
     style="display:inline"
     transform="translate(0,8.799107)"><path
       id="path56"
       d="m 139.64155,110.06117 c 0.37196,0.53675 1.0339,1.65307 1.46855,2.75522 0.43465,1.10215 0.7099,2.36519 0.76638,3.59498 0.0565,1.22979 -0.11627,2.63325 -0.42305,3.80495 -0.30678,1.1717 -0.7801,2.32769 -1.03342,2.90568 -0.25331,0.578 -0.28668,0.578 -0.32001,0.578 0.006,-0.0321 0.0184,-0.0965 0.12875,-0.70429 0.11036,-0.6078 0.32402,-1.84625 0.40523,-3.01517 0.0812,-1.16893 0.0452,-2.27074 -0.10902,-3.39093 -0.15424,-1.12018 -0.44679,-2.31406 -0.68612,-3.46646 -0.23933,-1.1524 -0.4462,-2.36348 -0.51752,-2.99332 C 139.25,109.5 139.25,109.5 139.2598,109.51221 c 0.01,0.0122 0.01,0.0122 0.38175,0.54896 z"
       class="st7" /></g><path
     d="m 78.035155,137.94719 13.626959,-9.13066 43.951736,-4.51403 -15.06642,12.20841 z"
     class="st11"
     id="path5071_1_"
     style="opacity:0.7;fill:#d26f43;fill-opacity:1;stroke-width:0.992;stroke-miterlimit:15.1181;stroke-dasharray:none" /><path
     d="m 153.33457,120.54296 12.47538,11.90064 42.9921,12.92655 -13.62696,-15.38875 z"
     class="st11"
     id="path5073_1_"
     style="opacity:0.7;fill:#d26f43;fill-opacity:1;stroke-width:0.992;stroke-miterlimit:15.1181;stroke-dasharray:none" /><path
     id="path62"
     d="m 111.94112,228.16649 c -3.64665,3.79589 -6.14173,6.36068 -6.2377,10.25916 0,0.82074 -0.096,3.28294 1.05561,4.61663 2.01526,2.15442 5.27805,-1.33369 12.85925,-4.00108 4.12647,-1.43628 7.10137,-2.4622 10.93995,-2.05183 4.70226,0.51296 5.56594,2.66738 9.11663,2.05183 3.93454,-0.61555 3.93454,-3.28293 8.44487,-5.02699 4.51033,-1.64146 5.27805,0.61555 12.37942,-0.30777 4.03051,-0.51296 3.74262,-1.2311 9.30856,-2.05184 3.35876,-0.51295 5.75787,-0.82073 8.9247,-0.41036 3.45472,0.41036 4.3184,1.33369 4.70226,0.71814 1.43947,-2.35961 -6.90945,-20.21056 -16.40993,-20.00538 -4.3184,0.1026 -5.27805,3.7959 -14.8745,6.87365 -2.49508,0.82073 -4.99015,1.53887 -8.34891,1.74405 -5.85383,0.30778 -6.90944,-1.53887 -12.95521,-1.43628 -2.49507,0.10259 -5.85383,0.20518 -9.9803,2.05183 -4.12648,1.94925 -6.71752,4.71922 -8.9247,6.97624 z"
     class="st10"
     style="stroke-width:0.992228" /><path
     id="path66"
     d="m 113.18866,225.08874 c -3.64666,3.79589 -6.14173,6.36068 -6.2377,10.25916 0,0.82074 -0.096,3.28294 1.05561,4.61663 2.01526,2.15442 5.27805,-1.33369 12.85925,-4.00108 4.12647,-1.43628 7.10137,-2.4622 10.93995,-2.05183 4.70226,0.51296 5.56594,2.66738 9.11663,2.05183 3.93454,-0.61555 3.93454,-3.28293 8.44487,-5.02699 4.51033,-1.64146 5.27805,0.61555 12.37942,-0.30777 4.03051,-0.51296 3.74262,-1.2311 9.30856,-2.05184 3.35876,-0.51295 5.75787,-0.82073 8.9247,-0.41036 3.45472,0.41036 4.3184,1.33369 4.70226,0.71814 1.43946,-2.35961 -6.90945,-20.21056 -16.40993,-20.00538 -4.31841,0.1026 -5.27805,3.7959 -14.8745,6.87365 -2.49508,0.82073 -4.99015,1.53887 -8.34891,1.74405 -5.85384,0.30778 -6.90945,-1.53887 -12.95521,-1.43628 -2.49508,0.10259 -5.85383,0.20518 -9.98031,2.05183 -4.03051,1.94925 -6.62155,4.61663 -8.92469,6.97624 z"
     class="st12"
     style="stroke-width:0.992228" /><path
     id="path68"
     d="m 172.20682,212.36737 c -0.096,-0.10259 -0.096,-0.10259 -0.19193,-0.20518 -0.096,-0.10259 -0.28789,-0.20519 -0.38386,-0.30778 -0.19192,-0.10259 -0.28789,-0.20518 -0.47982,-0.20518 -0.096,0 -0.096,0 -0.19193,-0.10259 -0.38385,-0.10259 -0.76771,-0.20519 -1.15157,-0.30778 0,0 -0.096,0 -0.096,0 -0.19192,0 -0.47982,0 -0.67175,0 -0.47982,0 -0.86368,0 -1.3435,0.10259 0.096,0 0.19193,0 0.28789,0 0.19193,0 0.2879,0 0,0 -0.096,0 -0.19193,0 -0.28789,0 -0.19193,0 -0.38386,0.1026 -0.67175,0.20519 -0.096,0 -0.19193,0 -0.28789,0.10259 0,0 0,0 -0.096,0 -0.096,0 -0.19193,0.10259 -0.28789,0.10259 -0.096,0.10259 -0.19193,0.10259 -0.38386,0.20518 -0.19193,0.30778 -0.38386,0.51296 -0.57579,0.71815 -0.096,0.51295 -0.096,1.1285 -0.28789,1.64146 -0.38386,1.74406 -0.28789,2.87257 -0.38386,6.1555 -0.19193,5.64254 -0.57579,5.95032 -0.28789,8.51511 0,0.30778 0,0.71814 -0.096,1.12851 1.91929,-0.51296 3.93455,-1.2311 5.85384,-1.64147 1.43946,-0.30777 2.87893,-0.61555 4.3184,-0.71814 0.096,-4.30885 -0.86368,-11.0799 -2.11122,-15.28616 -0.096,0.10259 -0.096,0 -0.19193,-0.10259 z"
     class="st13"
     style="stroke-width:0.992228" /><path
     id="path70"
     d="m 129.59858,217.08659 c -0.38385,0.10259 -0.76771,0.20518 -1.05561,0.30777 -0.096,0.30778 -0.19192,0.61555 -0.28789,1.02592 -0.096,0.30777 -0.19193,1.12851 -0.28789,2.15442 -0.096,1.2311 -0.096,2.05184 -0.096,4.30885 0,3.89849 -0.19193,4.20626 -0.096,5.95032 0,0.82073 0.096,2.15443 0.28789,3.07775 1.05561,-0.10259 2.20719,-0.10259 3.2628,0.10259 0.28789,-2.4622 -0.86369,-13.13173 -1.53544,-16.20948 0,-0.20518 -0.096,-0.51296 -0.19193,-0.71814 z"
     class="st13"
     style="stroke-width:0.992228" /><path
     id="path72"
     d="m 125.85597,218.31769 c -0.47982,0.20518 -0.95965,0.41036 -1.3435,0.61555 -0.096,0.41036 -0.2879,1.12851 -0.47983,2.15442 -0.28789,1.33369 -0.28789,2.15443 -0.67175,4.61663 -0.57578,4.20626 -0.67175,4.41144 -0.86368,6.36068 -0.096,0.92333 -0.19193,2.4622 -0.096,3.38553 0.95964,-0.41037 1.91929,-0.71815 2.87893,-0.92333 0,0 0.096,0 0.096,0 0.38385,-4.00107 0.57578,-13.23432 0.47982,-16.20948 0,0 0,0 0,0 z"
     class="st13"
     style="stroke-width:0.992228" /><path
     id="path74"
     d="m 222.55769,172.11022 c -0.67175,1.2311 -2.68701,1.33369 -3.83858,1.12851 -2.78297,-0.41037 -4.51033,-3.07775 -7.5812,-7.89956 -1.15157,-1.74406 -1.72736,-2.56479 -1.82332,-3.28294 -0.86368,-4.10366 3.45472,-6.25809 4.79822,-11.0799 1.15158,-4.00107 -1.05561,-5.12958 -3.07086,-14.26024 -2.39911,-10.97731 0.096,-12.72137 -2.78297,-17.85095 -2.87894,-5.23217 -5.56594,-3.6933 -9.78838,-10.05398 -3.74262,-5.64255 -4.6063,-11.490273 -4.89419,-13.439515 -0.67175,-5.129583 0.67175,-5.129583 0.38386,-12.311 -0.38386,-7.591784 -1.91929,-9.643617 -0.38386,-12.618776 1.53543,-2.872566 4.99015,-4.719216 8.06102,-4.514033 1.82332,0.102592 3.45472,1.025917 8.73277,6.77105 5.37401,5.847725 8.06102,8.822884 9.02066,11.182492 2.87894,6.77105 -0.67175,8.925475 1.43947,17.850952 2.11122,9.33584 6.33365,8.72029 6.62155,15.69653 0.28789,7.18141 -4.22244,8.72029 -4.22244,18.67168 0,3.18034 0.47982,4.61663 0,8.20733 -0.67175,4.9244 -2.01525,5.33477 -2.78297,10.05399 -0.38386,2.4622 -1.05561,6.56587 0.38386,11.18249 1.05561,3.28293 2.59104,5.12958 1.72736,6.56587 z"
     class="st14"
     style="stroke-width:0.992228" /><path
     id="path76"
     d="m 61.241368,155.69555 c 0.191929,5.43736 -1.343503,8.92548 0.383858,10.25917 0.383858,0.30777 1.151574,0.71814 7.485231,-1.94924 4.414367,-1.84665 6.717514,-2.87257 7.389266,-4.20626 1.343503,-2.76998 -0.959645,-4.9244 -1.631397,-10.77213 -0.671751,-5.64254 1.151574,-6.36068 1.439468,-13.95247 0.383858,-8.00215 -1.535432,-8.82288 -1.151574,-15.28615 0.383858,-6.87365 9.980308,-8.00215 11.995562,-12.00323 5.278048,-10.156578 1.631397,-12.311003 7.965054,-22.57017 5.757874,-9.335842 6.429624,8.6177 12.091524,4.616625 4.99016,-3.590708 10.36417,-3.590708 11.80364,-3.488117 7.58119,0.102592 12.66731,-10.053983 19.76868,-8.309925 9.69242,2.257017 15.73818,12.105817 27.63778,12.618775 6.81348,0.307775 7.19733,4.411442 14.77853,8.207334 11.32381,5.539948 39.44141,-6.1555 44.81542,-7.489192 5.66191,-1.333692 -10.46013,-11.0799 -3.93454,-12.618775 6.62155,-1.538875 -4.70226,-2.359609 0.096,-4.821809 3.93455,-2.051833 6.52559,-7.796967 6.04576,-12.516184 -0.38385,-4.514033 -3.26279,-5.950316 -11.03591,-14.465425 -9.98031,-10.977309 -8.9247,-12.618775 -14.29871,-16.106892 -2.39912,-1.538875 -9.98031,-6.360684 -18.23326,-4.30885 -7.86909,2.051833 -7.2933,8.104742 -15.35432,11.387675 -4.3184,1.744058 -11.6117,0.820733 -26.00638,-1.128508 -5.75787,-0.820734 -9.88434,-1.538875 -14.5866,0.820733 -4.3184,2.154425 -3.74262,4.206258 -7.48523,6.258092 -6.81348,3.6933 -11.13188,-1.84665 -23.511303,-0.820733 -6.141728,0.512958 -10.268201,2.359608 -11.803633,3.180341 -3.646651,1.84665 -10.748024,5.232175 -11.803634,11.387676 -0.767715,4.719216 2.878935,5.950317 3.550687,13.336917 0.09596,1.128508 -11.803633,2.257017 -15.642213,8.309925 -3.934545,6.1555 4.414367,10.156575 -0.383858,16.312076 -0.383858,0.410366 -6.333657,8.309921 -4.990154,17.235401 0.86368,5.95032 4.222438,6.97624 3.934544,12.10582 -0.287893,5.43736 -4.126473,5.64254 -4.990154,10.97731 -1.247538,7.18141 5.278048,9.33584 5.661906,19.80019 z"
     class="st14"
     style="stroke-width:0.992228" /><path
     id="path78"
     d="m 225.53259,166.36508 c -0.76772,1.2311 -2.68701,1.3337 -3.83858,1.12851 -2.78297,-0.41036 -4.51033,-3.07775 -7.5812,-7.89956 -1.15157,-1.74405 -1.72736,-2.56479 -1.82332,-3.28293 -0.86368,-4.10367 3.45472,-6.25809 4.79822,-11.0799 1.15158,-4.00108 -1.05561,-5.12958 -3.07086,-14.26024 -2.39911,-10.97731 0.096,-12.72137 -2.78297,-17.85095 -2.87894,-5.23218 -5.56594,-3.6933 -9.78838,-10.05399 -3.74262,-5.642541 -4.6063,-11.490267 -4.89419,-13.439508 -0.67175,-5.129584 0.67175,-5.129584 0.38386,-12.311001 -0.38386,-7.591783 -1.91929,-9.643617 -0.38386,-12.618775 1.53543,-2.872567 4.99015,-4.719217 8.06102,-4.514034 1.82332,0.102592 3.45472,1.025917 8.73277,6.771051 5.37401,5.847725 8.06101,8.822883 9.02066,11.182492 2.87893,6.77105 -0.67175,8.925475 1.43947,17.85095 2.11122,9.335845 6.33365,8.720295 6.62155,15.696525 0.28789,7.18142 -4.22244,8.7203 -4.22244,18.67169 0,3.18034 0.47982,4.61662 0,8.20733 -0.67175,4.9244 -2.01525,5.33477 -2.78297,10.05398 -0.38386,2.46221 -1.05561,6.56587 0.38386,11.1825 0.95964,3.18034 2.59104,5.02699 1.72736,6.56586 z"
     class="st15"
     style="stroke-width:0.992228" /><path
     id="path80"
     d="m 64.216267,149.84782 c 0.191929,5.43736 -1.343503,8.92548 0.383858,10.25917 0.383858,0.30778 1.151574,0.71814 7.485231,-1.94924 4.414367,-1.84665 6.717515,-2.87257 7.389266,-4.20626 1.343503,-2.76997 -0.959645,-4.9244 -1.631396,-10.77212 -0.671752,-5.64255 1.151574,-6.36069 1.439467,-13.95247 0.383858,-8.00215 -1.535432,-8.82288 -1.151574,-15.28616 0.383858,-6.87364 9.980308,-8.00215 11.995563,-12.00323 5.278047,-10.156573 1.631396,-12.310998 7.965053,-22.570165 5.757865,-9.335842 6.429625,8.6177 12.091525,4.616625 4.99016,-3.590709 10.36417,-3.590709 11.80363,-3.590709 7.5812,0.102592 12.66732,-10.053983 19.76869,-8.309925 9.69242,2.257017 15.73818,12.105817 27.63778,12.618776 6.81348,0.307775 7.19733,4.411441 14.77853,8.207333 11.32381,5.53995 39.44141,-6.1555 44.81542,-7.489192 5.66191,-1.333691 -10.46013,-11.0799 -3.93454,-12.618775 6.62155,-1.538875 -4.70226,-2.359609 0.096,-4.821809 3.93454,-2.051833 6.52559,-7.796967 6.04576,-12.516183 -0.38385,-4.514034 -3.26279,-5.950317 -11.03591,-14.465426 -9.98031,-10.977309 -8.9247,-12.618775 -14.29871,-16.106892 -2.39912,-1.538875 -9.98031,-6.360684 -18.23326,-4.30885 -7.86909,2.051833 -7.2933,8.104742 -15.35432,11.387675 -4.3184,1.744059 -11.6117,0.820734 -26.00638,-1.128508 -5.75787,-0.820734 -9.88434,-1.538875 -14.5866,0.820733 -4.3184,2.154425 -3.74262,4.206259 -7.48523,6.258092 -6.81348,3.6933 -11.13188,-1.84665 -23.5113,-0.820733 -6.237696,0.410366 -10.364169,2.257016 -11.899601,3.07775 -3.646651,1.84665 -10.748024,5.232175 -11.803634,11.387675 -0.767716,4.719217 2.878935,5.950317 3.550687,13.336917 0.09596,1.128509 -11.803633,2.257017 -15.642213,8.309925 -3.934545,6.155501 4.414367,10.156576 -0.383858,16.312076 -0.383858,0.410367 -6.333657,8.309925 -4.990154,17.2354 0.86368,5.95032 4.222438,6.97624 3.934544,12.10582 -0.287893,5.43736 -4.126473,5.64254 -4.990154,10.97731 -1.247538,7.3866 5.278048,9.54102 5.75787,20.00537 z"
     class="st15"
     style="stroke-width:0.992228" /><path
     id="path82"
     d="m 56.155249,149.84782 c 0.191929,5.43736 -1.343503,8.92548 0.383858,10.25917 0.383858,0.30778 1.151574,0.71814 7.485231,-1.94924 4.414367,-1.84665 6.717515,-2.87257 7.389267,-4.20626 1.343503,-2.76997 -0.959645,-4.9244 -1.631397,-10.77212 -0.671751,-5.64255 1.151574,-6.36069 1.439468,-13.95247 0.383858,-8.00215 -1.535432,-8.82288 -1.151574,-15.28616 0.383858,-6.87364 9.980307,-8.00215 11.995562,-12.00323 5.278047,-10.156573 1.631396,-12.310998 7.965053,-22.570165 5.75787,-9.335842 6.429622,8.6177 12.091523,4.616625 4.99016,-3.590709 10.36417,-3.590709 11.80364,-3.488117 7.58119,0.102592 12.66731,-10.053984 19.76868,-8.309925 9.69242,2.257017 15.73818,12.105817 27.63778,12.618775 6.81348,0.307775 7.19734,4.411442 14.77853,8.207334 11.32381,5.53995 39.44141,-6.1555 44.81542,-7.489192 5.66191,-1.333692 -10.46013,-11.0799 -3.93454,-12.618776 6.62155,-1.538875 -4.70226,-2.359608 0.096,-4.821808 3.93455,-2.051833 6.52559,-7.796967 6.04577,-12.516184 -0.38386,-4.514033 -3.2628,-5.950317 -11.03592,-14.465425 -9.98031,-10.977309 -8.9247,-12.618776 -14.29871,-16.106892 -2.39911,-1.538875 -9.98031,-6.360684 -18.23326,-4.308851 -7.86909,2.051834 -7.2933,8.104742 -15.35432,11.387676 -4.3184,1.744058 -11.6117,0.820733 -26.00637,-1.128509 -5.75787,-0.820733 -9.88435,-1.538875 -14.58661,0.820734 -4.3184,2.154425 -3.74261,4.206258 -7.48523,6.258092 -6.81348,3.6933 -11.13188,-1.84665 -23.511301,-0.820734 -6.141728,0.512959 -10.268202,2.359609 -11.803634,3.180342 -3.646651,1.84665 -10.748023,5.232175 -11.803633,11.387675 -0.767716,4.719217 2.878935,5.950317 3.550687,13.336918 0.09596,1.128508 -11.803634,2.257016 -15.642214,8.309925 -3.934544,6.1555 4.414367,10.156575 -0.383858,16.312075 -0.383858,0.410367 -6.333657,8.309926 -4.990154,17.235397 0.863681,5.95032 4.222438,6.97624 3.934545,12.10582 -0.287894,5.43736 -4.126474,5.64255 -4.990154,10.97731 -1.247538,7.18142 5.278047,9.33584 5.661905,19.80019 z"
     class="st15"
     style="stroke-width:0.992228" /><path
     style="fill:#ffffff;stroke:#bf672b;stroke-width:3.21487;stroke-linejoin:round;stroke-miterlimit:31.2586;stroke-dasharray:none;stroke-opacity:1"
     id="path1495"
     d="m 126.6584,243.60003 c 0.73111,0.10772 1.42639,0.36986 2.10676,0.64834 0.75032,0.39254 1.54867,0.66171 2.36723,0.86848 1.40995,0.33221 2.75068,0.88038 4.15102,1.249 1.81897,0.48331 3.68391,0.70978 5.55736,0.83006 1.49971,0.14769 2.959,-0.0201 4.38759,-0.47376 1.28528,-0.46004 2.4857,-1.11771 3.72886,-1.67322 1.31505,-0.57979 2.67281,-1.05258 3.98558,-1.63685 1.6924,-0.79276 3.38758,-1.56692 5.13434,-2.23229 1.61644,-0.60906 3.27062,-1.11705 4.96582,-1.45111 1.28108,-0.21988 2.58257,-0.25868 3.87931,-0.27466 1.42441,-0.006 0.88036,0.24214 2.22159,-0.8333 -0.69272,0.23734 -1.38687,0.46086 -2.05077,0.77222 -1.80541,0.963 -2.30421,1.19417 -2.9037,3.03851 -0.26487,1.07811 -0.49412,2.16666 -0.69193,3.25937 -0.10388,1.26268 -0.45351,2.48278 -0.92924,3.65163 -0.28347,0.70126 -0.84389,0.92669 0.9447,-0.27613 0.0639,-0.043 -0.0703,-0.13741 -0.0979,-0.20932 -0.0288,-0.0749 -0.0506,-0.15224 -0.076,-0.22835 -0.13932,-0.41309 -0.26987,-0.88121 -0.56277,-1.21502 -0.28261,-0.25069 -0.68347,-0.23742 -1.04011,-0.24982 -1.0142,0.009 -2.01733,0.62455 -2.63702,1.40207 -0.95465,1.41053 -1.7157,2.94865 -2.53597,4.44162 -0.63274,0.98432 -0.98739,2.17876 -1.78195,3.05911 -0.1376,0.15247 -0.63753,0.51729 -0.4702,0.39821 0.26154,-0.18615 0.5023,-0.39986 0.75346,-0.59979 -1.21849,-0.23473 -1.99209,-1.3428 -2.80017,-2.19795 -0.75564,-0.80175 -1.62816,-1.45639 -2.60311,-1.96389 -1.2947,-0.63395 -1.52934,-0.15148 -2.87755,0.64003 -0.38985,0.42965 -0.67197,0.9231 -0.89497,1.45458 -0.32705,0.66277 -0.64308,1.32512 -1.05353,1.9417 0.25349,-0.0661 -0.63328,0.51715 -0.4661,0.39926 0.30157,-0.21268 0.72257,-0.31415 0.90815,-0.63311 0.0837,-0.14386 -0.33348,-0.0325 -0.49276,-0.0808 -0.4911,-0.14894 -0.8979,-0.39785 -1.34721,-0.63857 -1.17711,-0.73257 -2.23301,-1.63405 -3.36536,-2.43694 -0.88097,-0.58885 -1.81167,-1.09771 -2.70985,-1.65974 -0.68337,-0.38834 -1.33191,-0.8167 -1.97538,-1.26498 -0.50376,-0.33433 -1.01578,-0.66824 -1.57896,-0.89291 -0.73109,-0.1334 -1.43944,0.18125 -2.1486,0.32435 -0.75923,0.11619 -1.52796,0.15542 -2.29498,0.17614 -0.78471,-0.0707 -1.11752,-0.89643 -1.49564,-1.48481 -0.41287,-0.86353 -1.08501,-1.57939 -1.47741,-2.4505 0,0 -1.27932,0.72269 -1.27932,0.72269 v 0 c 0.40651,0.87265 1.09719,1.58126 1.50904,2.45522 0.40179,0.63997 0.73392,1.48333 1.55482,1.62612 0.77357,-0.0235 1.54753,-0.0663 2.31581,-0.16277 0.70041,-0.1229 1.37991,-0.43065 2.09624,-0.38626 0.56111,0.20416 1.06337,0.53654 1.55904,0.86482 0.65419,0.43645 1.30107,0.87442 1.9847,1.26671 0.90439,0.55416 1.83788,1.05928 2.7265,1.63821 1.13624,0.8076 2.19307,1.71714 3.37732,2.44949 0.26854,0.14874 1.55529,0.92102 1.87648,0.82236 0.8543,-0.2624 1.54057,-0.58969 2.06493,-1.24275 0.39989,-0.63017 0.72296,-1.30072 1.05296,-1.96941 0.22167,-0.51184 0.50629,-0.99826 0.92474,-1.37591 -0.34964,0.19172 -0.70207,0.37847 -1.04893,0.57517 -0.0668,0.0379 0.1342,-0.0785 0.20838,-0.0985 0.40451,-0.10901 0.76929,0.053 1.12719,0.2229 0.97358,0.48245 1.83732,1.12757 2.59091,1.91256 0.84645,0.89612 1.63186,1.99399 2.87499,2.32941 0.58161,-0.27627 1.18572,-0.50943 1.74483,-0.8288 0.93361,-0.53331 1.60528,-2.61092 2.20988,-3.49199 0.82233,-1.49612 1.57909,-3.04856 2.58468,-4.43016 0.54015,-0.58251 0.39721,-0.36535 -0.77845,0.27516 -0.0785,0.0428 0.80541,-0.3802 0.87105,-0.24199 0.31937,0.005 0.69656,-0.028 0.97273,0.15319 0.29754,0.29693 0.39826,0.77372 0.53664,1.15672 0.006,0.0174 0.19149,0.6034 0.25074,0.58093 1.20997,-0.4586 1.27552,-0.39287 1.59373,-1.19088 0.45155,-1.18408 0.78096,-2.41274 0.91429,-3.676 0.19943,-1.08406 0.41183,-2.16885 0.6906,-3.23505 0.18632,-0.52433 0.36542,-1.06235 0.7316,-1.4964 0.29394,-0.34841 0.87027,-0.63685 0.61461,-0.52086 -0.31146,0.1413 -0.59575,0.33611 -0.89362,0.50416 0.65036,-0.32621 1.33517,-0.5495 2.02516,-0.77518 1.84616,-1.30275 1.55888,-0.89425 0.12228,-0.93231 -1.30547,0.0223 -2.61569,0.0521 -3.90715,0.2635 -1.70428,0.32457 -3.36543,0.83428 -4.99066,1.43919 -1.74626,0.66195 -3.44401,1.42397 -5.13303,2.22056 -1.30637,0.5913 -2.66328,1.0565 -3.9768,1.63161 -1.25092,0.53579 -2.43938,1.21854 -3.72176,1.68562 -1.41862,0.47282 -2.87109,0.66997 -4.36956,0.52783 -1.86522,-0.11551 -3.72561,-0.32457 -5.5355,-0.81187 -1.3988,-0.36156 -2.73037,-0.91677 -4.13255,-1.26385 -0.81241,-0.19761 -1.60685,-0.46124 -2.34668,-0.85688 -0.68554,-0.27943 -1.38168,-0.55341 -2.11544,-0.67632 0,0 -1.21006,0.84318 -1.21006,0.84318 z" /><path
     d="m 129.44047,243.60003 c 0.73111,0.10772 1.42639,0.36986 2.10676,0.64834 0.75032,0.39254 1.54867,0.66171 2.36723,0.86848 1.40995,0.33221 2.75068,0.88038 4.15102,1.249 1.81897,0.48331 3.68391,0.70978 5.55736,0.83006 1.49971,0.14769 2.959,-0.0201 4.38759,-0.47376 1.28528,-0.46004 2.4857,-1.11771 3.72886,-1.67322 1.31505,-0.57979 2.67281,-1.05258 3.98558,-1.63685 1.6924,-0.79276 3.38758,-1.56692 5.13434,-2.23229 1.61644,-0.60906 3.27062,-1.11705 4.96582,-1.45111 1.28108,-0.21988 2.58257,-0.25868 3.87931,-0.27466 1.42441,-0.006 0.88036,0.24214 2.22159,-0.8333 -0.69272,0.23734 -1.38687,0.46086 -2.05077,0.77222 -1.80541,0.963 -2.30421,1.19417 -2.9037,3.03851 -0.26487,1.07811 -0.49412,2.16666 -0.69193,3.25937 -0.10388,1.26268 -0.45351,2.48278 -0.92924,3.65163 -0.28347,0.70126 -0.84389,0.92669 0.9447,-0.27613 0.0639,-0.043 -0.0703,-0.13741 -0.0979,-0.20932 -0.0288,-0.0749 -0.0506,-0.15224 -0.076,-0.22835 -0.13932,-0.41309 -0.26987,-0.88121 -0.56277,-1.21502 -0.28261,-0.25069 -0.68347,-0.23742 -1.04011,-0.24982 -1.0142,0.009 -2.01733,0.62455 -2.63702,1.40207 -0.95465,1.41053 -1.7157,2.94865 -2.53597,4.44162 -0.63274,0.98432 -0.98739,2.17876 -1.78195,3.05911 -0.1376,0.15247 -0.63753,0.51729 -0.4702,0.39821 0.26154,-0.18615 0.5023,-0.39986 0.75346,-0.59979 -1.21849,-0.23473 -1.99209,-1.3428 -2.80017,-2.19795 -0.75564,-0.80175 -1.62816,-1.45639 -2.60311,-1.96389 -1.2947,-0.63395 -1.52934,-0.15148 -2.87755,0.64003 -0.38985,0.42965 -0.67197,0.9231 -0.89497,1.45458 -0.32705,0.66277 -0.64308,1.32512 -1.05353,1.9417 0.25349,-0.0661 -0.63328,0.51715 -0.4661,0.39926 0.30157,-0.21268 0.72257,-0.31415 0.90815,-0.63311 0.0837,-0.14386 -0.33348,-0.0325 -0.49276,-0.0808 -0.4911,-0.14894 -0.8979,-0.39785 -1.34721,-0.63857 -1.17711,-0.73257 -2.23301,-1.63405 -3.36536,-2.43694 -0.88097,-0.58885 -1.81167,-1.09771 -2.70985,-1.65974 -0.68337,-0.38834 -1.33191,-0.8167 -1.97538,-1.26498 -0.50376,-0.33433 -1.01578,-0.66824 -1.57896,-0.89291 -0.73109,-0.1334 -1.43944,0.18125 -2.1486,0.32435 -0.75923,0.11619 -1.52796,0.15542 -2.29498,0.17614 -0.78471,-0.0707 -1.11752,-0.89643 -1.49564,-1.48481 -0.41287,-0.86353 -1.08501,-1.57939 -1.47741,-2.4505 0,0 -1.27932,0.72269 -1.27932,0.72269 v 0 c 0.40651,0.87265 1.09719,1.58126 1.50904,2.45522 0.40179,0.63997 0.73392,1.48333 1.55482,1.62612 0.77357,-0.0235 1.54753,-0.0663 2.31581,-0.16277 0.70041,-0.1229 1.37991,-0.43065 2.09624,-0.38626 0.56111,0.20416 1.06337,0.53654 1.55904,0.86482 0.65419,0.43645 1.30107,0.87442 1.9847,1.26671 0.90439,0.55416 1.83788,1.05928 2.7265,1.63821 1.13624,0.8076 2.19307,1.71714 3.37732,2.44949 0.26854,0.14874 1.55529,0.92102 1.87648,0.82236 0.8543,-0.2624 1.54057,-0.58969 2.06493,-1.24275 0.39989,-0.63017 0.72296,-1.30072 1.05296,-1.96941 0.22167,-0.51184 0.50629,-0.99826 0.92474,-1.37591 -0.34964,0.19172 -0.70207,0.37847 -1.04893,0.57517 -0.0668,0.0379 0.1342,-0.0785 0.20838,-0.0985 0.40451,-0.10901 0.76929,0.053 1.12719,0.2229 0.97358,0.48245 1.83732,1.12757 2.59091,1.91256 0.84645,0.89612 1.63186,1.99399 2.87499,2.32941 0.58161,-0.27627 1.18572,-0.50943 1.74483,-0.8288 0.93361,-0.53331 1.60528,-2.61092 2.20988,-3.49199 0.82233,-1.49612 1.57909,-3.04856 2.58468,-4.43016 0.54015,-0.58251 0.39721,-0.36535 -0.77845,0.27516 -0.0785,0.0428 0.80541,-0.3802 0.87105,-0.24199 0.31937,0.005 0.69656,-0.028 0.97273,0.15319 0.29754,0.29693 0.39826,0.77372 0.53664,1.15672 0.006,0.0174 0.19149,0.6034 0.25074,0.58093 1.20997,-0.4586 1.27552,-0.39287 1.59373,-1.19088 0.45155,-1.18408 0.78096,-2.41274 0.91429,-3.676 0.19943,-1.08406 0.41183,-2.16885 0.6906,-3.23505 0.18632,-0.52433 0.36542,-1.06235 0.7316,-1.4964 0.29394,-0.34841 0.87027,-0.63685 0.61461,-0.52086 -0.31146,0.1413 -0.59575,0.33611 -0.89362,0.50416 0.65036,-0.32621 1.33517,-0.5495 2.02516,-0.77518 1.84616,-1.30275 1.55888,-0.89425 0.12228,-0.93231 -1.30547,0.0223 -2.61569,0.0521 -3.90715,0.2635 -1.70428,0.32457 -3.36543,0.83428 -4.99066,1.43919 -1.74626,0.66195 -3.44401,1.42397 -5.13303,2.22056 -1.30637,0.5913 -2.66328,1.0565 -3.9768,1.63161 -1.25092,0.53579 -2.43938,1.21854 -3.72176,1.68562 -1.41862,0.47282 -2.87109,0.66997 -4.36956,0.52783 -1.86522,-0.11551 -3.72561,-0.32457 -5.5355,-0.81187 -1.3988,-0.36156 -2.73037,-0.91677 -4.13255,-1.26385 -0.81241,-0.19761 -1.60685,-0.46124 -2.34668,-0.85688 -0.68554,-0.27943 -1.38168,-0.55341 -2.11544,-0.67632 0,0 -1.21006,0.84318 -1.21006,0.84318 z"
     id="path1513"
     style="opacity:0.5;fill:#ffffff;stroke:#bf672b;stroke-width:3.21487;stroke-linejoin:round;stroke-miterlimit:31.2586;stroke-dasharray:none;stroke-opacity:1" /><path
     style="opacity:0.5;fill:#ffffff;stroke:#bf672b;stroke-width:3.21487;stroke-linejoin:round;stroke-miterlimit:31.2586;stroke-dasharray:none;stroke-opacity:1"
     id="path1515"
     d="m 123.41265,244.06371 c 0.73111,0.10772 1.42639,0.36986 2.10676,0.64834 0.75032,0.39254 1.54867,0.66171 2.36723,0.86848 1.40995,0.33221 2.75068,0.88038 4.15102,1.249 1.81897,0.48331 3.68391,0.70978 5.55736,0.83006 1.49971,0.14769 2.959,-0.0201 4.38759,-0.47376 1.28528,-0.46004 2.4857,-1.11771 3.72886,-1.67322 1.31505,-0.57979 2.67281,-1.05258 3.98558,-1.63685 1.6924,-0.79276 3.38758,-1.56692 5.13434,-2.23229 1.61644,-0.60906 3.27062,-1.11705 4.96582,-1.45111 1.28108,-0.21988 2.58257,-0.25868 3.87931,-0.27466 1.42441,-0.006 0.88036,0.24214 2.22159,-0.8333 -0.69272,0.23734 -1.38687,0.46086 -2.05077,0.77222 -1.80541,0.963 -2.30421,1.19417 -2.9037,3.03851 -0.26487,1.07811 -0.49412,2.16666 -0.69193,3.25937 -0.10388,1.26268 -0.45351,2.48278 -0.92924,3.65163 -0.28347,0.70126 -0.84389,0.92669 0.9447,-0.27613 0.0639,-0.043 -0.0703,-0.13741 -0.0979,-0.20932 -0.0288,-0.0749 -0.0506,-0.15224 -0.076,-0.22835 -0.13932,-0.41309 -0.26987,-0.88121 -0.56277,-1.21502 -0.28261,-0.25069 -0.68347,-0.23742 -1.04011,-0.24982 -1.0142,0.009 -2.01733,0.62455 -2.63702,1.40207 -0.95465,1.41053 -1.7157,2.94865 -2.53597,4.44162 -0.63274,0.98432 -0.98739,2.17876 -1.78195,3.05911 -0.1376,0.15247 -0.63753,0.51729 -0.4702,0.39821 0.26154,-0.18615 0.5023,-0.39986 0.75346,-0.59979 -1.21849,-0.23473 -1.99209,-1.3428 -2.80017,-2.19795 -0.75564,-0.80175 -1.62816,-1.45639 -2.60311,-1.96389 -1.2947,-0.63395 -1.52934,-0.15148 -2.87755,0.64003 -0.38985,0.42965 -0.67197,0.9231 -0.89497,1.45458 -0.32705,0.66277 -0.64308,1.32512 -1.05353,1.9417 0.25349,-0.0661 -0.63328,0.51715 -0.4661,0.39926 0.30157,-0.21268 0.72257,-0.31415 0.90815,-0.63311 0.0837,-0.14386 -0.33348,-0.0325 -0.49276,-0.0808 -0.4911,-0.14894 -0.8979,-0.39785 -1.34721,-0.63857 -1.17711,-0.73257 -2.23301,-1.63405 -3.36536,-2.43694 -0.88097,-0.58885 -1.81167,-1.09771 -2.70985,-1.65974 -0.68337,-0.38834 -1.33191,-0.8167 -1.97538,-1.26498 -0.50376,-0.33433 -1.01578,-0.66824 -1.57896,-0.89291 -0.73109,-0.1334 -1.43944,0.18125 -2.1486,0.32435 -0.75923,0.11619 -1.52796,0.15542 -2.29498,0.17614 -0.78471,-0.0707 -1.11752,-0.89643 -1.49564,-1.48481 -0.41287,-0.86353 -1.08501,-1.57939 -1.47741,-2.4505 0,0 -1.27932,0.72269 -1.27932,0.72269 v 0 c 0.40651,0.87265 1.09719,1.58126 1.50904,2.45522 0.40179,0.63997 0.73392,1.48333 1.55482,1.62612 0.77357,-0.0235 1.54753,-0.0663 2.31581,-0.16277 0.70041,-0.1229 1.37991,-0.43065 2.09624,-0.38626 0.56111,0.20416 1.06337,0.53654 1.55904,0.86482 0.65419,0.43645 1.30107,0.87442 1.9847,1.26671 0.90439,0.55416 1.83788,1.05928 2.7265,1.63821 1.13624,0.8076 2.19307,1.71714 3.37732,2.44949 0.26854,0.14874 1.55529,0.92102 1.87648,0.82236 0.8543,-0.2624 1.54057,-0.58969 2.06493,-1.24275 0.39989,-0.63017 0.72296,-1.30072 1.05296,-1.96941 0.22167,-0.51184 0.50629,-0.99826 0.92474,-1.37591 -0.34964,0.19172 -0.70207,0.37847 -1.04893,0.57517 -0.0668,0.0379 0.1342,-0.0785 0.20838,-0.0985 0.40451,-0.10901 0.76929,0.053 1.12719,0.2229 0.97358,0.48245 1.83732,1.12757 2.59091,1.91256 0.84645,0.89612 1.63186,1.99399 2.87499,2.32941 0.58161,-0.27627 1.18572,-0.50943 1.74483,-0.8288 0.93361,-0.53331 1.60528,-2.61092 2.20988,-3.49199 0.82233,-1.49612 1.57909,-3.04856 2.58468,-4.43016 0.54015,-0.58251 0.39721,-0.36535 -0.77845,0.27516 -0.0785,0.0428 0.80541,-0.3802 0.87105,-0.24199 0.31937,0.005 0.69656,-0.028 0.97273,0.15319 0.29754,0.29693 0.39826,0.77372 0.53664,1.15672 0.006,0.0174 0.19149,0.6034 0.25074,0.58093 1.20997,-0.4586 1.27552,-0.39287 1.59373,-1.19088 0.45155,-1.18408 0.78096,-2.41274 0.91429,-3.676 0.19943,-1.08406 0.41183,-2.16885 0.6906,-3.23505 0.18632,-0.52433 0.36542,-1.06235 0.7316,-1.4964 0.29394,-0.34841 0.87027,-0.63685 0.61461,-0.52086 -0.31146,0.1413 -0.59575,0.33611 -0.89362,0.50416 0.65036,-0.32621 1.33517,-0.5495 2.02516,-0.77518 1.84616,-1.30275 1.55888,-0.89425 0.12228,-0.93231 -1.30547,0.0223 -2.61569,0.0521 -3.90715,0.2635 -1.70428,0.32457 -3.36543,0.83428 -4.99066,1.43919 -1.74626,0.66195 -3.44401,1.42397 -5.13303,2.22056 -1.30637,0.5913 -2.66328,1.0565 -3.9768,1.63161 -1.25092,0.53579 -2.43938,1.21854 -3.72176,1.68562 -1.41862,0.47282 -2.87109,0.66997 -4.36956,0.52783 -1.86522,-0.11551 -3.72561,-0.32457 -5.5355,-0.81187 -1.3988,-0.36156 -2.73037,-0.91677 -4.13255,-1.26385 -0.81241,-0.19761 -1.60685,-0.46124 -2.34668,-0.85688 -0.68554,-0.27943 -1.38168,-0.55341 -2.11544,-0.67632 0,0 -1.21006,0.84318 -1.21006,0.84318 z" /><path
     id="path1517"
     style="opacity:1;fill:#bf672b;stroke:none;stroke-width:2.20933;stroke-linejoin:round;stroke-miterlimit:31.2586;stroke-dasharray:none;stroke-opacity:1"
     d="m 162.60674,240.84794 a 4.0350011,11.894687 63.234909 0 0 -9.71484,2.9082 4.0350011,11.894687 63.234909 0 0 -5.89844,3.87891 7.4943886,2.4289562 14.261285 0 0 -4.16016,0.50781 7.4943886,2.4289562 14.261285 0 0 -0.59179,-0.15234 7.4943886,2.4289562 14.261285 0 0 -1.33985,-0.28321 7.4943886,2.4289562 14.261285 0 0 -6.28515,-2.89258 7.4943886,2.4289562 14.261285 0 0 -7.64453,0.64063 7.4943886,2.4289562 14.261285 0 0 6.91015,4.18164 7.4943886,2.4289562 14.261285 0 0 1.3418,0.2832 7.4943886,2.4289562 14.261285 0 0 6.2832,2.89453 7.4943886,2.4289562 14.261285 0 0 3.42578,0.54493 4.0350011,11.894687 63.234909 0 0 5.625,-0.11719 7.4943886,2.4289562 14.261285 0 0 6.37891,-0.91016 7.4943886,2.4289562 14.261285 0 0 -0.61133,-1.27148 4.0350011,11.894687 63.234909 0 0 0.42188,-0.21094 4.0350011,11.894687 63.234909 0 0 8.67383,-8.9414 4.0350011,11.894687 63.234909 0 0 -2.81446,-1.06055 z" /><path
     style="stroke-width:0.711342"
     class="st13"
     d="m 162.57977,237.89223 c -0.24922,0.0812 -0.49844,0.16243 -0.68536,0.24364 -0.0623,0.24365 -0.1246,0.48729 -0.18691,0.81215 -0.0623,0.24364 -0.12461,0.89336 -0.18691,1.7055 -0.0623,0.97458 -0.0623,1.62431 -0.0623,3.41103 0,3.08616 -0.12461,3.3298 -0.0623,4.71046 0,0.6497 0.0623,1.70551 0.18692,2.43643 0.68535,-0.0812 1.43301,-0.0812 2.11836,0.0812 0.18692,-1.94915 -0.56074,-10.39549 -0.99688,-12.83194 0,-0.16242 -0.0623,-0.40606 -0.12461,-0.5685 z"
     id="path1535" /><path
     id="path1537"
     d="m 157.97339,238.66623 c -0.24922,0.0986 -0.49844,0.19734 -0.68536,0.296 -0.0623,0.296 -0.1246,0.59199 -0.18691,0.98665 -0.0623,0.29599 -0.12461,1.08532 -0.18691,2.07196 -0.0623,1.18399 -0.0623,1.97333 -0.0623,4.14396 0,3.74928 -0.12461,4.04527 -0.0623,5.72259 0,0.7893 0.0623,2.07197 0.18692,2.95994 0.68535,-0.0986 1.43301,-0.0986 2.11836,0.0987 0.18692,-2.36796 -0.56074,-12.62916 -0.99688,-15.58913 0,-0.19732 -0.0623,-0.49331 -0.12461,-0.69065 z"
     class="st13"
     style="stroke-width:0.784049" /><circle
     r="0.69999999"
     cy="85.899109"
     cx="145.7"
     class="st19"
     id="path4993" /><g
     transform="matrix(2.8572867,0,0,2.8572867,-53.828861,-77.118929)"
     id="g4945"><ellipse
       ry="3.9000001"
       rx="4.1999998"
       cy="98.199997"
       cx="70.400002"
       class="st3"
       id="path4907" /><ellipse
       ry="1.7"
       rx="3"
       cy="97.900002"
       cx="66.900002"
       class="st3"
       transform="matrix(0.2833,-0.959,0.959,0.2833,-45.9538,134.3189)"
       id="ellipse4909" /><ellipse
       ry="3.0999999"
       rx="1.6"
       cy="98.199997"
       cx="73.900002"
       class="st3"
       transform="matrix(0.99,-0.141,0.141,0.99,-13.1116,11.4057)"
       id="ellipse4911" /><path
       d="m 69.5,79.8 1.7,1.7 1,8.3 1.2,8.6 H 67.7 L 69,85.9 Z"
       class="st3"
       id="rect4913" /></g><path
     class="st20"
     d="m 203.37264,138.03543 h -36.6 c -3.9,0 -7.8,8.3 -9.7,11.5 v -2.2 h -22.9 v 2.9 c -1.7,-3.6 -5.7,-12.3 -10,-12.3 H 87.572643 c -6,0 -11.8,4.9 -10.8,10.8 l 4.7,28.1 c 1,5.9 4.8,10.7 10.8,10.8 l 28.199997,0.5 c 6,0.1 10,-4.9 10.8,-10.8 l 3.3,-25 4.2,-2.8 4.6,-1.5 h 4.6 l 4.6,1.5 4.1,2.8 4.1,24.5 c 1,5.9 4.8,10.7 10.8,10.8 l 28.2,0.5 c 6,0.1 10,-4.9 10.8,-10.8 l 3.7,-28.6 c 0.6,-5.9 -5,-10.7 -10.9,-10.7 z"
     id="path99"
     style="opacity:0.85" /><polygon
     class="st21"
     points="215.1,138.3 214.7,138.9 215.1,139.6 215.9,139.6 216.2,138.9 215.9,138.3 "
     id="polygon101"
     transform="translate(0,8.799107)" /><polygon
     class="st21"
     points="77.2,138 76.8,138.7 77.2,139.3 78,139.3 78.4,138.7 78,138 "
     id="polygon103"
     transform="translate(0,8.799107)" /><circle
     style="display:inline;fill:#2a7fff;stroke:none;stroke-width:4.49443;stroke-linecap:round;stroke-linejoin:round;stroke-miterlimit:31.2586"
     r="4.6811914"
     cy="153.40784"
     cx="106.25901"
     class="st5"
     id="circle3275" /><circle
     id="circle3277"
     class="st5"
     cx="184.76869"
     cy="152.83876"
     r="4.6811914"
     style="display:inline;fill:#2a7fff;stroke:none;stroke-width:4.49443;stroke-linecap:round;stroke-linejoin:round;stroke-miterlimit:31.2586" /><g
     style="display:inline;opacity:0.4;fill:#87cdde"
     id="g3367"
     transform="matrix(-0.85130563,-1.984835,1.1562378,-1.4613786,-38.470566,684.36522)"><path
       class="st7"
       d="m 104.20696,213.98626 c -0.093,-0.41375 -0.25458,-1.22144 -0.30277,-1.99793 -0.0482,-0.77649 0.0122,-1.5719 0.2974,-2.62606 0.2852,-1.05416 1.08262,-2.69522 2.02304,-3.97414 0.94041,-1.27892 2.18037,-2.44448 3.43823,-3.34769 1.25785,-0.9032 2.59752,-1.62179 3.32207,-1.90228 0.72454,-0.28049 0.79039,-0.29699 0.78252,-0.28689 -0.008,0.0101 -0.008,0.0101 -0.58708,0.57987 -0.5792,0.56977 -1.67745,1.58561 -2.64306,2.66625 -0.96562,1.08063 -1.80627,2.2252 -2.39963,3.32035 -0.59336,1.09516 -1.09931,2.43617 -1.4908,3.42873 -0.3915,0.99255 -0.68146,1.69669 -1.01418,2.3969 -0.33272,0.7002 -0.71662,1.40892 -0.96947,1.73305 -0.25286,0.32412 -0.30804,0.37385 -0.36323,0.42358 -0.0343,-0.13725 0,0 -0.093,-0.41374 z"
       id="path3365"
       style="fill:#87cdde" /></g><g
     transform="matrix(0.85130563,-1.984835,-1.1562378,-1.4613786,330.59338,683.75691)"
     id="g3371"
     style="display:inline;opacity:0.4;fill:#87cdde"><path
       style="fill:#87cdde"
       id="path3369"
       d="m 104.20696,213.98626 c -0.093,-0.41375 -0.25458,-1.22144 -0.30277,-1.99793 -0.0482,-0.77649 0.0122,-1.5719 0.2974,-2.62606 0.2852,-1.05416 1.08262,-2.69522 2.02304,-3.97414 0.94041,-1.27892 2.18037,-2.44448 3.43823,-3.34769 1.25785,-0.9032 2.59752,-1.62179 3.32207,-1.90228 0.72454,-0.28049 0.79039,-0.29699 0.78252,-0.28689 -0.008,0.0101 -0.008,0.0101 -0.58708,0.57987 -0.5792,0.56977 -1.67745,1.58561 -2.64306,2.66625 -0.96562,1.08063 -1.80627,2.2252 -2.39963,3.32035 -0.59336,1.09516 -1.09931,2.43617 -1.4908,3.42873 -0.3915,0.99255 -0.68146,1.69669 -1.01418,2.3969 -0.33272,0.7002 -0.71662,1.40892 -0.96947,1.73305 -0.25286,0.32412 -0.30804,0.37385 -0.36323,0.42358 -0.0343,-0.13725 0,0 -0.093,-0.41374 z"
       class="st7" /></g><circle
     r="1.516737"
     cy="175.43591"
     cx="215.88223"
     id="path15330"
     style="fill:#dd9c6b;fill-opacity:1;stroke-width:3;stroke-linecap:round;stroke-linejoin:round" /><circle
     style="fill:#999999;fill-opacity:1;stroke-width:3;stroke-linecap:round;stroke-linejoin:round"
     id="circle15332"
     cx="213.85991"
     cy="180.66023"
     r="1.516737" /><circle
     r="1.516737"
     cy="185.5475"
     cx="215.37665"
     id="circle15334"
     style="fill:#999999;fill-opacity:1;stroke-width:3;stroke-linecap:round;stroke-linejoin:round" /><circle
     style="fill:#dd9c6b;fill-opacity:1;stroke-width:3;stroke-linecap:round;stroke-linejoin:round"
     id="circle15336"
     cx="217.56749"
     cy="179.14349"
     r="1.516737" /><circle
     style="fill:#999999;fill-opacity:1;stroke-width:3;stroke-linecap:round;stroke-linejoin:round"
     id="circle15338"
     cx="211.33202"
     cy="187.23276"
     r="1.516737" /><circle
     r="1.516737"
     cy="192.45708"
     cx="209.30969"
     id="circle15340"
     style="fill:#999999;fill-opacity:1;stroke-width:3;stroke-linecap:round;stroke-linejoin:round" /><circle
     style="fill:#999999;fill-opacity:1;stroke-width:3;stroke-linecap:round;stroke-linejoin:round"
     id="circle15342"
     cx="210.82643"
     cy="197.34435"
     r="1.516737" /><circle
     r="1.516737"
     cy="190.94034"
     cx="213.01727"
     id="circle15344"
     style="fill:#999999;fill-opacity:1;stroke-width:3;stroke-linecap:round;stroke-linejoin:round" /><circle
     r="1.516737"
     cy="197.51286"
     cx="206.7818"
     id="circle15346"
     style="fill:#999999;fill-opacity:1;stroke-width:3;stroke-linecap:round;stroke-linejoin:round" /><circle
     style="fill:#dd9c6b;fill-opacity:1;stroke-width:3;stroke-linecap:round;stroke-linejoin:round"
     id="circle15348"
     cx="204.75948"
     cy="202.73718"
     r="1.516737" /><circle
     r="1.516737"
     cy="207.62445"
     cx="206.27621"
     id="circle15350"
     style="fill:#999999;fill-opacity:1;stroke-width:3;stroke-linecap:round;stroke-linejoin:round" /><circle
     style="fill:#999999;fill-opacity:1;stroke-width:3;stroke-linecap:round;stroke-linejoin:round"
     id="circle15352"
     cx="208.46706"
     cy="201.22044"
     r="1.516737" /><circle
     style="fill:#999999;fill-opacity:1;stroke-width:3;stroke-linecap:round;stroke-linejoin:round"
     id="circle15354"
     cx="210.32085"
     cy="205.93918"
     r="1.516737" /><circle
     r="1.516737"
     cy="210.49011"
     cx="210.31866"
     id="circle15356"
     style="fill:#999999;fill-opacity:1;stroke-width:3;stroke-linecap:round;stroke-linejoin:round" /><circle
     style="fill:#999999;fill-opacity:1;stroke-width:3;stroke-linecap:round;stroke-linejoin:round"
     id="circle15358"
     cx="214.02843"
     cy="195.1535"
     r="1.516737" /><circle
     r="1.516737"
     cy="202.06308"
     cx="212.51169"
     id="circle15360"
     style="fill:#999999;fill-opacity:1;stroke-width:3;stroke-linecap:round;stroke-linejoin:round" /><circle
     r="1.516737"
     cy="217.5675"
     cx="206.27621"
     id="circle15362"
     style="fill:#999999;fill-opacity:1;stroke-width:3;stroke-linecap:round;stroke-linejoin:round" /><circle
     style="fill:#dd9c6b;fill-opacity:1;stroke-width:3;stroke-linecap:round;stroke-linejoin:round"
     id="circle15364"
     cx="202.23158"
     cy="217.73602"
     r="1.516737" /><circle
     style="fill:#dd9c6b;fill-opacity:1;stroke-width:3;stroke-linecap:round;stroke-linejoin:round"
     id="circle15366"
     cx="199.70586"
     cy="228.1843"
     r="1.516737" /><circle
     r="1.516737"
     cy="221.4436"
     cx="203.91684"
     id="circle15368"
     style="fill:#dd9c6b;fill-opacity:1;stroke-width:3;stroke-linecap:round;stroke-linejoin:round" /><circle
     r="1.516737"
     cy="226.16234"
     cx="205.77063"
     id="circle15370"
     style="fill:#dd9c6b;fill-opacity:1;stroke-width:3;stroke-linecap:round;stroke-linejoin:round" /><circle
     style="fill:#dd9c6b;fill-opacity:1;stroke-width:3;stroke-linecap:round;stroke-linejoin:round"
     id="circle15372"
     cx="203.74831"
     cy="231.38666"
     r="1.516737" /><circle
     r="1.516737"
     cy="215.37666"
     cx="209.47821"
     id="circle15374"
     style="fill:#999999;fill-opacity:1;stroke-width:3;stroke-linecap:round;stroke-linejoin:round" /><circle
     style="fill:#999999;fill-opacity:1;stroke-width:3;stroke-linecap:round;stroke-linejoin:round"
     id="circle15376"
     cx="207.96147"
     cy="222.28624"
     r="1.516737" /><circle
     style="fill:#dd9c6b;fill-opacity:1;stroke-width:3;stroke-linecap:round;stroke-linejoin:round"
     id="circle15378"
     cx="197.68137"
     cy="215.54518"
     r="1.516737" /><circle
     r="1.516737"
     cy="221.60577"
     cx="191.78494"
     id="circle15380"
     style="fill:#dd9c6b;fill-opacity:1;stroke-width:3;stroke-linecap:round;stroke-linejoin:round" /><circle
     r="1.516737"
     cy="225.82529"
     cx="193.13115"
     id="circle15382"
     style="fill:#dd9c6b;fill-opacity:1;stroke-width:3;stroke-linecap:round;stroke-linejoin:round" /><circle
     style="fill:#dd9c6b;fill-opacity:1;stroke-width:3;stroke-linecap:round;stroke-linejoin:round"
     id="circle15384"
     cx="195.32199"
     cy="219.42128"
     r="1.516737" /><circle
     style="fill:#dd9c6b;fill-opacity:1;stroke-width:3;stroke-linecap:round;stroke-linejoin:round"
     id="circle15386"
     cx="197.17578"
     cy="224.14001"
     r="1.516737" /><circle
     r="1.516737"
     cy="229.36433"
     cx="195.15346"
     id="circle15388"
     style="fill:#dd9c6b;fill-opacity:1;stroke-width:3;stroke-linecap:round;stroke-linejoin:round" /><circle
     style="fill:#dd9c6b;fill-opacity:1;stroke-width:3;stroke-linecap:round;stroke-linejoin:round"
     id="circle15390"
     cx="200.88336"
     cy="213.35434"
     r="1.516737" /><circle
     r="1.516737"
     cy="220.26392"
     cx="199.36662"
     id="circle15392"
     style="fill:#dd9c6b;fill-opacity:1;stroke-width:3;stroke-linecap:round;stroke-linejoin:round" /><circle
     r="1.516737"
     cy="234.08308"
     cx="196.16463"
     id="circle15394"
     style="fill:#dd9c6b;fill-opacity:1;stroke-width:3;stroke-linecap:round;stroke-linejoin:round" /><circle
     style="fill:#dd9c6b;fill-opacity:1;stroke-width:3;stroke-linecap:round;stroke-linejoin:round"
     id="circle15396"
     cx="192.12"
     cy="234.2516"
     r="1.516737" /><circle
     style="fill:#dd9c6b;fill-opacity:1;stroke-width:3;stroke-linecap:round;stroke-linejoin:round"
     id="circle15398"
     cx="191.61441"
     cy="244.36319"
     r="1.516737" /><circle
     r="1.516737"
     cy="237.95918"
     cx="193.80525"
     id="circle15400"
     style="fill:#dd9c6b;fill-opacity:1;stroke-width:3;stroke-linecap:round;stroke-linejoin:round" /><circle
     r="1.516737"
     cy="242.67792"
     cx="195.65904"
     id="circle15402"
     style="fill:#dd9c6b;fill-opacity:1;stroke-width:3;stroke-linecap:round;stroke-linejoin:round" /><circle
     style="fill:#dd9c6b;fill-opacity:1;stroke-width:3;stroke-linecap:round;stroke-linejoin:round"
     id="circle15404"
     cx="193.63672"
     cy="247.90224"
     r="1.516737" /><circle
     r="1.516737"
     cy="231.89224"
     cx="199.36662"
     id="circle15406"
     style="fill:#dd9c6b;fill-opacity:1;stroke-width:3;stroke-linecap:round;stroke-linejoin:round" /><circle
     style="fill:#dd9c6b;fill-opacity:1;stroke-width:3;stroke-linecap:round;stroke-linejoin:round"
     id="circle15408"
     cx="197.84988"
     cy="238.80182"
     r="1.516737" /><circle
     style="fill:#dd9c6b;fill-opacity:1;stroke-width:3;stroke-linecap:round;stroke-linejoin:round"
     id="circle15410"
     cx="186.35974"
     cy="242.48727"
     r="1.516737" /><circle
     r="1.516737"
     cy="242.65579"
     cx="182.31511"
     id="circle15412"
     style="fill:#dd9c6b;fill-opacity:1;stroke-width:3;stroke-linecap:round;stroke-linejoin:round" /><circle
     r="1.516737"
     cy="252.76738"
     cx="181.80952"
     id="circle15414"
     style="fill:#dd9c6b;fill-opacity:1;stroke-width:3;stroke-linecap:round;stroke-linejoin:round" /><circle
     style="fill:#dd9c6b;fill-opacity:1;stroke-width:3;stroke-linecap:round;stroke-linejoin:round"
     id="circle15416"
     cx="184.00037"
     cy="246.36337"
     r="1.516737" /><circle
     style="fill:#dd9c6b;fill-opacity:1;stroke-width:3;stroke-linecap:round;stroke-linejoin:round"
     id="circle15418"
     cx="185.85416"
     cy="251.08211"
     r="1.516737" /><circle
     r="1.516737"
     cy="257.92499"
     cx="182.65471"
     id="circle15420"
     style="fill:#dd9c6b;fill-opacity:1;stroke-width:3;stroke-linecap:round;stroke-linejoin:round" /><circle
     style="fill:#dd9c6b;fill-opacity:1;stroke-width:3;stroke-linecap:round;stroke-linejoin:round"
     id="circle15422"
     cx="189.56174"
     cy="240.29643"
     r="1.516737" /><circle
     r="1.516737"
     cy="247.20601"
     cx="188.045"
     id="circle15424"
     style="fill:#dd9c6b;fill-opacity:1;stroke-width:3;stroke-linecap:round;stroke-linejoin:round" /><circle
     r="1.516737"
     cy="250.89146"
     cx="176.55486"
     id="circle15426"
     style="fill:#dd9c6b;fill-opacity:1;stroke-width:3;stroke-linecap:round;stroke-linejoin:round" /><circle
     style="fill:#999999;fill-opacity:1;stroke-width:3;stroke-linecap:round;stroke-linejoin:round"
     id="circle15428"
     cx="172.51022"
     cy="251.05998"
     r="1.516737" /><circle
     style="fill:#999999;fill-opacity:1;stroke-width:3;stroke-linecap:round;stroke-linejoin:round"
     id="circle15430"
     cx="172.00464"
     cy="261.17157"
     r="1.516737" /><circle
     r="1.516737"
     cy="254.76756"
     cx="174.19548"
     id="circle15432"
     style="fill:#dd9c6b;fill-opacity:1;stroke-width:3;stroke-linecap:round;stroke-linejoin:round" /><circle
     r="1.516737"
     cy="259.4863"
     cx="176.04927"
     id="circle15434"
     style="fill:#dd9c6b;fill-opacity:1;stroke-width:3;stroke-linecap:round;stroke-linejoin:round" /><circle
     style="fill:#dd9c6b;fill-opacity:1;stroke-width:3;stroke-linecap:round;stroke-linejoin:round"
     id="circle15436"
     cx="174.02695"
     cy="264.7106"
     r="1.516737" /><circle
     r="1.516737"
     cy="248.70062"
     cx="179.75685"
     id="circle15438"
     style="fill:#dd9c6b;fill-opacity:1;stroke-width:3;stroke-linecap:round;stroke-linejoin:round" /><circle
     style="fill:#dd9c6b;fill-opacity:1;stroke-width:3;stroke-linecap:round;stroke-linejoin:round"
     id="circle15440"
     cx="178.24011"
     cy="255.6102"
     r="1.516737" /><circle
     r="1.516737"
     cy="257.27161"
     cx="192.11253"
     id="circle15442"
     style="fill:#dd9c6b;fill-opacity:1;stroke-width:3;stroke-linecap:round;stroke-linejoin:round" /><circle
     style="fill:#dd9c6b;fill-opacity:1;stroke-width:3;stroke-linecap:round;stroke-linejoin:round"
     id="circle15444"
     cx="195.16248"
     cy="253.65965"
     r="1.516737" /><circle
     style="fill:#dd9c6b;fill-opacity:1;stroke-width:3;stroke-linecap:round;stroke-linejoin:round"
     id="circle15446"
     cx="196.15717"
     cy="257.62668"
     r="1.516737" /><circle
     r="1.516737"
     cy="261.24017"
     cx="191.98711"
     id="circle15448"
     style="fill:#dd9c6b;fill-opacity:1;stroke-width:3;stroke-linecap:round;stroke-linejoin:round" /><circle
     r="1.516737"
     cy="254.50229"
     cx="199.20711"
     id="circle15450"
     style="fill:#dd9c6b;fill-opacity:1;stroke-width:3;stroke-linecap:round;stroke-linejoin:round" /><circle
     r="1.516737"
     cy="256.35605"
     cx="188.42142"
     id="circle15452"
     style="fill:#dd9c6b;fill-opacity:1;stroke-width:3;stroke-linecap:round;stroke-linejoin:round" /><circle
     style="fill:#dd9c6b;fill-opacity:1;stroke-width:3;stroke-linecap:round;stroke-linejoin:round"
     id="circle15454"
     cx="190.61226"
     cy="252.47997"
     r="1.516737" /><circle
     style="fill:#dd9c6b;fill-opacity:1;stroke-width:3;stroke-linecap:round;stroke-linejoin:round"
     id="circle15456"
     cx="186.90289"
     cy="260.30057"
     r="1.516737" /><circle
     style="fill:#dd9c6b;fill-opacity:1;stroke-width:3;stroke-linecap:round;stroke-linejoin:round"
     id="circle15458"
     cx="201.4297"
     cy="243.97284"
     r="1.516737" /><circle
     r="1.516737"
     cy="248.35924"
     cx="201.71581"
     id="circle15460"
     style="fill:#dd9c6b;fill-opacity:1;stroke-width:3;stroke-linecap:round;stroke-linejoin:round" /><circle
     r="1.516737"
     cy="246.31009"
     cx="197.18619"
     id="circle15462"
     style="fill:#dd9c6b;fill-opacity:1;stroke-width:3;stroke-linecap:round;stroke-linejoin:round" /><circle
     style="fill:#dd9c6b;fill-opacity:1;stroke-width:3;stroke-linecap:round;stroke-linejoin:round"
     id="circle15464"
     cx="197.42033"
     cy="250.39958"
     r="1.516737" /><circle
     r="1.516737"
     cy="239.76831"
     cx="201.39365"
     id="circle15466"
     style="fill:#dd9c6b;fill-opacity:1;stroke-width:3;stroke-linecap:round;stroke-linejoin:round" /><circle
     style="fill:#dd9c6b;fill-opacity:1;stroke-width:3;stroke-linecap:round;stroke-linejoin:round"
     id="circle15468"
     cx="204.40047"
     cy="241.80865"
     r="1.516737" /><circle
     r="1.516737"
     cy="237.62057"
     cx="205.25957"
     id="circle15470"
     style="fill:#dd9c6b;fill-opacity:1;stroke-width:3;stroke-linecap:round;stroke-linejoin:round" /><circle
     style="fill:#dd9c6b;fill-opacity:1;stroke-width:3;stroke-linecap:round;stroke-linejoin:round"
     id="circle15472"
     cx="200.64194"
     cy="235.68762"
     r="1.516737" /><circle
     r="1.516737"
     cy="233.86205"
     cx="206.01126"
     id="circle15474"
     style="fill:#dd9c6b;fill-opacity:1;stroke-width:3;stroke-linecap:round;stroke-linejoin:round" /><circle
     style="fill:#dd9c6b;fill-opacity:1;stroke-width:3;stroke-linecap:round;stroke-linejoin:round"
     id="circle15476"
     cx="207.2999"
     cy="229.4592"
     r="1.516737" /><circle
     style="fill:#dd9c6b;fill-opacity:1;stroke-width:3;stroke-linecap:round;stroke-linejoin:round"
     id="circle15478"
     cx="205.605"
     cy="212.51025"
     r="1.516737" /><circle
     r="1.516737"
     cy="208.63832"
     cx="202.06975"
     id="circle15480"
     style="fill:#dd9c6b;fill-opacity:1;stroke-width:3;stroke-linecap:round;stroke-linejoin:round" /><circle
     r="1.516737"
     cy="225.15408"
     cx="202.23103"
     id="circle15482"
     style="fill:#dd9c6b;fill-opacity:1;stroke-width:3;stroke-linecap:round;stroke-linejoin:round" /><circle
     style="fill:#dd9c6b;fill-opacity:1;stroke-width:3;stroke-linecap:round;stroke-linejoin:round"
     id="circle15484"
     cx="183.28409"
     cy="262.27438"
     r="1.516737" /><circle
     style="fill:#dd9c6b;fill-opacity:1;stroke-width:3;stroke-linecap:round;stroke-linejoin:round"
     id="circle15486"
     cx="183.15866"
     cy="266.24295"
     r="1.516737" /><circle
     style="fill:#dd9c6b;fill-opacity:1;stroke-width:3;stroke-linecap:round;stroke-linejoin:round"
     id="circle15488"
     cx="179.59297"
     cy="261.35883"
     r="1.516737" /><circle
     r="1.516737"
     cy="265.71445"
     cx="178.98763"
     id="circle15490"
     style="fill:#dd9c6b;fill-opacity:1;stroke-width:3;stroke-linecap:round;stroke-linejoin:round" /><circle
     style="fill:#dd9c6b;fill-opacity:1;stroke-width:3;stroke-linecap:round;stroke-linejoin:round"
     id="circle15492"
     cx="184.86182"
     cy="255.12932"
     r="1.516737" /><circle
     r="1.516737"
     cy="232.92313"
     cx="187.68401"
     id="circle15494"
     style="fill:#dd9c6b;fill-opacity:1;stroke-width:3;stroke-linecap:round;stroke-linejoin:round" /><circle
     style="fill:#dd9c6b;fill-opacity:1;stroke-width:3;stroke-linecap:round;stroke-linejoin:round"
     id="circle15496"
     cx="184.22794"
     cy="238.683"
     r="1.516737" /><circle
     r="1.516737"
     cy="236.65208"
     cx="188.26744"
     id="circle15498"
     style="fill:#dd9c6b;fill-opacity:1;stroke-width:3;stroke-linecap:round;stroke-linejoin:round" /><circle
     r="1.516737"
     cy="230.73228"
     cx="190.886"
     id="circle15500"
     style="fill:#dd9c6b;fill-opacity:1;stroke-width:3;stroke-linecap:round;stroke-linejoin:round" /><circle
     r="1.516737"
     cy="244.86292"
     cx="178.48944"
     id="circle15502"
     style="fill:#dd9c6b;fill-opacity:1;stroke-width:3;stroke-linecap:round;stroke-linejoin:round" /><circle
     style="fill:#dd9c6b;fill-opacity:1;stroke-width:3;stroke-linecap:round;stroke-linejoin:round"
     id="circle15504"
     cx="174.07521"
     cy="246.48146"
     r="1.516737" /><circle
     r="1.516737"
     cy="242.21437"
     cx="175.54662"
     id="circle15506"
     style="fill:#dd9c6b;fill-opacity:1;stroke-width:3;stroke-linecap:round;stroke-linejoin:round" /><circle
     style="fill:#dd9c6b;fill-opacity:1;stroke-width:3;stroke-linecap:round;stroke-linejoin:round"
     id="circle15508"
     cx="179.37227"
     cy="239.27156"
     r="1.516737" /><circle
     r="1.516737"
     cy="236.32875"
     cx="176.5766"
     id="circle15510"
     style="fill:#dd9c6b;fill-opacity:1;stroke-width:3;stroke-linecap:round;stroke-linejoin:round" /><circle
     style="fill:#dd9c6b;fill-opacity:1;stroke-width:3;stroke-linecap:round;stroke-linejoin:round"
     id="circle15512"
     cx="181.72653"
     cy="235.44591"
     r="1.516737" /><circle
     r="1.516737"
     cy="228.82457"
     cx="187.61217"
     id="circle15514"
     style="fill:#dd9c6b;fill-opacity:1;stroke-width:3;stroke-linecap:round;stroke-linejoin:round" /><circle
     style="fill:#dd9c6b;fill-opacity:1;stroke-width:3;stroke-linecap:round;stroke-linejoin:round"
     id="circle15516"
     cx="189.08357"
     cy="225.14606"
     r="1.516737" /><circle
     r="1.516737"
     cy="264.1279"
     cx="187.16684"
     id="circle15518"
     style="fill:#dd9c6b;fill-opacity:1;stroke-width:3;stroke-linecap:round;stroke-linejoin:round" /><circle
     style="fill:#999999;fill-opacity:1;stroke-width:3;stroke-linecap:round;stroke-linejoin:round"
     id="circle15520"
     cx="167.42406"
     cy="262.79761"
     r="1.516737" /><circle
     r="1.516737"
     cy="257.58142"
     cx="169.6149"
     id="circle15522"
     style="fill:#999999;fill-opacity:1;stroke-width:3;stroke-linecap:round;stroke-linejoin:round" /><circle
     style="fill:#999999;fill-opacity:1;stroke-width:3;stroke-linecap:round;stroke-linejoin:round"
     id="circle15524"
     cx="168.26924"
     cy="267.95523"
     r="1.516737" /><circle
     style="fill:#999999;fill-opacity:1;stroke-width:3;stroke-linecap:round;stroke-linejoin:round"
     id="circle15526"
     cx="165.37138"
     cy="258.73087"
     r="1.516737" /><circle
     r="1.516737"
     cy="265.64044"
     cx="163.85464"
     id="circle15528"
     style="fill:#999999;fill-opacity:1;stroke-width:3;stroke-linecap:round;stroke-linejoin:round" /><circle
     r="1.516737"
     cy="272.30463"
     cx="168.89862"
     id="circle15530"
     style="fill:#999999;fill-opacity:1;stroke-width:3;stroke-linecap:round;stroke-linejoin:round" /><circle
     r="1.516737"
     cy="269.54239"
     cx="172.46854"
     id="circle15532"
     style="fill:#999999;fill-opacity:1;stroke-width:3;stroke-linecap:round;stroke-linejoin:round" /><circle
     r="1.516737"
     cy="272.22806"
     cx="165.41725"
     id="circle15534"
     style="fill:#999999;fill-opacity:1;stroke-width:3;stroke-linecap:round;stroke-linejoin:round" /><circle
     style="fill:#dd9c6b;fill-opacity:1;stroke-width:3;stroke-linecap:round;stroke-linejoin:round"
     id="circle15536"
     cx="176.74402"
     cy="268.8819"
     r="1.516737" /><circle
     r="1.516737"
     cy="265.15955"
     cx="170.47635"
     id="circle15538"
     style="fill:#999999;fill-opacity:1;stroke-width:3;stroke-linecap:round;stroke-linejoin:round" /><circle
     style="fill:#999999;fill-opacity:1;stroke-width:3;stroke-linecap:round;stroke-linejoin:round"
     id="circle15540"
     cx="164.10397"
     cy="254.89314"
     r="1.516737" /><circle
     style="fill:#999999;fill-opacity:1;stroke-width:3;stroke-linecap:round;stroke-linejoin:round"
     id="circle15542"
     cx="168.82304"
     cy="253.09421"
     r="1.516737" /><circle
     transform="scale(-1,1)"
     r="1.516737"
     cy="199.65759"
     cx="-80.205185"
     id="circle15544"
     style="fill:#999999;fill-opacity:1;stroke-width:3;stroke-linecap:round;stroke-linejoin:round" /><circle
     transform="scale(-1,1)"
     style="fill:#999999;fill-opacity:1;stroke-width:3;stroke-linecap:round;stroke-linejoin:round"
     id="circle15546"
     cx="-84.249817"
     cy="199.82611"
     r="1.516737" /><circle
     transform="scale(-1,1)"
     r="1.516737"
     cy="205.05043"
     cx="-86.272141"
     id="circle15548"
     style="fill:#dd9c6b;fill-opacity:1;stroke-width:3;stroke-linecap:round;stroke-linejoin:round" /><circle
     transform="scale(-1,1)"
     style="fill:#dd9c6b;fill-opacity:1;stroke-width:3;stroke-linecap:round;stroke-linejoin:round"
     id="circle15550"
     cx="-84.755402"
     cy="209.9377"
     r="1.516737" /><circle
     transform="scale(-1,1)"
     r="1.516737"
     cy="203.53369"
     cx="-82.56456"
     id="circle15552"
     style="fill:#999999;fill-opacity:1;stroke-width:3;stroke-linecap:round;stroke-linejoin:round" /><circle
     transform="scale(-1,1)"
     r="1.516737"
     cy="208.25243"
     cx="-80.71077"
     id="circle15554"
     style="fill:#999999;fill-opacity:1;stroke-width:3;stroke-linecap:round;stroke-linejoin:round" /><circle
     transform="scale(-1,1)"
     style="fill:#999999;fill-opacity:1;stroke-width:3;stroke-linecap:round;stroke-linejoin:round"
     id="circle15556"
     cx="-80.712952"
     cy="212.80336"
     r="1.516737" /><circle
     transform="scale(-1,1)"
     style="fill:#999999;fill-opacity:1;stroke-width:3;stroke-linecap:round;stroke-linejoin:round"
     id="circle15558"
     cx="-78.519928"
     cy="204.37633"
     r="1.516737" /><circle
     transform="scale(-1,1)"
     style="fill:#dd9c6b;fill-opacity:1;stroke-width:3;stroke-linecap:round;stroke-linejoin:round"
     id="circle15560"
     cx="-84.755402"
     cy="219.88075"
     r="1.516737" /><circle
     transform="scale(-1,1)"
     r="1.516737"
     cy="220.04927"
     cx="-88.800034"
     id="circle15562"
     style="fill:#dd9c6b;fill-opacity:1;stroke-width:3;stroke-linecap:round;stroke-linejoin:round" /><circle
     transform="scale(-1,1)"
     r="1.516737"
     cy="230.49754"
     cx="-91.32576"
     id="circle15564"
     style="fill:#dd9c6b;fill-opacity:1;stroke-width:3;stroke-linecap:round;stroke-linejoin:round" /><circle
     transform="scale(-1,1)"
     style="fill:#dd9c6b;fill-opacity:1;stroke-width:3;stroke-linecap:round;stroke-linejoin:round"
     id="circle15566"
     cx="-87.114777"
     cy="223.75685"
     r="1.516737" /><circle
     transform="scale(-1,1)"
     style="fill:#dd9c6b;fill-opacity:1;stroke-width:3;stroke-linecap:round;stroke-linejoin:round"
     id="circle15568"
     cx="-85.260986"
     cy="228.47559"
     r="1.516737" /><circle
     transform="scale(-1,1)"
     r="1.516737"
     cy="233.69991"
     cx="-87.28331"
     id="circle15570"
     style="fill:#dd9c6b;fill-opacity:1;stroke-width:3;stroke-linecap:round;stroke-linejoin:round" /><circle
     transform="scale(-1,1)"
     style="fill:#999999;fill-opacity:1;stroke-width:3;stroke-linecap:round;stroke-linejoin:round"
     id="circle15572"
     cx="-81.553406"
     cy="217.68991"
     r="1.516737" /><circle
     transform="scale(-1,1)"
     r="1.516737"
     cy="224.59949"
     cx="-83.070145"
     id="circle15574"
     style="fill:#999999;fill-opacity:1;stroke-width:3;stroke-linecap:round;stroke-linejoin:round" /><circle
     transform="scale(-1,1)"
     r="1.516737"
     cy="217.85843"
     cx="-93.35025"
     id="circle15576"
     style="fill:#dd9c6b;fill-opacity:1;stroke-width:3;stroke-linecap:round;stroke-linejoin:round" /><circle
     transform="scale(-1,1)"
     style="fill:#dd9c6b;fill-opacity:1;stroke-width:3;stroke-linecap:round;stroke-linejoin:round"
     id="circle15578"
     cx="-99.246674"
     cy="223.91902"
     r="1.516737" /><circle
     transform="scale(-1,1)"
     style="fill:#dd9c6b;fill-opacity:1;stroke-width:3;stroke-linecap:round;stroke-linejoin:round"
     id="circle15580"
     cx="-97.900467"
     cy="228.13853"
     r="1.516737" /><circle
     transform="scale(-1,1)"
     r="1.516737"
     cy="221.73453"
     cx="-95.709625"
     id="circle15582"
     style="fill:#dd9c6b;fill-opacity:1;stroke-width:3;stroke-linecap:round;stroke-linejoin:round" /><circle
     transform="scale(-1,1)"
     r="1.516737"
     cy="226.45326"
     cx="-93.855835"
     id="circle15584"
     style="fill:#dd9c6b;fill-opacity:1;stroke-width:3;stroke-linecap:round;stroke-linejoin:round" /><circle
     transform="scale(-1,1)"
     style="fill:#dd9c6b;fill-opacity:1;stroke-width:3;stroke-linecap:round;stroke-linejoin:round"
     id="circle15586"
     cx="-95.878159"
     cy="231.67758"
     r="1.516737" /><circle
     transform="scale(-1,1)"
     r="1.516737"
     cy="215.66759"
     cx="-90.148254"
     id="circle15588"
     style="fill:#dd9c6b;fill-opacity:1;stroke-width:3;stroke-linecap:round;stroke-linejoin:round" /><circle
     transform="scale(-1,1)"
     style="fill:#dd9c6b;fill-opacity:1;stroke-width:3;stroke-linecap:round;stroke-linejoin:round"
     id="circle15590"
     cx="-91.664993"
     cy="222.57716"
     r="1.516737" /><circle
     transform="scale(-1,1)"
     style="fill:#dd9c6b;fill-opacity:1;stroke-width:3;stroke-linecap:round;stroke-linejoin:round"
     id="circle15592"
     cx="-94.866989"
     cy="236.39632"
     r="1.516737" /><circle
     transform="scale(-1,1)"
     r="1.516737"
     cy="236.56483"
     cx="-98.911621"
     id="circle15594"
     style="fill:#dd9c6b;fill-opacity:1;stroke-width:3;stroke-linecap:round;stroke-linejoin:round" /><circle
     transform="scale(-1,1)"
     r="1.516737"
     cy="246.67644"
     cx="-99.417206"
     id="circle15596"
     style="fill:#dd9c6b;fill-opacity:1;stroke-width:3;stroke-linecap:round;stroke-linejoin:round" /><circle
     transform="scale(-1,1)"
     style="fill:#dd9c6b;fill-opacity:1;stroke-width:3;stroke-linecap:round;stroke-linejoin:round"
     id="circle15598"
     cx="-97.226364"
     cy="240.27242"
     r="1.516737" /><circle
     transform="scale(-1,1)"
     style="fill:#dd9c6b;fill-opacity:1;stroke-width:3;stroke-linecap:round;stroke-linejoin:round"
     id="circle15600"
     cx="-95.372574"
     cy="244.99117"
     r="1.516737" /><circle
     transform="scale(-1,1)"
     r="1.516737"
     cy="250.21547"
     cx="-97.394897"
     id="circle15602"
     style="fill:#dd9c6b;fill-opacity:1;stroke-width:3;stroke-linecap:round;stroke-linejoin:round" /><circle
     transform="scale(-1,1)"
     style="fill:#dd9c6b;fill-opacity:1;stroke-width:3;stroke-linecap:round;stroke-linejoin:round"
     id="circle15604"
     cx="-91.664993"
     cy="234.20549"
     r="1.516737" /><circle
     transform="scale(-1,1)"
     r="1.516737"
     cy="241.11507"
     cx="-93.181732"
     id="circle15606"
     style="fill:#dd9c6b;fill-opacity:1;stroke-width:3;stroke-linecap:round;stroke-linejoin:round" /><circle
     transform="scale(-1,1)"
     r="1.516737"
     cy="244.80052"
     cx="-104.67188"
     id="circle15608"
     style="fill:#dd9c6b;fill-opacity:1;stroke-width:3;stroke-linecap:round;stroke-linejoin:round" /><circle
     transform="scale(-1,1)"
     r="1.516737"
     cy="253.39534"
     cx="-105.17746"
     id="circle15610"
     style="fill:#dd9c6b;fill-opacity:1;stroke-width:3;stroke-linecap:round;stroke-linejoin:round" /><circle
     transform="scale(-1,1)"
     r="1.516737"
     cy="242.60966"
     cx="-101.46988"
     id="circle15612"
     style="fill:#dd9c6b;fill-opacity:1;stroke-width:3;stroke-linecap:round;stroke-linejoin:round" /><circle
     transform="scale(-1,1)"
     style="fill:#dd9c6b;fill-opacity:1;stroke-width:3;stroke-linecap:round;stroke-linejoin:round"
     id="circle15614"
     cx="-102.98662"
     cy="249.51924"
     r="1.516737" /><circle
     transform="scale(-1,1)"
     style="fill:#dd9c6b;fill-opacity:1;stroke-width:3;stroke-linecap:round;stroke-linejoin:round"
     id="circle15616"
     cx="-99.262268"
     cy="258.78406"
     r="1.516737" /><circle
     transform="scale(-1,1)"
     r="1.516737"
     cy="255.97289"
     cx="-95.869141"
     id="circle15618"
     style="fill:#dd9c6b;fill-opacity:1;stroke-width:3;stroke-linecap:round;stroke-linejoin:round" /><circle
     transform="scale(-1,1)"
     r="1.516737"
     cy="259.48233"
     cx="-95.446426"
     id="circle15620"
     style="fill:#dd9c6b;fill-opacity:1;stroke-width:3;stroke-linecap:round;stroke-linejoin:round" /><circle
     transform="scale(-1,1)"
     style="fill:#dd9c6b;fill-opacity:1;stroke-width:3;stroke-linecap:round;stroke-linejoin:round"
     id="circle15622"
     cx="-99.04451"
     cy="263.55341"
     r="1.516737" /><circle
     transform="scale(-1,1)"
     style="fill:#dd9c6b;fill-opacity:1;stroke-width:3;stroke-linecap:round;stroke-linejoin:round"
     id="circle15624"
     cx="-92.282089"
     cy="255.38748"
     r="1.516737" /><circle
     transform="scale(-1,1)"
     style="fill:#dd9c6b;fill-opacity:1;stroke-width:3;stroke-linecap:round;stroke-linejoin:round"
     id="circle15626"
     cx="-102.6102"
     cy="258.66928"
     r="1.516737" /><circle
     transform="scale(-1,1)"
     r="1.516737"
     cy="254.7932"
     cx="-100.41936"
     id="circle15628"
     style="fill:#dd9c6b;fill-opacity:1;stroke-width:3;stroke-linecap:round;stroke-linejoin:round" /><circle
     transform="scale(-1,1)"
     r="1.516737"
     cy="262.6138"
     cx="-104.12872"
     id="circle15630"
     style="fill:#dd9c6b;fill-opacity:1;stroke-width:3;stroke-linecap:round;stroke-linejoin:round" /><circle
     transform="scale(-1,1)"
     r="1.516737"
     cy="246.28609"
     cx="-89.601913"
     id="circle15632"
     style="fill:#dd9c6b;fill-opacity:1;stroke-width:3;stroke-linecap:round;stroke-linejoin:round" /><circle
     transform="scale(-1,1)"
     style="fill:#dd9c6b;fill-opacity:1;stroke-width:3;stroke-linecap:round;stroke-linejoin:round"
     id="circle15634"
     cx="-89.315811"
     cy="250.67247"
     r="1.516737" /><circle
     transform="scale(-1,1)"
     style="fill:#dd9c6b;fill-opacity:1;stroke-width:3;stroke-linecap:round;stroke-linejoin:round"
     id="circle15636"
     cx="-92.93026"
     cy="247.70818"
     r="1.516737" /><circle
     transform="scale(-1,1)"
     r="1.516737"
     cy="251.62798"
     cx="-94.068863"
     id="circle15638"
     style="fill:#dd9c6b;fill-opacity:1;stroke-width:3;stroke-linecap:round;stroke-linejoin:round" /><circle
     transform="scale(-1,1)"
     style="fill:#dd9c6b;fill-opacity:1;stroke-width:3;stroke-linecap:round;stroke-linejoin:round"
     id="circle15640"
     cx="-89.63797"
     cy="242.08156"
     r="1.516737" /><circle
     transform="scale(-1,1)"
     r="1.516737"
     cy="244.1219"
     cx="-86.631149"
     id="circle15642"
     style="fill:#dd9c6b;fill-opacity:1;stroke-width:3;stroke-linecap:round;stroke-linejoin:round" /><circle
     transform="scale(-1,1)"
     style="fill:#dd9c6b;fill-opacity:1;stroke-width:3;stroke-linecap:round;stroke-linejoin:round"
     id="circle15644"
     cx="-85.772049"
     cy="239.93382"
     r="1.516737" /><circle
     transform="scale(-1,1)"
     r="1.516737"
     cy="238.00087"
     cx="-90.389679"
     id="circle15646"
     style="fill:#dd9c6b;fill-opacity:1;stroke-width:3;stroke-linecap:round;stroke-linejoin:round" /><circle
     transform="scale(-1,1)"
     style="fill:#dd9c6b;fill-opacity:1;stroke-width:3;stroke-linecap:round;stroke-linejoin:round"
     id="circle15648"
     cx="-85.020355"
     cy="236.17528"
     r="1.516737" /><circle
     transform="scale(-1,1)"
     r="1.516737"
     cy="231.77245"
     cx="-83.73172"
     id="circle15650"
     style="fill:#dd9c6b;fill-opacity:1;stroke-width:3;stroke-linecap:round;stroke-linejoin:round" /><circle
     transform="scale(-1,1)"
     r="1.516737"
     cy="214.8235"
     cx="-85.42662"
     id="circle15652"
     style="fill:#dd9c6b;fill-opacity:1;stroke-width:3;stroke-linecap:round;stroke-linejoin:round" /><circle
     transform="scale(-1,1)"
     style="fill:#dd9c6b;fill-opacity:1;stroke-width:3;stroke-linecap:round;stroke-linejoin:round"
     id="circle15654"
     cx="-88.961868"
     cy="210.95157"
     r="1.516737" /><circle
     transform="scale(-1,1)"
     style="fill:#dd9c6b;fill-opacity:1;stroke-width:3;stroke-linecap:round;stroke-linejoin:round"
     id="circle15656"
     cx="-88.800583"
     cy="227.46733"
     r="1.516737" /><circle
     transform="scale(-1,1)"
     style="fill:#dd9c6b;fill-opacity:1;stroke-width:3;stroke-linecap:round;stroke-linejoin:round"
     id="circle15658"
     cx="-103.34761"
     cy="235.23637"
     r="1.516737" /><circle
     transform="scale(-1,1)"
     style="fill:#dd9c6b;fill-opacity:1;stroke-width:3;stroke-linecap:round;stroke-linejoin:round"
     id="circle15660"
     cx="-102.76418"
     cy="238.96532"
     r="1.516737" /><circle
     transform="scale(-1,1)"
     style="fill:#dd9c6b;fill-opacity:1;stroke-width:3;stroke-linecap:round;stroke-linejoin:round"
     id="circle15662"
     cx="-100.14561"
     cy="233.04553"
     r="1.516737" /><circle
     transform="scale(-1,1)"
     style="fill:#dd9c6b;fill-opacity:1;stroke-width:3;stroke-linecap:round;stroke-linejoin:round"
     id="circle15664"
     cx="-103.41945"
     cy="231.13782"
     r="1.516737" /><circle
     transform="scale(-1,1)"
     r="1.516737"
     cy="227.4593"
     cx="-101.94804"
     id="circle15666"
     style="fill:#dd9c6b;fill-opacity:1;stroke-width:3;stroke-linecap:round;stroke-linejoin:round" /><circle
     transform="scale(-1,1)"
     style="fill:#dd9c6b;fill-opacity:1;stroke-width:3;stroke-linecap:round;stroke-linejoin:round"
     id="circle15668"
     cx="-103.86478"
     cy="266.44113"
     r="1.516737" /><circle
     r="1.516737"
     cy="223.37619"
     cx="-79.684273"
     id="circle15670"
     style="fill:#999999;fill-opacity:1;stroke-width:3;stroke-linecap:round;stroke-linejoin:round"
     transform="scale(-1,1)" /><circle
     style="fill:#999999;fill-opacity:1;stroke-width:3;stroke-linecap:round;stroke-linejoin:round"
     id="circle15672"
     cx="-77.493431"
     cy="216.97218"
     r="1.516737"
     transform="scale(-1,1)" /><circle
     style="fill:#999999;fill-opacity:1;stroke-width:3;stroke-linecap:round;stroke-linejoin:round"
     id="circle15674"
     cx="-75.639641"
     cy="221.69092"
     r="1.516737"
     transform="scale(-1,1)" /><circle
     r="1.516737"
     cy="226.35625"
     cx="-76.900177"
     id="circle15676"
     style="fill:#dd9c6b;fill-opacity:1;stroke-width:3;stroke-linecap:round;stroke-linejoin:round"
     transform="scale(-1,1)" /><circle
     r="1.516737"
     cy="203.97293"
     cx="-74.821548"
     id="circle15678"
     style="fill:#999999;fill-opacity:1;stroke-width:3;stroke-linecap:round;stroke-linejoin:round"
     transform="scale(-1,1)" /><circle
     r="1.516737"
     cy="233.31924"
     cx="-79.684273"
     id="circle15680"
     style="fill:#dd9c6b;fill-opacity:1;stroke-width:3;stroke-linecap:round;stroke-linejoin:round"
     transform="scale(-1,1)" /><circle
     r="1.516737"
     cy="237.60362"
     cx="-81.964752"
     id="circle15682"
     style="fill:#dd9c6b;fill-opacity:1;stroke-width:3;stroke-linecap:round;stroke-linejoin:round"
     transform="scale(-1,1)" /><circle
     r="1.516737"
     cy="208.59242"
     cx="-76.367882"
     id="circle15684"
     style="fill:#999999;fill-opacity:1;stroke-width:3;stroke-linecap:round;stroke-linejoin:round"
     transform="scale(-1,1)" /><circle
     style="fill:#999999;fill-opacity:1;stroke-width:3;stroke-linecap:round;stroke-linejoin:round"
     id="circle15686"
     cx="-75.911644"
     cy="212.79976"
     r="1.516737"
     transform="scale(-1,1)" /><circle
     r="1.516737"
     cy="261.72321"
     cx="-107.46954"
     id="circle15688"
     style="fill:#dd9c6b;fill-opacity:1;stroke-width:3;stroke-linecap:round;stroke-linejoin:round"
     transform="scale(-1,1)" /><circle
     r="1.516737"
     cy="257.96466"
     cx="-106.71784"
     id="circle15690"
     style="fill:#dd9c6b;fill-opacity:1;stroke-width:3;stroke-linecap:round;stroke-linejoin:round"
     transform="scale(-1,1)" /><circle
     style="fill:#999999;fill-opacity:1;stroke-width:3;stroke-linecap:round;stroke-linejoin:round"
     id="circle15692"
     cx="-75.571907"
     cy="200.0246"
     r="1.516737"
     transform="scale(-1,1)" /><circle
     style="fill:#dd9c6b;fill-opacity:1;stroke-width:3;stroke-linecap:round;stroke-linejoin:round"
     id="circle15694"
     cx="-80.355492"
     cy="228.26199"
     r="1.516737"
     transform="scale(-1,1)" /><circle
     style="fill:#999999;fill-opacity:1;stroke-width:3;stroke-linecap:round;stroke-linejoin:round"
     id="circle15696"
     cx="-80.433975"
     cy="187.18845"
     r="1.516737"
     transform="scale(-1,1)" /><circle
     r="1.516737"
     cy="178.54849"
     cx="-75.555733"
     id="circle15698"
     style="fill:#999999;fill-opacity:1;stroke-width:3;stroke-linecap:round;stroke-linejoin:round"
     transform="scale(-1,1)" /><circle
     style="fill:#999999;fill-opacity:1;stroke-width:3;stroke-linecap:round;stroke-linejoin:round"
     id="circle15700"
     cx="-78.150032"
     cy="183.31523"
     r="1.516737"
     transform="scale(-1,1)" /><circle
     style="fill:#999999;fill-opacity:1;stroke-width:3;stroke-linecap:round;stroke-linejoin:round"
     id="circle15702"
     cx="-82.79335"
     cy="191.06454"
     r="1.516737"
     transform="scale(-1,1)" /><circle
     style="fill:#999999;fill-opacity:1;stroke-width:3;stroke-linecap:round;stroke-linejoin:round"
     id="circle15704"
     cx="-80.93956"
     cy="195.78328"
     r="1.516737"
     transform="scale(-1,1)" /><circle
     r="1.516737"
     cy="191.90718"
     cx="-78.748718"
     id="circle15706"
     style="fill:#999999;fill-opacity:1;stroke-width:3;stroke-linecap:round;stroke-linejoin:round"
     transform="scale(-1,1)" /><circle
     transform="scale(-1,1)"
     style="fill:#999999;fill-opacity:1;stroke-width:3;stroke-linecap:round;stroke-linejoin:round"
     id="circle15708"
     cx="-75.050339"
     cy="191.50378"
     r="1.516737" /><circle
     transform="scale(-1,1)"
     style="fill:#999999;fill-opacity:1;stroke-width:3;stroke-linecap:round;stroke-linejoin:round"
     id="circle15710"
     cx="-76.596672"
     cy="196.12328"
     r="1.516737" /><circle
     transform="scale(-1,1)"
     r="1.516737"
     cy="187.55545"
     cx="-75.800697"
     id="circle15712"
     style="fill:#999999;fill-opacity:1;stroke-width:3;stroke-linecap:round;stroke-linejoin:round" /><circle
     style="fill:#999999;fill-opacity:1;stroke-width:2.3212;stroke-linecap:round;stroke-linejoin:round"
     id="circle15714"
     cx="-74.656738"
     cy="183.3228"
     r="1.1735495"
     transform="scale(-1,1)" /><circle
     transform="scale(-1,1)"
     style="fill:#999999;fill-opacity:1;stroke-width:3;stroke-linecap:round;stroke-linejoin:round"
     id="circle15720"
     cx="-75.911018"
     cy="169.48875"
     r="1.516737" /><circle
     transform="scale(-1,1)"
     r="1.1735495"
     cy="174.26306"
     cx="-75.012024"
     id="circle15726"
     style="fill:#999999;fill-opacity:1;stroke-width:2.3212;stroke-linecap:round;stroke-linejoin:round" /><circle
     transform="rotate(30.33883)"
     style="fill:#999999;fill-opacity:1;stroke-width:3;stroke-linecap:round;stroke-linejoin:round"
     id="circle15728"
     cx="247.80885"
     cy="158.82289"
     r="1.516737" /><circle
     transform="rotate(30.33883)"
     r="1.516737"
     cy="162.06947"
     cx="237.15878"
     id="circle15730"
     style="fill:#dd9c6b;fill-opacity:1;stroke-width:3;stroke-linecap:round;stroke-linejoin:round" /><circle
     transform="rotate(30.33883)"
     style="fill:#999999;fill-opacity:1;stroke-width:3;stroke-linecap:round;stroke-linejoin:round"
     id="circle15732"
     cx="239.34962"
     cy="155.66547"
     r="1.516737" /><circle
     transform="rotate(30.33883)"
     style="fill:#999999;fill-opacity:1;stroke-width:3;stroke-linecap:round;stroke-linejoin:round"
     id="circle15734"
     cx="241.20341"
     cy="160.3842"
     r="1.516737" /><circle
     transform="rotate(30.33883)"
     r="1.516737"
     cy="165.60851"
     cx="239.18109"
     id="circle15736"
     style="fill:#dd9c6b;fill-opacity:1;stroke-width:3;stroke-linecap:round;stroke-linejoin:round" /><circle
     transform="rotate(30.33883)"
     r="1.516737"
     cy="156.5081"
     cx="243.39426"
     id="circle15738"
     style="fill:#999999;fill-opacity:1;stroke-width:3;stroke-linecap:round;stroke-linejoin:round" /><circle
     transform="rotate(30.33883)"
     style="fill:#999999;fill-opacity:1;stroke-width:3;stroke-linecap:round;stroke-linejoin:round"
     id="circle15740"
     cx="257.26669"
     cy="158.16951"
     r="1.516737" /><circle
     transform="rotate(30.33883)"
     r="1.516737"
     cy="158.52458"
     cx="261.31134"
     id="circle15742"
     style="fill:#999999;fill-opacity:1;stroke-width:3;stroke-linecap:round;stroke-linejoin:round" /><circle
     transform="rotate(30.33883)"
     style="fill:#999999;fill-opacity:1;stroke-width:3;stroke-linecap:round;stroke-linejoin:round"
     id="circle15744"
     cx="257.14127"
     cy="162.13808"
     r="1.516737" /><circle
     transform="rotate(30.33883)"
     style="fill:#999999;fill-opacity:1;stroke-width:3;stroke-linecap:round;stroke-linejoin:round"
     id="circle15746"
     cx="264.36127"
     cy="155.40019"
     r="1.516737" /><circle
     transform="rotate(30.33883)"
     style="fill:#999999;fill-opacity:1;stroke-width:3;stroke-linecap:round;stroke-linejoin:round"
     id="circle15748"
     cx="253.57556"
     cy="157.25395"
     r="1.516737" /><circle
     transform="rotate(30.33883)"
     r="1.516737"
     cy="161.19847"
     cx="252.05704"
     id="circle15750"
     style="fill:#999999;fill-opacity:1;stroke-width:3;stroke-linecap:round;stroke-linejoin:round" /><circle
     transform="rotate(30.33883)"
     r="1.516737"
     cy="163.17229"
     cx="248.43823"
     id="circle15752"
     style="fill:#999999;fill-opacity:1;stroke-width:3;stroke-linecap:round;stroke-linejoin:round" /><circle
     transform="rotate(30.33883)"
     r="1.516737"
     cy="167.14085"
     cx="248.31281"
     id="circle15754"
     style="fill:#999999;fill-opacity:1;stroke-width:3;stroke-linecap:round;stroke-linejoin:round" /><circle
     transform="rotate(30.33883)"
     r="1.516737"
     cy="162.25673"
     cx="244.74712"
     id="circle15756"
     style="fill:#999999;fill-opacity:1;stroke-width:3;stroke-linecap:round;stroke-linejoin:round" /><circle
     transform="rotate(30.33883)"
     style="fill:#999999;fill-opacity:1;stroke-width:3;stroke-linecap:round;stroke-linejoin:round"
     id="circle15758"
     cx="244.14177"
     cy="166.61235"
     r="1.516737" /><circle
     transform="rotate(30.33883)"
     r="1.516737"
     cy="156.02722"
     cx="250.01596"
     id="circle15760"
     style="fill:#999999;fill-opacity:1;stroke-width:3;stroke-linecap:round;stroke-linejoin:round" /><circle
     transform="rotate(30.33883)"
     style="fill:#999999;fill-opacity:1;stroke-width:3;stroke-linecap:round;stroke-linejoin:round"
     id="circle15762"
     cx="252.32098"
     cy="165.0258"
     r="1.516737" /><circle
     transform="rotate(30.33883)"
     r="1.516737"
     cy="163.69551"
     cx="232.5782"
     id="circle15764"
     style="fill:#dd9c6b;fill-opacity:1;stroke-width:3;stroke-linecap:round;stroke-linejoin:round" /><circle
     transform="rotate(30.33883)"
     style="fill:#dd9c6b;fill-opacity:1;stroke-width:3;stroke-linecap:round;stroke-linejoin:round"
     id="circle15766"
     cx="234.76904"
     cy="158.47932"
     r="1.516737" /><circle
     transform="rotate(30.33883)"
     r="1.516737"
     cy="168.85313"
     cx="233.42339"
     id="circle15768"
     style="fill:#dd9c6b;fill-opacity:1;stroke-width:3;stroke-linecap:round;stroke-linejoin:round" /><circle
     transform="rotate(30.33883)"
     r="1.516737"
     cy="159.62877"
     cx="230.52553"
     id="circle15770"
     style="fill:#dd9c6b;fill-opacity:1;stroke-width:3;stroke-linecap:round;stroke-linejoin:round" /><circle
     transform="rotate(30.33883)"
     style="fill:#dd9c6b;fill-opacity:1;stroke-width:3;stroke-linecap:round;stroke-linejoin:round"
     id="circle15772"
     cx="229.00877"
     cy="166.53835"
     r="1.516737" /><circle
     transform="rotate(30.33883)"
     style="fill:#dd9c6b;fill-opacity:1;stroke-width:3;stroke-linecap:round;stroke-linejoin:round"
     id="circle15774"
     cx="234.05276"
     cy="173.20253"
     r="1.516737" /><circle
     transform="rotate(30.33883)"
     style="fill:#dd9c6b;fill-opacity:1;stroke-width:3;stroke-linecap:round;stroke-linejoin:round"
     id="circle15776"
     cx="237.62268"
     cy="170.44029"
     r="1.516737" /><circle
     transform="rotate(30.33883)"
     style="fill:#dd9c6b;fill-opacity:1;stroke-width:3;stroke-linecap:round;stroke-linejoin:round"
     id="circle15778"
     cx="230.36163"
     cy="172.28697"
     r="1.516737" /><circle
     transform="rotate(30.33883)"
     r="1.516737"
     cy="169.7798"
     cx="241.89816"
     id="circle15780"
     style="fill:#dd9c6b;fill-opacity:1;stroke-width:3;stroke-linecap:round;stroke-linejoin:round" /><circle
     transform="rotate(30.33883)"
     style="fill:#dd9c6b;fill-opacity:1;stroke-width:3;stroke-linecap:round;stroke-linejoin:round"
     id="circle15782"
     cx="235.63049"
     cy="166.05745"
     r="1.516737" /><circle
     transform="rotate(30.33883)"
     r="1.516737"
     cy="155.79105"
     cx="229.25812"
     id="circle15784"
     style="fill:#dd9c6b;fill-opacity:1;stroke-width:3;stroke-linecap:round;stroke-linejoin:round" /><circle
     r="1.516737"
     cy="159.278"
     cx="265.27206"
     id="circle15786"
     style="fill:#999999;fill-opacity:1;stroke-width:3;stroke-linecap:round;stroke-linejoin:round"
     transform="rotate(30.33883)" /><circle
     style="fill:#999999;fill-opacity:1;stroke-width:3;stroke-linecap:round;stroke-linejoin:round"
     id="circle15788"
     cx="269.07605"
     cy="160.25999"
     r="1.516737"
     transform="rotate(30.33883)" /><circle
     r="1.516737"
     cy="164.76566"
     cx="269.19513"
     id="circle15790"
     style="fill:#999999;fill-opacity:1;stroke-width:3;stroke-linecap:round;stroke-linejoin:round"
     transform="rotate(30.33883)" /><circle
     r="1.516737"
     cy="158.38315"
     cx="276.01553"
     id="circle15792"
     style="fill:#999999;fill-opacity:1;stroke-width:3;stroke-linecap:round;stroke-linejoin:round"
     transform="rotate(30.33883)" /><circle
     style="fill:#999999;fill-opacity:1;stroke-width:3;stroke-linecap:round;stroke-linejoin:round"
     id="circle15794"
     cx="261.35379"
     cy="162.64481"
     r="1.516737"
     transform="rotate(30.33883)" /><circle
     style="fill:#999999;fill-opacity:1;stroke-width:3;stroke-linecap:round;stroke-linejoin:round"
     id="circle15796"
     cx="258.5517"
     cy="165.59883"
     r="1.516737"
     transform="rotate(30.33883)" /><circle
     style="fill:#999999;fill-opacity:1;stroke-width:3;stroke-linecap:round;stroke-linejoin:round"
     id="circle15798"
     cx="258.42627"
     cy="169.5674"
     r="1.516737"
     transform="rotate(30.33883)" /><circle
     r="1.516737"
     cy="168.17798"
     cx="254.48048"
     id="circle15800"
     style="fill:#999999;fill-opacity:1;stroke-width:3;stroke-linecap:round;stroke-linejoin:round"
     transform="rotate(30.33883)" /><circle
     r="1.516737"
     cy="167.53619"
     cx="261.87592"
     id="circle15802"
     style="fill:#999999;fill-opacity:1;stroke-width:3;stroke-linecap:round;stroke-linejoin:round"
     transform="rotate(30.33883)" /><circle
     style="fill:#999999;fill-opacity:1;stroke-width:3;stroke-linecap:round;stroke-linejoin:round"
     id="circle15804"
     cx="250.6873"
     cy="169.94353"
     r="1.516737"
     transform="rotate(30.33883)" /><circle
     style="fill:#999999;fill-opacity:1;stroke-width:3;stroke-linecap:round;stroke-linejoin:round"
     id="circle15806"
     cx="161.58115"
     cy="261.81299"
     r="1.516737" /><circle
     style="fill:#999999;fill-opacity:1;stroke-width:3;stroke-linecap:round;stroke-linejoin:round"
     id="circle15808"
     cx="153.73618"
     cy="265.64093"
     r="1.516737" /><circle
     r="1.516737"
     cy="264.83313"
     cx="158.45361"
     id="circle15810"
     style="fill:#999999;fill-opacity:1;stroke-width:3;stroke-linecap:round;stroke-linejoin:round" /><circle
     style="fill:#999999;fill-opacity:1;stroke-width:3;stroke-linecap:round;stroke-linejoin:round"
     id="circle15812"
     cx="153.06987"
     cy="261.25809"
     r="1.516737" /><circle
     style="fill:#dd9c6b;fill-opacity:1;stroke-width:3;stroke-linecap:round;stroke-linejoin:round"
     id="circle15814"
     cx="-93.022438"
     cy="253.46094"
     r="1.516737"
     transform="rotate(-44.66117)" /><circle
     style="fill:#dd9c6b;fill-opacity:1;stroke-width:3;stroke-linecap:round;stroke-linejoin:round"
     id="circle15816"
     cx="-98.780144"
     cy="256.70557"
     r="1.516737"
     transform="rotate(-44.66117)" /><circle
     r="1.516737"
     cy="261.05496"
     cx="-98.150764"
     id="circle15818"
     style="fill:#dd9c6b;fill-opacity:1;stroke-width:3;stroke-linecap:round;stroke-linejoin:round"
     transform="rotate(-44.66117)" /><circle
     r="1.516737"
     cy="258.29272"
     cx="-94.580849"
     id="circle15820"
     style="fill:#dd9c6b;fill-opacity:1;stroke-width:3;stroke-linecap:round;stroke-linejoin:round"
     transform="rotate(-44.66117)" /><circle
     style="fill:#dd9c6b;fill-opacity:1;stroke-width:3;stroke-linecap:round;stroke-linejoin:round"
     id="circle15822"
     cx="-90.305367"
     cy="257.63223"
     r="1.516737"
     transform="rotate(-44.66117)" /><circle
     r="1.516737"
     cy="253.90988"
     cx="-96.573036"
     id="circle15824"
     style="fill:#dd9c6b;fill-opacity:1;stroke-width:3;stroke-linecap:round;stroke-linejoin:round"
     transform="rotate(-44.66117)" /><circle
     transform="rotate(-44.66117)"
     style="fill:#dd9c6b;fill-opacity:1;stroke-width:3;stroke-linecap:round;stroke-linejoin:round"
     id="circle15826"
     cx="-102.01129"
     cy="260.33621"
     r="1.516737" /><circle
     r="1.516737"
     cy="265.42886"
     cx="-110.43533"
     id="circle15828"
     style="fill:#dd9c6b;fill-opacity:1;stroke-width:3;stroke-linecap:round;stroke-linejoin:round"
     transform="rotate(-44.66117)" /><circle
     transform="rotate(-44.66117)"
     style="fill:#dd9c6b;fill-opacity:1;stroke-width:3;stroke-linecap:round;stroke-linejoin:round"
     id="circle15830"
     cx="-110.92768"
     cy="269.95547"
     r="1.516737" /><circle
     r="1.516737"
     cy="170.37636"
     cx="246.22318"
     id="circle15832"
     style="fill:#999999;fill-opacity:1;stroke-width:3;stroke-linecap:round;stroke-linejoin:round"
     transform="rotate(30.33883)" /><circle
     r="1.516737"
     cy="174.2043"
     cx="239.70409"
     id="circle15834"
     style="fill:#dd9c6b;fill-opacity:1;stroke-width:3;stroke-linecap:round;stroke-linejoin:round"
     transform="rotate(30.33883)" /><circle
     style="fill:#dd9c6b;fill-opacity:1;stroke-width:3;stroke-linecap:round;stroke-linejoin:round"
     id="circle15836"
     cx="243.97957"
     cy="173.54381"
     r="1.516737"
     transform="rotate(30.33883)" /><circle
     transform="rotate(30.33883)"
     r="1.516737"
     cy="173.87747"
     cx="248.18489"
     id="circle15838"
     style="fill:#999999;fill-opacity:1;stroke-width:3;stroke-linecap:round;stroke-linejoin:round" /><circle
     transform="rotate(30.33883)"
     r="1.516737"
     cy="172.40071"
     cx="253.34056"
     id="circle15840"
     style="fill:#999999;fill-opacity:1;stroke-width:3;stroke-linecap:round;stroke-linejoin:round" /><circle
     style="fill:#999999;fill-opacity:1;stroke-width:3;stroke-linecap:round;stroke-linejoin:round"
     id="circle15842"
     cx="259.2829"
     cy="154.85109"
     r="1.516737"
     transform="rotate(30.33883)" /><circle
     r="1.516737"
     cy="151.7267"
     cx="262.33282"
     id="circle15844"
     style="fill:#999999;fill-opacity:1;stroke-width:3;stroke-linecap:round;stroke-linejoin:round"
     transform="rotate(30.33883)" /><circle
     r="1.516737"
     cy="153.15248"
     cx="255.18517"
     id="circle15846"
     style="fill:#999999;fill-opacity:1;stroke-width:3;stroke-linecap:round;stroke-linejoin:round"
     transform="rotate(30.33883)" /><circle
     transform="rotate(30.33883)"
     style="fill:#999999;fill-opacity:1;stroke-width:3;stroke-linecap:round;stroke-linejoin:round"
     id="circle15848"
     cx="265.59882"
     cy="167.9641"
     r="1.516737" /><circle
     style="fill:#999999;fill-opacity:1;stroke-width:3;stroke-linecap:round;stroke-linejoin:round"
     id="circle15850"
     cx="156.3136"
     cy="269.68277"
     r="1.516737" /><circle
     style="fill:#999999;fill-opacity:1;stroke-width:3;stroke-linecap:round;stroke-linejoin:round"
     id="circle15852"
     cx="159.98839"
     cy="268.49365"
     r="1.516737" /><circle
     style="fill:#999999;fill-opacity:1;stroke-width:3;stroke-linecap:round;stroke-linejoin:round"
     id="circle15854"
     cx="152.72736"
     cy="270.34033"
     r="1.516737" /><circle
     transform="rotate(30.33883)"
     style="fill:#999999;fill-opacity:1;stroke-width:3;stroke-linecap:round;stroke-linejoin:round"
     id="circle15856"
     cx="265.59921"
     cy="162.98169"
     r="1.516737" /><circle
     transform="rotate(30.33883)"
     r="1.516737"
     cy="161.88504"
     cx="272.94351"
     id="circle15858"
     style="fill:#999999;fill-opacity:1;stroke-width:3;stroke-linecap:round;stroke-linejoin:round" /><circle
     transform="rotate(30.33883)"
     style="fill:#999999;fill-opacity:1;stroke-width:3;stroke-linecap:round;stroke-linejoin:round"
     id="circle15860"
     cx="279.84586"
     cy="155.16928"
     r="1.516737" /><circle
     r="1.516737"
     cy="273.45828"
     cx="155.26485"
     id="circle15862"
     style="fill:#999999;fill-opacity:1;stroke-width:3;stroke-linecap:round;stroke-linejoin:round" /><circle
     style="fill:#999999;fill-opacity:1;stroke-width:3;stroke-linecap:round;stroke-linejoin:round"
     id="circle15864"
     cx="160.40373"
     cy="272.30466"
     r="1.516737" /><circle
     style="fill:#999999;fill-opacity:1;stroke-width:3;stroke-linecap:round;stroke-linejoin:round"
     id="circle15866"
     cx="163.73924"
     cy="269.08182"
     r="1.516737" /><circle
     style="fill:#999999;fill-opacity:1;stroke-width:3;stroke-linecap:round;stroke-linejoin:round"
     id="circle15868"
     cx="157.27505"
     cy="261.15012"
     r="1.516737" /></g></svg>
