<?xml version="1.0" encoding="UTF-8" standalone="no"?>
<svg
   xmlns:dc="http://purl.org/dc/elements/1.1/"
   xmlns:cc="http://creativecommons.org/ns#"
   xmlns:rdf="http://www.w3.org/1999/02/22-rdf-syntax-ns#"
   xmlns:svg="http://www.w3.org/2000/svg"
   xmlns="http://www.w3.org/2000/svg"
   width="640"
   height="640"
   viewBox="0 0 169.33333 169.33334"
   version="1.1"
   id="svg8">
  <defs
     id="defs2" />
  <metadata
     id="metadata5">
    <rdf:RDF>
      <cc:Work
         rdf:about="">
        <dc:format>image/svg+xml</dc:format>
        <dc:type
           rdf:resource="http://purl.org/dc/dcmitype/StillImage" />
        <dc:title></dc:title>
      </cc:Work>
    </rdf:RDF>
  </metadata>
  <g
     id="layer1">
    <g
       transform="translate(0,-0.93824027)"
       id="g553">
      <path
         id="path505"
         style="stroke:none;stroke-width:0.50373"
         d="M 16.971208,17.133503 C 1.3503187,32.276293 1.2249962,56.78989 16.690564,72.081761 l 26.652663,-25.836692 2.164337,2.098075 -15.309254,14.840561 6.988481,6.774528 1.373895,1.331833 5.702225,5.527651 38.836638,37.647663 1.097002,-87.414039 -8.362374,-8.10636 -2.187183,-2.120223 -0.01602,0.01554 C 57.854567,1.8703105 32.584595,1.998248 16.971208,17.133503 Z M 14.15215,44.709941 a 4.0678907,3.9433523 0 0 1 5.753033,3.31e-4 4.0678907,3.9433523 0 0 1 0,5.576572 4.0678907,3.9433523 0 0 1 -5.753033,3.31e-4 4.0678907,3.9433523 0 0 1 0,-5.577234 z" />
      <path
         d="m 152.36213,124.88316 c 15.62088,-15.14279 15.74621,-39.656378 0.28065,-54.948249 l -26.65266,25.836692 -2.16435,-2.098076 15.30925,-14.84056 -6.98847,-6.774529 -1.37389,-1.331832 -5.70223,-5.527651 -38.836634,-37.647657 -1.097,87.414032 8.362375,8.10636 2.187184,2.12022 0.01602,-0.0155 c 15.776385,14.97 41.046365,14.84205 56.659755,-0.2932 z m 2.81906,-27.576429 a 4.0678907,3.9433523 0 0 1 -5.75304,-3.31e-4 4.0678907,3.9433523 0 0 1 0,-5.576572 4.0678907,3.9433523 0 0 1 5.75304,-3.31e-4 4.0678907,3.9433523 0 0 1 0,5.577234 z"
         style="stroke:none;stroke-width:0.50373"
         id="path535" />
      <path
         d="M 19.184301,19.474385 C 6.3782057,31.890945 6.2754656,51.991241 18.954228,64.530042 l 21.850011,-21.185188 1.774335,1.720349 -12.550615,12.168744 5.729196,5.554876 1.126326,1.092057 4.674719,4.532482 31.838504,30.869764 0.899329,-71.676459 -6.855524,-6.646932 -1.793065,-1.73851 -0.01314,0.01273 C 52.70072,6.9590984 31.98425,7.0640035 19.184301,19.474385 Z m -2.31108,22.611718 a 3.3348806,3.2334113 0 0 1 4.71637,2.72e-4 3.3348806,3.2334113 0 0 1 0,4.572595 3.3348806,3.2334113 0 0 1 -4.71637,2.72e-4 3.3348806,3.2334113 0 0 1 0,-4.573139 z"
         style="fill:#008080;stroke:none;stroke-width:0.413"
         id="path543" />
      <path
         id="path547"
         style="fill:#ffeeaa;stroke:none;stroke-width:0.413"
         d="m 151.17384,121.91567 c 12.8061,-12.41656 12.90884,-32.516856 0.23008,-45.055657 l -21.85001,21.185188 -1.77434,-1.720349 12.55062,-12.168744 -5.7292,-5.554876 -1.12632,-1.092057 -4.67473,-4.532482 -31.838491,-30.869766 -0.899332,71.676463 6.855523,6.64693 1.79307,1.73851 0.0131,-0.0127 c 12.93361,12.27488 33.65008,12.16996 46.45002,-0.24043 z m 2.31109,-22.611722 a 3.3348806,3.2334113 0 0 1 -4.71637,-2.71e-4 3.3348806,3.2334113 0 0 1 0,-4.572592 3.3348806,3.2334113 0 0 1 4.71637,-2.72e-4 3.3348806,3.2334113 0 0 1 0,4.573135 z" />
    </g>
    <text
       id="text361"
       y="163.53539"
       x="30.478659"
       style="font-style:normal;font-weight:normal;font-size:27.1684px;line-height:1.25;font-family:sans-serif;fill-opacity:1;stroke:none;stroke-width:0.679213"
       xml:space="preserve"><tspan
         style="font-style:normal;font-variant:normal;font-weight:normal;font-stretch:normal;font-family:Calistoga;-inkscape-font-specification:Calistoga;stroke-width:0.679213"
         y="163.53539"
         x="30.478659"
         id="tspan359">PYTHON</tspan></text>
  </g>
</svg>
