<?xml version="1.0" encoding="UTF-8" standalone="no"?>
<svg
   xmlns:dc="http://purl.org/dc/elements/1.1/"
   xmlns:cc="http://creativecommons.org/ns#"
   xmlns:rdf="http://www.w3.org/1999/02/22-rdf-syntax-ns#"
   xmlns:svg="http://www.w3.org/2000/svg"
   xmlns="http://www.w3.org/2000/svg"
   xmlns:xlink="http://www.w3.org/1999/xlink"
   width="640"
   height="640"
   viewBox="0 0 169.33333 169.33334"
   version="1.1"
   id="svg8">
  <defs
     id="defs2" />
  <metadata
     id="metadata5">
    <rdf:RDF>
      <cc:Work
         rdf:about="">
        <dc:format>image/svg+xml</dc:format>
        <dc:type
           rdf:resource="http://purl.org/dc/dcmitype/StillImage" />
        <dc:title></dc:title>
      </cc:Work>
    </rdf:RDF>
  </metadata>
  <g
     id="layer1">
    <path
       id="path1544"
       d="m 2.6545838,91.094301 c 36.4713162,-14.275825 10.6654892,-68.098324 0,-84.4906547 18.1794022,8.3073267 69.6112872,36.0681767 82.1757942,0 10.468442,38.5085887 65.599462,7.7946547 79.527282,-2.6484838 -7.37441,16.3141645 -36.39314,70.1366645 0.0782,84.4124885 -38.939,11.894269 -16.55133,46.439369 0,73.566789 C 141.59007,141.28819 95.29882,125.99618 84.830378,164.50477 72.265871,128.43659 22.275496,146.55874 2.7327591,164.58295 12.780118,142.67433 41.593596,102.98859 2.6545838,91.094323 Z"
       style="fill:none;stroke:#000000;stroke-width:0.811142;stroke-linecap:round;stroke-linejoin:round;stroke-miterlimit:4;stroke-dasharray:none;stroke-opacity:1" />
    <path
       id="path1546"
       d="M 2.6545838,6.6036463 164.43585,161.93444"
       style="fill:none;stroke:#000000;stroke-width:0.295526px;stroke-linecap:butt;stroke-linejoin:miter;stroke-opacity:1" />
    <path
       id="path1548"
       d="M 164.35766,3.9551625 2.7327591,164.58295"
       style="fill:none;stroke:#000000;stroke-width:0.295526px;stroke-linecap:butt;stroke-linejoin:miter;stroke-opacity:1" />
    <path
       id="path1550"
       d="M 84.830379,6.6036463 V 164.50477"
       style="fill:none;stroke:#000000;stroke-width:0.295526px;stroke-linecap:butt;stroke-linejoin:miter;stroke-opacity:1" />
    <path
       id="path1799"
       d="M 164.43585,88.367654 2.6545838,91.094323"
       style="fill:none;stroke:#000000;stroke-width:0.295526px;stroke-linecap:butt;stroke-linejoin:miter;stroke-opacity:1" />
    <g
       id="g1806">
      <path
         style="fill:none;stroke:#000000;stroke-width:0.295526px;stroke-linecap:butt;stroke-linejoin:miter;stroke-opacity:1"
         d="M 164.35765,3.9551625 C 106.32398,69.68505 106.27445,84.561701 164.43585,88.367654"
         id="path1552" />
      <path
         style="fill:none;stroke:#000000;stroke-width:0.295526px;stroke-linecap:butt;stroke-linejoin:miter;stroke-opacity:1"
         d="m 164.43585,88.367654 c 0,0 -77.152804,-1.601154 -0.0782,-84.4124915"
         id="path1570" />
      <path
         style="fill:none;stroke:#000000;stroke-width:0.295526px;stroke-linecap:butt;stroke-linejoin:miter;stroke-opacity:1"
         d="M 164.35765,3.9551625 C 150.32883,21.504296 113.69468,78.826643 164.43585,88.367654"
         id="path1791" />
    </g>
    <g
       transform="matrix(-1,0,0,1,167.39166,3.4054605)"
       id="g1814">
      <path
         id="path1808"
         d="M 164.35765,3.9551625 C 106.32398,69.68505 106.27445,84.561701 164.43585,88.367654"
         style="fill:none;stroke:#000000;stroke-width:0.295526px;stroke-linecap:butt;stroke-linejoin:miter;stroke-opacity:1" />
      <path
         id="path1810"
         d="m 164.43585,88.367654 c 0,0 -77.152804,-1.601154 -0.0782,-84.4124915"
         style="fill:none;stroke:#000000;stroke-width:0.295526px;stroke-linecap:butt;stroke-linejoin:miter;stroke-opacity:1" />
      <path
         id="path1812"
         d="M 164.35765,3.9551625 C 150.32883,21.504296 113.69468,78.826643 164.43585,88.367654"
         style="fill:none;stroke:#000000;stroke-width:0.295526px;stroke-linecap:butt;stroke-linejoin:miter;stroke-opacity:1" />
    </g>
    <g
       id="g1822"
       transform="matrix(0,-1,-1,0,168.31281,168.31281)">
      <path
         style="fill:none;stroke:#000000;stroke-width:0.295526px;stroke-linecap:butt;stroke-linejoin:miter;stroke-opacity:1"
         d="M 164.35765,3.9551625 C 106.32398,69.68505 103.54776,79.676478 161.70916,83.482431"
         id="path1816" />
      <path
         style="fill:none;stroke:#000000;stroke-width:0.295526px;stroke-linecap:butt;stroke-linejoin:miter;stroke-opacity:1"
         d="m 161.70916,83.482431 c 0,0 -74.426114,3.284069 2.64849,-79.5272685"
         id="path1818" />
      <path
         style="fill:none;stroke:#000000;stroke-width:0.295526px;stroke-linecap:butt;stroke-linejoin:miter;stroke-opacity:1"
         d="M 164.35765,3.9551625 C 150.32883,21.504296 110.96799,73.94142 161.70916,83.482431"
         id="path1820" />
    </g>
    <g
       transform="rotate(-90,84.681885,83.630924)"
       id="g1830">
      <path
         id="path1824"
         d="m 161.70916,1.6036228 c -58.03367,65.7298872 -58.1614,78.0728552 0,81.8788082"
         style="fill:none;stroke:#000000;stroke-width:0.295526px;stroke-linecap:butt;stroke-linejoin:miter;stroke-opacity:1" />
      <path
         id="path1826"
         d="m 161.70916,83.482431 c 0,0 -77.074601,0.932529 0,-81.8788082"
         style="fill:none;stroke:#000000;stroke-width:0.295526px;stroke-linecap:butt;stroke-linejoin:miter;stroke-opacity:1" />
      <path
         id="path1828"
         d="m 161.70916,1.6036228 c -14.02882,17.5491332 -50.74117,72.6347842 0,82.1757952"
         style="fill:none;stroke:#000000;stroke-width:0.295526px;stroke-linecap:butt;stroke-linejoin:miter;stroke-opacity:1" />
    </g>
    <g
       transform="rotate(90,82.758595,85.55421)"
       id="g1838">
      <path
         id="path1832"
         d="m 159.13882,3.876955 c -58.03366,65.729887 -55.59106,75.799523 2.57034,79.605476"
         style="fill:none;stroke:#000000;stroke-width:0.295526px;stroke-linecap:butt;stroke-linejoin:miter;stroke-opacity:1" />
      <path
         id="path1834"
         d="m 161.70916,83.482431 c 0,0 -79.644939,3.205862 -2.57034,-79.605476"
         style="fill:none;stroke:#000000;stroke-width:0.295526px;stroke-linecap:butt;stroke-linejoin:miter;stroke-opacity:1" />
      <path
         id="path1836"
         d="m 159.13882,3.876955 c -14.02881,17.549133 -48.17083,70.064465 2.57034,79.605476"
         style="fill:none;stroke:#000000;stroke-width:0.295526px;stroke-linecap:butt;stroke-linejoin:miter;stroke-opacity:1" />
    </g>
    <g
       id="g1846"
       transform="matrix(0,1,1,0,1.05096,2.79561)">
      <path
         style="fill:none;stroke:#000000;stroke-width:0.295526px;stroke-linecap:butt;stroke-linejoin:miter;stroke-opacity:1"
         d="m 161.70916,1.6036228 c -58.03367,65.7298872 -58.1614,78.0728552 0,81.8788082"
         id="path1840" />
      <path
         style="fill:none;stroke:#000000;stroke-width:0.295526px;stroke-linecap:butt;stroke-linejoin:miter;stroke-opacity:1"
         d="m 161.70916,83.482431 c 0,0 -77.074601,0.932529 0,-81.8788082"
         id="path1842" />
      <path
         style="fill:none;stroke:#000000;stroke-width:0.295526px;stroke-linecap:butt;stroke-linejoin:miter;stroke-opacity:1"
         d="m 161.70916,1.6036228 c -14.02882,17.5491332 -50.74117,72.6347842 0,82.1757952"
         id="path1844" />
    </g>
    <g
       id="g1854"
       transform="rotate(180,83.545205,84.269056)">
      <path
         style="fill:none;stroke:#000000;stroke-width:0.295526px;stroke-linecap:butt;stroke-linejoin:miter;stroke-opacity:1"
         d="M 164.35765,3.9551625 C 106.32398,69.68505 105.9732,72.959044 164.1346,76.764997"
         id="path1848" />
      <path
         style="fill:none;stroke:#000000;stroke-width:0.295526px;stroke-linecap:butt;stroke-linejoin:miter;stroke-opacity:1"
         d="m 164.1346,76.764997 c 0,0 -76.851554,10.001503 0.22305,-72.8098345"
         id="path1850" />
      <path
         style="fill:none;stroke:#000000;stroke-width:0.295526px;stroke-linecap:butt;stroke-linejoin:miter;stroke-opacity:1"
         d="M 164.35765,3.9551625 C 150.32883,21.504296 113.39343,67.223986 164.1346,76.764997"
         id="path1852" />
    </g>
    <g
       transform="matrix(1,0,0,-1,0.30125,165.13265)"
       id="g1862">
      <path
         id="path1856"
         d="M 164.35765,3.9551625 C 106.32398,69.68505 105.9732,72.959044 164.1346,76.764997"
         style="fill:none;stroke:#000000;stroke-width:0.295526px;stroke-linecap:butt;stroke-linejoin:miter;stroke-opacity:1" />
      <path
         id="path1858"
         d="m 164.1346,76.764997 c 0,0 -76.851554,10.001503 0.22305,-72.8098345"
         style="fill:none;stroke:#000000;stroke-width:0.295526px;stroke-linecap:butt;stroke-linejoin:miter;stroke-opacity:1" />
      <path
         id="path1860"
         d="M 164.35765,3.9551625 C 150.32883,21.504296 113.39343,67.223986 164.1346,76.764997"
         style="fill:none;stroke:#000000;stroke-width:0.295526px;stroke-linecap:butt;stroke-linejoin:miter;stroke-opacity:1" />
    </g>
    <path
       style="fill:none;stroke:#000000;stroke-width:0.396617;stroke-linecap:round;stroke-linejoin:round;stroke-miterlimit:4;stroke-dasharray:none;stroke-opacity:1"
       d="m 43.99286,87.606322 c 17.833039,-6.980317 5.215004,-33.297402 0,-41.312607 8.889012,4.061956 34.037182,17.63592 40.180732,0 5.118656,18.829185 32.075558,3.811279 38.885718,-1.295005 -3.6058,7.976985 -17.79482,34.294071 0.0382,41.274388 -19.03964,5.81583 -8.09295,22.707022 0,35.971262 -11.17069,-10.0952 -33.805292,-17.57239 -38.923948,1.2568 -6.14355,-17.63593 -30.586878,-8.77491 -40.142508,0.0382 4.912764,-10.71245 19.001421,-30.117218 -0.03822,-35.933047 z"
       id="path1864" />
    <path
       id="path1877"
       d="M 21.02678,58.135377 C 60.752775,73.754714 58.715113,36.218682 54.817284,24.05593 66.40855,44.1327 86.6097,63.665606 115.94874,25.798178 c 0.0933,26.103037 7.11057,33.450021 29.29216,31.933677 -44.33266,25.479604 -22.95926,41.510168 -2.67467,56.704505 -26.17496,0.92284 -34.38224,6.39625 -28.61454,26.33817 -10.75781,-16.91258 -45.787539,-20.1433 -58.703379,2.41517 -1.80195,-24.91598 -0.210139,-35.77767 -33.818515,-22.24258 28.355156,-14.65938 52.25057,-42.289127 -0.403016,-62.811743 z"
       style="fill:none;stroke:#000000;stroke-width:0.526163;stroke-linecap:round;stroke-linejoin:round;stroke-miterlimit:4;stroke-dasharray:none;stroke-opacity:1" />
    <g
       transform="matrix(1.2781864,0,0,1.2781864,-9.644187,-21.023658)"
       id="g603">
      <g
         transform="translate(-1.4074012)"
         id="g667" />
    </g>
    <g
       transform="matrix(1.1654895,0,0,1.1654895,-14.859384,-13.505997)"
       id="g1772">
      <rect
         style="fill:#1a1a1a;stroke:none;stroke-width:0.912354;stroke-linecap:round;stroke-linejoin:round;stroke-miterlimit:4;stroke-dasharray:none"
         id="rect1595"
         width="74.392128"
         height="14.382482"
         x="47.470604"
         y="113.52438"
         rx="3.4716327"
         ry="3.4716327" />
      <circle
         style="fill:#ff0000;stroke:none;stroke-width:0.557016;stroke-linecap:round;stroke-linejoin:round;stroke-miterlimit:4;stroke-dasharray:none"
         id="path1597"
         cx="109.97378"
         cy="118.87656"
         r="1.6063752" />
      <circle
         r="1.6063752"
         cy="118.87656"
         cx="113.82907"
         id="circle1599"
         style="fill:#ffb380;stroke:none;stroke-width:0.557016;stroke-linecap:round;stroke-linejoin:round;stroke-miterlimit:4;stroke-dasharray:none" />
      <rect
         ry="3.4716327"
         rx="3.4716327"
         y="99.274879"
         x="47.470604"
         height="14.778656"
         width="74.392128"
         id="rect1601"
         style="fill:#1a1a1a;stroke:none;stroke-width:0.912354;stroke-linecap:round;stroke-linejoin:round;stroke-miterlimit:4;stroke-dasharray:none" />
      <circle
         r="1.6063752"
         cy="104.09792"
         cx="109.97378"
         id="circle1603"
         style="fill:#ff0000;stroke:none;stroke-width:0.557016;stroke-linecap:round;stroke-linejoin:round;stroke-miterlimit:4;stroke-dasharray:none" />
      <circle
         style="fill:#ffb380;stroke:none;stroke-width:0.557016;stroke-linecap:round;stroke-linejoin:round;stroke-miterlimit:4;stroke-dasharray:none"
         id="circle1605"
         cx="113.82907"
         cy="104.09792"
         r="1.6063752" />
      <rect
         ry="3.4716327"
         rx="3.4716327"
         y="69.925468"
         x="47.470604"
         height="29.878578"
         width="74.392128"
         id="rect1613"
         style="fill:#1a1a1a;stroke:none;stroke-width:0.912354;stroke-linecap:round;stroke-linejoin:round;stroke-miterlimit:4;stroke-dasharray:none" />
      <circle
         r="1.6063752"
         cy="74.21933"
         cx="109.97378"
         id="circle1615"
         style="fill:#ff0000;stroke:none;stroke-width:0.557016;stroke-linecap:round;stroke-linejoin:round;stroke-miterlimit:4;stroke-dasharray:none" />
      <circle
         style="fill:#ffb380;stroke:none;stroke-width:0.557016;stroke-linecap:round;stroke-linejoin:round;stroke-miterlimit:4;stroke-dasharray:none"
         id="circle1617"
         cx="113.82907"
         cy="74.21933"
         r="1.6063752" />
      <rect
         style="fill:#1a1a1a;stroke:none;stroke-width:0.912354;stroke-linecap:round;stroke-linejoin:round;stroke-miterlimit:4;stroke-dasharray:none"
         id="rect1619"
         width="74.392128"
         height="14.77866"
         x="47.470604"
         y="55.675976"
         rx="3.4716327"
         ry="3.4716327" />
      <circle
         style="fill:#ff0000;stroke:none;stroke-width:0.557016;stroke-linecap:round;stroke-linejoin:round;stroke-miterlimit:4;stroke-dasharray:none"
         id="circle1621"
         cx="109.97378"
         cy="59.440678"
         r="1.6063752" />
      <circle
         r="1.6063752"
         cy="59.440678"
         cx="113.82907"
         id="circle1623"
         style="fill:#ffb380;stroke:none;stroke-width:0.557016;stroke-linecap:round;stroke-linejoin:round;stroke-miterlimit:4;stroke-dasharray:none" />
      <rect
         ry="3.4716327"
         rx="3.4716327"
         y="41.426487"
         x="47.470604"
         height="14.778656"
         width="74.392128"
         id="rect1625"
         style="fill:#1a1a1a;stroke:none;stroke-width:0.912354;stroke-linecap:round;stroke-linejoin:round;stroke-miterlimit:4;stroke-dasharray:none" />
      <circle
         r="1.6063752"
         cy="44.662022"
         cx="109.97378"
         id="circle1627"
         style="fill:#ff0000;stroke:none;stroke-width:0.557016;stroke-linecap:round;stroke-linejoin:round;stroke-miterlimit:4;stroke-dasharray:none" />
      <circle
         style="fill:#ffb380;stroke:none;stroke-width:0.557016;stroke-linecap:round;stroke-linejoin:round;stroke-miterlimit:4;stroke-dasharray:none"
         id="circle1629"
         cx="113.82907"
         cy="44.662022"
         r="1.6063752" />
      <circle
         r="1.0400578"
         cy="118.87656"
         cx="53.147976"
         id="circle1669"
         style="fill:#afe9af;stroke:none;stroke-width:0.360644;stroke-linecap:round;stroke-linejoin:round;stroke-miterlimit:4;stroke-dasharray:none" />
      <circle
         style="fill:#ffb380;stroke:none;stroke-width:0.360644;stroke-linecap:round;stroke-linejoin:round;stroke-miterlimit:4;stroke-dasharray:none"
         id="circle1671"
         cx="55.724312"
         cy="118.87656"
         r="1.0400578" />
      <circle
         style="fill:#afe9af;stroke:none;stroke-width:0.360644;stroke-linecap:round;stroke-linejoin:round;stroke-miterlimit:4;stroke-dasharray:none"
         id="circle1673"
         cx="58.26326"
         cy="118.87656"
         r="1.0400578" />
      <circle
         r="1.0400578"
         cy="118.87656"
         cx="60.839596"
         id="circle1675"
         style="fill:#ffb380;stroke:none;stroke-width:0.360644;stroke-linecap:round;stroke-linejoin:round;stroke-miterlimit:4;stroke-dasharray:none" />
      <circle
         style="fill:#afe9af;stroke:none;stroke-width:0.360644;stroke-linecap:round;stroke-linejoin:round;stroke-miterlimit:4;stroke-dasharray:none"
         id="circle1677"
         cx="53.147976"
         cy="103.50636"
         r="1.0400578" />
      <circle
         r="1.0400578"
         cy="103.50636"
         cx="55.724312"
         id="circle1679"
         style="fill:#ffb380;stroke:none;stroke-width:0.360644;stroke-linecap:round;stroke-linejoin:round;stroke-miterlimit:4;stroke-dasharray:none" />
      <circle
         r="1.0400578"
         cy="103.50636"
         cx="58.26326"
         id="circle1681"
         style="fill:#afe9af;stroke:none;stroke-width:0.360644;stroke-linecap:round;stroke-linejoin:round;stroke-miterlimit:4;stroke-dasharray:none" />
      <circle
         style="fill:#ffb380;stroke:none;stroke-width:0.360644;stroke-linecap:round;stroke-linejoin:round;stroke-miterlimit:4;stroke-dasharray:none"
         id="circle1683"
         cx="60.839596"
         cy="103.50636"
         r="1.0400578" />
      <g
         id="g1697"
         transform="translate(0,-44.516861)">
        <circle
           style="fill:#afe9af;stroke:none;stroke-width:0.360644;stroke-linecap:round;stroke-linejoin:round;stroke-miterlimit:4;stroke-dasharray:none"
           id="circle1685"
           cx="53.147976"
           cy="103.50636"
           r="1.0400578" />
        <circle
           r="1.0400578"
           cy="103.50636"
           cx="55.724312"
           id="circle1687"
           style="fill:#ffb380;stroke:none;stroke-width:0.360644;stroke-linecap:round;stroke-linejoin:round;stroke-miterlimit:4;stroke-dasharray:none" />
        <circle
           r="1.0400578"
           cy="103.50636"
           cx="58.26326"
           id="circle1689"
           style="fill:#afe9af;stroke:none;stroke-width:0.360644;stroke-linecap:round;stroke-linejoin:round;stroke-miterlimit:4;stroke-dasharray:none" />
        <circle
           style="fill:#ffb380;stroke:none;stroke-width:0.360644;stroke-linecap:round;stroke-linejoin:round;stroke-miterlimit:4;stroke-dasharray:none"
           id="circle1691"
           cx="60.839596"
           cy="103.50636"
           r="1.0400578" />
      </g>
      <g
         transform="translate(0,-59.13183)"
         id="g1707">
        <circle
           r="1.0400578"
           cy="103.50636"
           cx="53.147976"
           id="circle1699"
           style="fill:#afe9af;stroke:none;stroke-width:0.360644;stroke-linecap:round;stroke-linejoin:round;stroke-miterlimit:4;stroke-dasharray:none" />
        <circle
           style="fill:#ffb380;stroke:none;stroke-width:0.360644;stroke-linecap:round;stroke-linejoin:round;stroke-miterlimit:4;stroke-dasharray:none"
           id="circle1701"
           cx="55.724312"
           cy="103.50636"
           r="1.0400578" />
        <circle
           style="fill:#afe9af;stroke:none;stroke-width:0.360644;stroke-linecap:round;stroke-linejoin:round;stroke-miterlimit:4;stroke-dasharray:none"
           id="circle1703"
           cx="58.26326"
           cy="103.50636"
           r="1.0400578" />
        <circle
           r="1.0400578"
           cy="103.50636"
           cx="60.839596"
           id="circle1705"
           style="fill:#ffb380;stroke:none;stroke-width:0.360644;stroke-linecap:round;stroke-linejoin:round;stroke-miterlimit:4;stroke-dasharray:none" />
      </g>
      <rect
         style="opacity:1;fill:#666666;stroke:none;stroke-width:1.05833;stroke-linecap:round;stroke-linejoin:round;stroke-miterlimit:4;stroke-dasharray:none"
         id="rect1709"
         width="4.4605408"
         height="20.258291"
         x="54.455769"
         y="75.08577"
         rx="1.3009911"
         ry="1.3009911" />
      <use
         x="0"
         y="0"
         xlink:href="#rect1709"
         id="use1711"
         transform="translate(5.9473877)"
         width="100%"
         height="100%" />
      <use
         height="100%"
         width="100%"
         transform="translate(11.894775)"
         id="use1713"
         xlink:href="#rect1709"
         y="0"
         x="0" />
      <use
         x="0"
         y="0"
         xlink:href="#rect1709"
         id="use1715"
         transform="translate(18.028019)"
         width="100%"
         height="100%" />
      <use
         height="100%"
         width="100%"
         transform="matrix(0,0.75,-0.75,0,154.12097,38.79741)"
         id="use1717"
         xlink:href="#rect1709"
         y="0"
         x="0" />
      <use
         x="0"
         y="0"
         xlink:href="#rect1709"
         id="use1719"
         transform="matrix(0,0.75,-0.75,0,171.21971,38.79741)"
         width="100%"
         height="100%" />
      <use
         x="0"
         y="0"
         xlink:href="#rect1709"
         id="use1721"
         transform="matrix(0,0.75,-0.75,0,154.12097,43.257951)"
         width="100%"
         height="100%" />
      <use
         height="100%"
         width="100%"
         transform="matrix(0,0.75,-0.75,0,171.21971,43.257951)"
         id="use1723"
         xlink:href="#rect1709"
         y="0"
         x="0" />
      <use
         height="100%"
         width="100%"
         transform="matrix(0,0.75,-0.75,0,154.12097,47.532636)"
         id="use1725"
         xlink:href="#rect1709"
         y="0"
         x="0" />
      <use
         x="0"
         y="0"
         xlink:href="#rect1709"
         id="use1727"
         transform="matrix(0,0.75,-0.75,0,171.21971,47.532636)"
         width="100%"
         height="100%" />
    </g>
  </g>
</svg>
